<svg width="1259" height="936" viewBox="0 0 1259 936" fill="none" xmlns="http://www.w3.org/2000/svg">
<g opacity="0.31">
<path d="M874.961 262.33C872.579 255.3 869.703 248.168 865.643 242C862.105 247.377 859.354 253.449 857.113 259.525C854.445 266.765 852.308 274.462 850.641 282.024C850.005 284.893 846.951 299.969 846.951 299.969C852.668 306.676 858.567 313.323 863.481 320.73L865.701 324.438C867.457 320.471 870.26 316.881 873.012 313.593C876.535 309.378 880.422 305.476 884.388 301.713C884.492 300.126 878.275 272.147 874.956 262.335L874.961 262.33Z" fill="#F5AE37"/>
<path d="M860.369 331.721C859.363 330.311 858.545 328.755 857.586 327.313C857.399 327.033 856.82 326.123 856.252 325.337C856.2 325.09 856.132 324.858 856.059 324.713C855.762 324.083 853.746 321.543 853.136 321.193C853.172 321.198 853.209 321.198 853.251 321.214C853.344 321.134 852.839 320.493 852.75 320.38C847.597 313.711 840.197 306.951 833.204 302.419C821.943 295.12 807.221 290.491 793.829 292.445C793.569 292.483 792 292.709 792 292.881C804.689 305.492 826.278 338.207 826.278 338.207C826.273 338.207 826.263 338.207 826.257 338.201C826.216 338.428 826.648 339.332 826.784 339.364C826.794 339.364 826.82 339.369 826.851 339.375L827.362 340.408C827.331 340.424 827.315 340.441 827.32 340.457C827.341 340.532 827.915 341.619 827.972 341.657C827.972 341.657 827.982 341.657 827.982 341.662L829.144 344.004L829.316 344.391C829.316 344.391 829.327 344.391 829.332 344.391L831.276 348.315L833.313 352.718C840.145 354.763 846.096 358.929 851.745 363.246C852.094 360.851 852.829 358.542 853.626 356.276C853.735 355.964 853.845 355.732 853.918 355.522C856.362 348.875 859.509 342.529 862.735 336.264H862.912L860.343 331.726L860.369 331.721Z" fill="#1A9D5B"/>
<path d="M927.045 287.654C907.895 290.717 892.371 303.823 880.714 319.077C879.458 320.724 878.265 322.425 877.082 324.131C876.602 324.82 876.128 325.509 875.649 326.193C875.539 326.274 875.477 326.322 875.477 326.322L869.203 336.834L869.213 336.861C863.877 346.157 859.541 356.06 855.961 366.217L865.664 376.713C865.836 376.745 866.04 376.455 866.149 376.336C867.301 375.104 868.353 373.505 869.521 372.202C874.325 366.852 879.969 362.056 885.836 357.998C885.836 357.998 885.836 357.998 885.836 357.987L891.595 353.983C891.595 353.983 891.595 353.988 891.595 353.994L897.384 350.613L901.308 348.536C902.777 344.999 911.459 328.459 914.013 324.411C922.137 311.536 931.761 299.749 942.09 288.725C942.475 288.311 943.241 288.026 943.22 287.374C937.817 286.815 932.428 286.793 927.056 287.654H927.045Z" fill="#E36935"/>
<path d="M862.938 383.349C862.897 383.145 861.239 380.987 860.953 380.61C860.202 379.625 859.374 378.586 858.582 377.639C858.139 377.111 850.718 369.463 850.557 369.333L850.004 368.774C849.718 368.467 847.821 366.858 847.821 366.858C846.107 365.221 844.179 363.741 842.245 362.358C827.816 352.018 809.973 346.501 792.329 347.486C792.266 347.739 792.433 347.734 792.537 347.847C793.72 349.095 795.872 350.532 797.258 351.749C807.185 360.436 815.955 370.867 823.678 381.659C825.174 383.753 826.591 385.906 828.071 388.011C828.295 388.344 828.733 388.996 829.259 389.776C829.259 389.798 829.259 389.819 829.259 389.841L831.203 392.807V392.683C831.797 393.582 832.323 394.378 832.626 394.847L833.1 395.643H833.079L843.152 413.981L845.841 412.985C848.243 407.705 851.104 402.678 854.012 397.688C855.638 395.186 863.016 383.764 862.933 383.344L862.938 383.349ZM828.29 387.634V387.58L828.316 387.623L828.29 387.634Z" fill="#7062AA"/>
<path d="M937.154 347.61C929.796 347.206 921.902 348.078 914.783 349.951C891.756 356.012 873.413 373.591 860.833 393.77H860.828L859.593 395.719C859.588 395.719 859.577 395.719 859.572 395.729L859.478 395.902L859.463 395.923L855.956 402.172C855.956 402.296 856.024 402.377 856.133 402.431C856.091 402.517 856.055 402.598 856.013 402.684H855.706C855.456 402.813 853.319 407.151 853.017 407.786C852.834 408.168 851.318 411.263 851.459 411.403C860 409.568 868.78 409.369 877.358 411.053C881.151 411.802 884.841 413.018 888.457 414.374L891.834 405.854L894.085 401.532L895.961 397.979L896.982 396.295C897.029 396.295 897.066 396.295 897.076 396.295C897.107 396.268 897.342 395.805 897.472 395.493L898.155 394.368C902.517 387.112 907.597 380.379 912.965 373.903C918.978 366.653 925.461 359.683 932.339 353.245C934.33 351.383 936.414 349.607 938.468 347.825C938.04 347.75 937.602 347.648 937.16 347.626L937.154 347.61ZM855.487 403.911C855.487 403.911 855.482 403.927 855.476 403.938C855.476 403.927 855.461 403.922 855.461 403.911C855.471 403.911 855.476 403.911 855.487 403.911ZM897.696 393.523L897.79 393.367L897.832 393.485L897.696 393.523Z" fill="#1589AB"/>
</g>
<g opacity="0.09">
<path d="M1223.34 75.3144C1214.52 49.2724 1203.86 22.8515 1188.82 0C1175.71 19.9203 1165.52 42.413 1157.22 64.9255C1147.34 91.7452 1139.42 120.26 1133.24 148.276C1130.89 158.904 1119.57 214.757 1119.57 214.757C1140.75 239.602 1162.61 264.228 1180.81 291.666L1189.03 305.405C1195.54 290.709 1205.93 277.409 1216.12 265.226C1229.17 249.612 1243.57 235.156 1258.26 221.217C1258.65 215.335 1235.62 111.685 1223.32 75.3343L1223.34 75.3144Z" fill="#F5AE37"/>
<path d="M1169.28 332.385C1165.56 327.161 1162.53 321.398 1158.97 316.054C1158.28 315.017 1156.14 311.648 1154.03 308.736C1153.84 307.819 1153.59 306.962 1153.32 306.423C1152.22 304.09 1144.75 294.678 1142.49 293.382C1142.62 293.402 1142.76 293.402 1142.91 293.462C1143.26 293.163 1141.39 290.79 1141.06 290.371C1121.97 265.665 1094.55 240.62 1068.65 223.831C1026.93 196.792 972.39 179.643 922.776 186.881C921.811 187.021 916 187.858 916 188.496C963.008 235.216 1042.99 356.413 1042.99 356.413C1042.97 356.413 1042.93 356.413 1042.91 356.394C1042.76 357.231 1044.36 360.581 1044.86 360.701C1044.9 360.701 1045 360.721 1045.11 360.74L1047 364.569C1046.89 364.629 1046.83 364.689 1046.85 364.748C1046.93 365.028 1049.05 369.056 1049.26 369.195C1049.26 369.195 1049.3 369.195 1049.3 369.215L1053.61 377.889L1054.24 379.325C1054.24 379.325 1054.28 379.325 1054.3 379.325L1061.5 393.861L1069.05 410.172C1094.36 417.75 1116.41 433.183 1137.33 449.176C1138.63 440.302 1141.35 431.748 1144.3 423.353C1144.71 422.196 1145.11 421.339 1145.38 420.561C1154.44 395.935 1166.1 372.425 1178.05 349.215H1178.7L1169.19 332.405L1169.28 332.385Z" fill="#1A9D5B"/>
<path d="M1416.3 169.133C1345.35 180.479 1287.84 229.034 1244.65 285.545C1240 291.646 1235.58 297.948 1231.2 304.269C1229.42 306.821 1227.67 309.373 1225.89 311.906C1225.48 312.205 1225.25 312.384 1225.25 312.384L1202.01 351.328L1202.05 351.427C1182.28 385.864 1166.22 422.554 1152.95 460.182L1188.9 499.065C1189.54 499.185 1190.29 498.108 1190.7 497.669C1194.96 493.103 1198.86 487.181 1203.19 482.355C1220.99 462.534 1241.89 444.768 1263.63 429.733C1263.63 429.733 1263.63 429.733 1263.63 429.693L1284.96 414.857C1284.96 414.857 1284.96 414.877 1284.96 414.897L1306.41 402.375L1320.95 394.678C1326.39 381.577 1358.55 320.301 1368.01 305.305C1398.11 257.608 1433.77 213.939 1472.03 173.101C1473.46 171.566 1476.3 170.509 1476.22 168.096C1456.2 166.023 1436.24 165.943 1416.33 169.133H1416.3Z" fill="#E36935"/>
<path d="M1178.8 523.651C1178.65 522.893 1172.51 514.897 1171.45 513.501C1168.67 509.852 1165.6 506.004 1162.66 502.494C1161.02 500.54 1133.53 472.205 1132.93 471.726L1130.89 469.653C1129.82 468.516 1122.8 462.554 1122.8 462.554C1116.45 456.492 1109.3 451.009 1102.14 445.884C1048.69 407.579 982.584 387.14 917.217 390.789C916.986 391.726 917.603 391.706 917.99 392.125C922.372 396.751 930.345 402.075 935.48 406.582C972.256 438.765 1004.75 477.409 1033.36 517.39C1038.9 525.146 1044.15 533.123 1049.63 540.919C1050.46 542.156 1052.08 544.568 1054.03 547.46C1054.03 547.539 1054.03 547.619 1054.03 547.699L1061.23 558.686V558.227C1063.43 561.557 1065.38 564.509 1066.5 566.243L1068.26 569.194H1068.18L1105.5 637.131L1115.46 633.442C1124.36 613.881 1134.96 595.256 1145.73 576.772C1151.76 567.5 1179.09 525.186 1178.78 523.631L1178.8 523.651ZM1050.44 539.523V539.324L1050.54 539.483L1050.44 539.523Z" fill="#7062AA"/>
<path d="M1453.75 391.249C1426.49 389.753 1397.24 392.984 1370.87 399.923C1285.56 422.376 1217.61 487.501 1171 562.257H1170.99L1166.41 569.475C1166.39 569.475 1166.35 569.475 1166.33 569.515L1165.99 570.153L1165.93 570.233L1152.93 593.383C1152.93 593.842 1153.19 594.141 1153.59 594.341C1153.44 594.66 1153.3 594.959 1153.15 595.278H1152.01C1151.08 595.756 1143.17 611.828 1142.05 614.181C1141.37 615.597 1135.75 627.062 1136.27 627.581C1167.92 620.781 1200.44 620.044 1232.22 626.285C1246.28 629.057 1259.94 633.563 1273.34 638.588L1285.85 607.022L1294.19 591.01L1301.14 577.85L1304.92 571.609C1305.1 571.609 1305.23 571.609 1305.27 571.609C1305.39 571.509 1306.26 569.794 1306.74 568.637L1309.27 564.47C1325.43 537.59 1344.25 512.645 1364.13 488.657C1386.41 461.798 1410.43 435.975 1435.91 412.126C1443.28 405.227 1451.01 398.647 1458.61 392.046C1457.03 391.767 1455.41 391.388 1453.77 391.309L1453.75 391.249ZM1151.2 599.824C1151.2 599.824 1151.18 599.884 1151.16 599.924C1151.16 599.884 1151.1 599.864 1151.1 599.824C1151.14 599.824 1151.16 599.824 1151.2 599.824ZM1307.57 561.339L1307.92 560.761L1308.07 561.2L1307.57 561.339Z" fill="#1589AB"/>
</g>
<g opacity="0.31">
<path d="M82.9606 783.33C80.5791 776.3 77.7026 769.168 73.6432 763C70.1049 768.377 67.3535 774.449 65.1127 780.525C62.4447 787.765 60.3081 795.462 58.6406 803.024C58.0048 805.893 54.9512 820.969 54.9512 820.969C60.6677 827.676 66.5666 834.323 71.4806 841.73L73.7005 845.438C75.4566 841.471 78.2602 837.881 81.0116 834.593C84.5343 830.378 88.4217 826.476 92.3873 822.713C92.4916 821.126 86.2748 793.147 82.9553 783.335L82.9606 783.33Z" fill="#F5AE37"/>
<path d="M68.369 852.721C67.3632 851.311 66.5451 849.755 65.5862 848.313C65.3986 848.033 64.8202 847.123 64.2522 846.337C64.2001 846.09 64.1324 845.858 64.0594 845.713C63.7624 845.083 61.7457 842.543 61.136 842.193C61.1725 842.198 61.209 842.198 61.2507 842.214C61.3445 842.134 60.839 841.493 60.7504 841.38C55.5967 834.711 48.197 827.951 41.2038 823.419C29.9427 816.12 15.2215 811.491 1.82908 813.445C1.56853 813.483 0 813.709 0 813.881C12.6889 826.492 34.2783 859.207 34.2783 859.207C34.2731 859.207 34.2626 859.207 34.2574 859.202C34.2157 859.428 34.6483 860.332 34.7837 860.364C34.7942 860.364 34.8202 860.37 34.8515 860.375L35.3622 861.408C35.3309 861.425 35.3153 861.441 35.3205 861.457C35.3413 861.532 35.9145 862.619 35.9719 862.657C35.9719 862.657 35.9823 862.657 35.9823 862.663L37.1444 865.004L37.3163 865.391C37.3163 865.391 37.3267 865.391 37.3319 865.391L39.2757 869.315L41.3132 873.718C48.1449 875.764 54.0959 879.93 59.7447 884.246C60.0938 881.851 60.8286 879.542 61.6259 877.276C61.7353 876.964 61.8447 876.732 61.9177 876.522C64.3617 869.875 67.5091 863.529 70.7348 857.264H70.9119L68.3429 852.726L68.369 852.721Z" fill="#1A9D5B"/>
<path d="M135.045 808.654C115.895 811.717 100.371 824.823 88.7139 840.077C87.458 841.724 86.2647 843.425 85.0818 845.131C84.6024 845.82 84.1282 846.509 83.6488 847.193C83.5393 847.274 83.4768 847.322 83.4768 847.322L77.2027 857.834L77.2131 857.861C71.877 867.157 67.5414 877.06 63.9614 887.217L73.6644 897.713C73.8364 897.745 74.0396 897.455 74.149 897.336C75.3007 896.104 76.3533 894.505 77.5206 893.202C82.3252 887.852 87.9687 883.056 93.8364 878.998C93.8364 878.998 93.8364 878.998 93.8364 878.987L99.5946 874.983C99.5946 874.983 99.5946 874.988 99.5946 874.994L105.384 871.613L109.308 869.536C110.777 865.999 119.459 849.459 122.013 845.411C130.137 832.536 139.761 820.749 150.09 809.725C150.475 809.311 151.241 809.026 151.22 808.374C145.817 807.815 140.428 807.793 135.056 808.654H135.045Z" fill="#E36935"/>
<path d="M70.9383 904.349C70.8966 904.145 69.2395 901.987 68.9529 901.61C68.2025 900.625 67.3739 899.586 66.5819 898.639C66.1389 898.111 58.7184 890.463 58.5568 890.333L58.0045 889.774C57.7179 889.467 55.821 887.858 55.821 887.858C54.1066 886.221 52.1785 884.741 50.2452 883.358C35.8158 873.018 17.9732 867.501 0.32859 868.486C0.266057 868.739 0.432808 868.734 0.537029 868.847C1.71994 870.095 3.8721 871.532 5.25824 872.749C15.1853 881.436 23.9555 891.867 31.6783 902.659C33.1738 904.753 34.5912 906.906 36.0712 909.011C36.2952 909.344 36.733 909.996 37.2593 910.776C37.2593 910.798 37.2593 910.819 37.2593 910.841L39.203 913.807V913.683C39.7971 914.582 40.3234 915.378 40.6256 915.847L41.0998 916.643H41.079L51.1519 934.981L53.8409 933.985C56.2431 928.705 59.104 923.678 62.0118 918.688C63.6376 916.186 71.0165 904.764 70.9331 904.344L70.9383 904.349ZM36.29 908.634V908.58L36.3161 908.623L36.29 908.634Z" fill="#7062AA"/>
<path d="M145.155 868.61C137.797 868.206 129.902 869.078 122.784 870.951C99.7559 877.012 81.413 894.591 68.8336 914.77H68.8284L67.5933 916.719C67.5881 916.719 67.5777 916.719 67.5725 916.73L67.4787 916.902L67.4631 916.923L63.956 923.172C63.956 923.296 64.0238 923.377 64.1332 923.431C64.0915 923.517 64.055 923.598 64.0134 923.684H63.7059C63.4558 923.813 61.3192 928.151 61.017 928.786C60.8346 929.169 59.3182 932.263 59.4589 932.403C67.9998 930.568 76.7804 930.369 85.3578 932.054C89.1515 932.802 92.8409 934.018 96.4574 935.375L99.8341 926.854L102.085 922.532L103.961 918.979L104.983 917.295C105.03 917.295 105.066 917.295 105.076 917.295C105.108 917.268 105.342 916.805 105.472 916.493L106.155 915.368C110.517 908.112 115.598 901.379 120.965 894.904C126.978 887.653 133.461 880.683 140.34 874.246C142.33 872.383 144.415 870.607 146.468 868.825C146.04 868.75 145.603 868.648 145.16 868.626L145.155 868.61ZM63.487 924.911C63.487 924.911 63.4818 924.927 63.4766 924.938C63.4766 924.927 63.461 924.922 63.461 924.911C63.4714 924.911 63.4766 924.911 63.487 924.911ZM105.697 914.523L105.79 914.367L105.832 914.485L105.697 914.523Z" fill="#1589AB"/>
</g>
</svg>
