<svg width="409" height="86" viewBox="0 0 409 86" fill="none" xmlns="http://www.w3.org/2000/svg">
<path d="M88.3789 45H74.668V16.6016H89.8633C91.1393 16.6016 92.2852 16.9661 93.3008 17.6953C94.3164 18.4115 95.0781 19.3164 95.5859 20.4102C96.0938 21.4909 96.3477 22.6367 96.3477 23.8477C96.3477 25.2669 95.9896 26.582 95.2734 27.793C94.5573 29.0039 93.5547 29.8893 92.2656 30.4492C93.9062 30.931 95.1953 31.8034 96.1328 33.0664C97.0703 34.3164 97.5391 35.8529 97.5391 37.6758C97.5391 39.2122 97.1159 40.5469 96.2695 41.6797C95.4362 42.7995 94.3359 43.6328 92.9688 44.1797C91.6016 44.7266 90.0716 45 88.3789 45ZM80.1758 21.3281V28.4766H87.5391C88.4896 28.4766 89.2839 28.151 89.9219 27.5C90.5729 26.849 90.8984 25.9766 90.8984 24.8828C90.8984 23.8151 90.599 22.9557 90 22.3047C89.4141 21.6536 88.6719 21.3281 87.7734 21.3281H80.1758ZM88.6523 32.832H80.1758V40.3125H88.3789C89.3685 40.3125 90.2148 39.9544 90.918 39.2383C91.6211 38.5221 91.9727 37.6562 91.9727 36.6406C91.9727 35.599 91.6471 34.707 90.9961 33.9648C90.3581 33.2096 89.5768 32.832 88.6523 32.832ZM108.906 16.6016H114.512L124.941 45H119.258L116.621 37.9297H106.699L104.102 45H98.418L108.906 16.6016ZM115.625 34.043L111.699 22.3242L107.617 34.043H115.625ZM128.066 45V16.6016H140.625C142.305 16.6016 143.848 17.0703 145.254 18.0078C146.66 18.9323 147.741 20.1107 148.496 21.543C149.264 22.9753 149.648 24.4727 149.648 26.0352C149.648 27.8581 149.18 29.5312 148.242 31.0547C147.318 32.5651 146.081 33.6523 144.531 34.3164L151.016 45H144.941L139.102 35.4883H133.574V45H128.066ZM133.574 30.6445H140.488C141.504 30.6445 142.357 30.2018 143.047 29.3164C143.75 28.418 144.102 27.3242 144.102 26.0352C144.102 24.7461 143.711 23.6589 142.93 22.7734C142.148 21.888 141.257 21.4453 140.254 21.4453H133.574V30.6445ZM166.777 16.4453C169.316 16.4453 171.556 17.0052 173.496 18.125C175.449 19.2448 176.895 20.7487 177.832 22.6367L173.574 25.5664C173.118 24.5508 172.487 23.7174 171.68 23.0664C170.872 22.4023 170.052 21.9466 169.219 21.6992C168.398 21.4518 167.533 21.3281 166.621 21.3281C165.293 21.3281 164.089 21.6081 163.008 22.168C161.94 22.7148 161.074 23.444 160.41 24.3555C159.759 25.2669 159.258 26.276 158.906 27.3828C158.555 28.4766 158.379 29.6029 158.379 30.7617C158.379 32.4414 158.724 34.0104 159.414 35.4688C160.104 36.9271 161.094 38.1055 162.383 39.0039C163.672 39.9023 165.111 40.3516 166.699 40.3516C167.611 40.3516 168.503 40.2148 169.375 39.9414C170.247 39.6549 171.081 39.1797 171.875 38.5156C172.682 37.8385 173.294 37.0117 173.711 36.0352L178.223 38.6328C177.663 39.987 176.738 41.1784 175.449 42.207C174.173 43.2227 172.76 43.9844 171.211 44.4922C169.674 44.987 168.118 45.2344 166.543 45.2344C164.967 45.2344 163.457 44.9609 162.012 44.4141C160.566 43.8672 159.29 43.1185 158.184 42.168C157.09 41.2044 156.126 40.1107 155.293 38.8867C154.473 37.6497 153.848 36.3216 153.418 34.9023C152.988 33.4701 152.773 32.0378 152.773 30.6055C152.773 28.8607 153.092 27.1484 153.73 25.4688C154.382 23.7891 155.286 22.2786 156.445 20.9375C157.604 19.5964 159.082 18.5156 160.879 17.6953C162.676 16.862 164.642 16.4453 166.777 16.4453ZM189.258 16.6016H194.863L205.293 45H199.609L196.973 37.9297H187.051L184.453 45H178.77L189.258 16.6016ZM195.977 34.043L192.051 22.3242L187.969 34.043H195.977ZM208.418 45V16.6016H220.977C222.656 16.6016 224.199 17.0703 225.605 18.0078C227.012 18.9323 228.092 20.1107 228.848 21.543C229.616 22.9753 230 24.4727 230 26.0352C230 27.8581 229.531 29.5312 228.594 31.0547C227.669 32.5651 226.432 33.6523 224.883 34.3164L231.367 45H225.293L219.453 35.4883H213.926V45H208.418ZM213.926 30.6445H220.84C221.855 30.6445 222.708 30.2018 223.398 29.3164C224.102 28.418 224.453 27.3242 224.453 26.0352C224.453 24.7461 224.062 23.6589 223.281 22.7734C222.5 21.888 221.608 21.4453 220.605 21.4453H213.926V30.6445ZM254.727 40.1562V45H235.02V16.6016H254.375V21.4453H240.527V28.2812H252.5V32.7539H240.527V40.1562H254.727ZM264.551 26.7578V45H259.043V16.6016H263.438L278.105 35.3125V16.6406H283.633V45H279.043L264.551 26.7578ZM297.266 16.6016H302.871L313.301 45H307.617L304.98 37.9297H295.059L292.461 45H286.777L297.266 16.6016ZM303.984 34.043L300.059 22.3242L295.977 34.043H303.984ZM324.141 36.4453V31.6016H336.25V36.4453H324.141ZM341.504 45V16.6016H353.535C354.798 16.6016 355.996 16.875 357.129 17.4219C358.275 17.9688 359.238 18.6849 360.02 19.5703C360.814 20.4557 361.439 21.4648 361.895 22.5977C362.35 23.7305 362.578 24.8763 362.578 26.0352C362.578 27.6628 362.214 29.1927 361.484 30.625C360.755 32.0573 359.701 33.2292 358.32 34.1406C356.953 35.0391 355.423 35.4883 353.73 35.4883H347.012V45H341.504ZM347.012 30.6445H353.418C354.447 30.6445 355.293 30.2214 355.957 29.375C356.634 28.5286 356.973 27.4154 356.973 26.0352C356.973 24.6289 356.595 23.5156 355.84 22.6953C355.098 21.862 354.212 21.4453 353.184 21.4453H347.012V30.6445ZM372.109 16.6016H377.715L388.145 45H382.461L379.824 37.9297H369.902L367.305 45H361.621L372.109 16.6016ZM378.828 34.043L374.902 22.3242L370.82 34.043H378.828Z" fill="#1A9D5B"/>
<path d="M94.7305 80.6211V83H83.0469V65.9609H94.5195V68.3398H85.7305V73.1797H93.3359V75.418H85.7305V80.6211H94.7305ZM104.352 65.8672C105.844 65.8672 107.152 66.207 108.277 66.8867C109.41 67.5586 110.262 68.457 110.832 69.582L108.723 71C108.496 70.5078 108.211 70.082 107.867 69.7227C107.523 69.3555 107.148 69.0742 106.742 68.8789C106.336 68.6758 105.926 68.5273 105.512 68.4336C105.105 68.3398 104.688 68.293 104.258 68.293C103.57 68.293 102.93 68.4141 102.336 68.6562C101.742 68.8906 101.234 69.207 100.812 69.6055C100.391 70.0039 100.027 70.4688 99.7227 71C99.418 71.5312 99.1914 72.0898 99.043 72.6758C98.9023 73.2617 98.832 73.8555 98.832 74.457C98.832 75.5586 99.0625 76.5859 99.5234 77.5391C99.9922 78.4922 100.652 79.2617 101.504 79.8477C102.355 80.4258 103.297 80.7148 104.328 80.7148C104.914 80.7148 105.484 80.625 106.039 80.4453C106.602 80.2578 107.141 79.9492 107.656 79.5195C108.18 79.082 108.582 78.5469 108.863 77.9141L111.102 79.1797C110.766 79.9922 110.219 80.707 109.461 81.3242C108.703 81.9414 107.871 82.3984 106.965 82.6953C106.059 82.9922 105.148 83.1406 104.234 83.1406C103.078 83.1406 101.984 82.8867 100.953 82.3789C99.9297 81.8711 99.0664 81.2031 98.3633 80.375C97.668 79.5469 97.1172 78.6094 96.7109 77.5625C96.3047 76.5078 96.1016 75.4414 96.1016 74.3633C96.1016 73.5352 96.2188 72.7148 96.4531 71.9023C96.6875 71.082 97.0391 70.3125 97.5078 69.5938C97.9844 68.8672 98.5469 68.2266 99.1953 67.6719C99.8438 67.1172 100.613 66.6797 101.504 66.3594C102.395 66.0312 103.344 65.8672 104.352 65.8672ZM112.297 74.4805C112.297 73.3555 112.504 72.2695 112.918 71.2227C113.34 70.168 113.91 69.2461 114.629 68.457C115.348 67.668 116.219 67.0352 117.242 66.5586C118.266 66.082 119.352 65.8438 120.5 65.8438C121.68 65.8438 122.785 66.0938 123.816 66.5938C124.848 67.0938 125.707 67.7539 126.395 68.5742C127.09 69.3867 127.637 70.3125 128.035 71.3516C128.434 72.3828 128.633 73.4336 128.633 74.5039C128.633 75.6289 128.422 76.7148 128 77.7617C127.586 78.8086 127.023 79.7266 126.312 80.5156C125.602 81.3047 124.734 81.9375 123.711 82.4141C122.688 82.8828 121.602 83.1172 120.453 83.1172C119.5 83.1172 118.594 82.9609 117.734 82.6484C116.875 82.3281 116.117 81.8906 115.461 81.3359C114.812 80.7812 114.246 80.1406 113.762 79.4141C113.285 78.6875 112.922 77.9023 112.672 77.0586C112.422 76.207 112.297 75.3477 112.297 74.4805ZM120.477 80.6914C121.305 80.6914 122.066 80.5117 122.762 80.1523C123.457 79.793 124.027 79.3203 124.473 78.7344C124.918 78.1406 125.262 77.4766 125.504 76.7422C125.754 76.0078 125.879 75.2539 125.879 74.4805C125.879 73.6758 125.746 72.9023 125.48 72.1602C125.223 71.4102 124.863 70.75 124.402 70.1797C123.949 69.6016 123.379 69.1445 122.691 68.8086C122.012 68.4648 121.273 68.293 120.477 68.293C119.648 68.293 118.883 68.4727 118.18 68.832C117.484 69.1836 116.91 69.6523 116.457 70.2383C116.004 70.8242 115.652 71.4844 115.402 72.2188C115.152 72.9531 115.027 73.707 115.027 74.4805C115.027 75.5586 115.242 76.5664 115.672 77.5039C116.109 78.4414 116.75 79.207 117.594 79.8008C118.438 80.3945 119.398 80.6914 120.477 80.6914ZM131.422 83V65.9609H138.57C139.555 65.9609 140.457 66.2344 141.277 66.7812C142.105 67.3281 142.742 68.0234 143.188 68.8672C143.633 69.7109 143.855 70.5898 143.855 71.5039C143.855 72.2148 143.73 72.9062 143.48 73.5781C143.23 74.25 142.883 74.8438 142.438 75.3594C142 75.875 141.453 76.2891 140.797 76.6016C140.148 76.9141 139.453 77.0703 138.711 77.0703H134.105V83H131.422ZM134.105 74.6914H138.547C139.297 74.6914 139.91 74.3906 140.387 73.7891C140.871 73.1875 141.113 72.4258 141.113 71.5039C141.113 70.582 140.848 69.8242 140.316 69.2305C139.785 68.6367 139.148 68.3398 138.406 68.3398H134.105V74.6914ZM150.078 65.9609H152.621L159.242 83H156.406L154.613 78.3711H148.039L146.258 83H143.398L150.078 65.9609ZM154.086 76.3789L151.344 68.9141L148.52 76.3789H154.086ZM161.352 83V65.9609H168.77C169.512 65.9609 170.215 66.1211 170.879 66.4414C171.551 66.7617 172.113 67.1836 172.566 67.707C173.02 68.2305 173.379 68.8242 173.645 69.4883C173.91 70.1523 174.043 70.8242 174.043 71.5039C174.043 72.6602 173.738 73.707 173.129 74.6445C172.52 75.5742 171.715 76.1992 170.715 76.5195L174.723 83H171.699L167.996 77.0703H164.035V83H161.352ZM164.035 74.6914H168.746C169.488 74.6914 170.102 74.3828 170.586 73.7656C171.07 73.1406 171.312 72.3867 171.312 71.5039C171.312 70.6367 171.039 69.8945 170.492 69.2773C169.945 68.6523 169.312 68.3398 168.594 68.3398H164.035V74.6914ZM192.43 74.5039C192.43 75.6133 192.23 76.6836 191.832 77.7148C191.441 78.7461 190.883 79.6602 190.156 80.457L192.383 83H189.793L188.691 81.7578C187.395 82.6641 185.914 83.1172 184.25 83.1172C183.297 83.1094 182.391 82.9492 181.531 82.6367C180.672 82.3164 179.914 81.8789 179.258 81.3242C178.609 80.7695 178.043 80.1328 177.559 79.4141C177.082 78.6875 176.719 77.9023 176.469 77.0586C176.219 76.207 176.094 75.3477 176.094 74.4805C176.094 73.3555 176.301 72.2695 176.715 71.2227C177.137 70.168 177.707 69.2461 178.426 68.457C179.145 67.668 180.016 67.0352 181.039 66.5586C182.062 66.082 183.148 65.8438 184.297 65.8438C185.477 65.8438 186.582 66.0938 187.613 66.5938C188.645 67.0938 189.504 67.7539 190.191 68.5742C190.887 69.3867 191.434 70.3125 191.832 71.3516C192.23 72.3828 192.43 73.4336 192.43 74.5039ZM184.273 80.6914C185.32 80.6914 186.25 80.4141 187.062 79.8594L184.613 77.0703H187.203L188.445 78.4883C189.266 77.332 189.676 75.9961 189.676 74.4805C189.676 73.6758 189.543 72.8984 189.277 72.1484C189.02 71.3984 188.66 70.7383 188.199 70.168C187.746 69.5898 187.176 69.1289 186.488 68.7852C185.809 68.4414 185.07 68.2695 184.273 68.2695C183.445 68.2695 182.68 68.4492 181.977 68.8086C181.281 69.168 180.707 69.6406 180.254 70.2266C179.801 70.8125 179.449 71.4766 179.199 72.2188C178.949 72.9531 178.824 73.707 178.824 74.4805C178.824 75.5586 179.039 76.5664 179.469 77.5039C179.906 78.4414 180.547 79.207 181.391 79.8008C182.234 80.3945 183.195 80.6914 184.273 80.6914ZM202.273 83.1172C201.219 83.1172 200.27 82.9609 199.426 82.6484C198.59 82.3359 197.895 81.918 197.34 81.3945C196.785 80.8711 196.324 80.2422 195.957 79.5078C195.59 78.7656 195.324 77.9922 195.16 77.1875C195.004 76.375 194.926 75.5117 194.926 74.5977V65.9609H197.621V74.5977C197.621 75.2461 197.668 75.8594 197.762 76.4375C197.855 77.0078 198.016 77.5586 198.242 78.0898C198.477 78.6211 198.766 79.0742 199.109 79.4492C199.453 79.8242 199.895 80.125 200.434 80.3516C200.973 80.5781 201.586 80.6914 202.273 80.6914C202.969 80.6914 203.586 80.5781 204.125 80.3516C204.672 80.1172 205.117 79.8086 205.461 79.4258C205.805 79.043 206.09 78.5859 206.316 78.0547C206.543 77.5234 206.699 76.9766 206.785 76.4141C206.879 75.8438 206.926 75.2383 206.926 74.5977V65.9609H209.645V74.5977C209.645 75.793 209.504 76.8945 209.223 77.9023C208.941 78.9023 208.512 79.8008 207.934 80.5977C207.363 81.3867 206.594 82.0039 205.625 82.4492C204.664 82.8945 203.547 83.1172 202.273 83.1172ZM224.902 80.6211V83H213.219V65.9609H224.691V68.3398H215.902V73.1797H223.508V75.418H215.902V80.6211H224.902ZM233.609 83V65.9609H239.656C240.992 65.9609 242.191 66.1836 243.254 66.6289C244.324 67.0664 245.199 67.6758 245.879 68.457C246.559 69.2305 247.074 70.1289 247.426 71.1523C247.785 72.168 247.965 73.2695 247.965 74.457C247.965 77.0352 247.207 79.1055 245.691 80.668C244.184 82.2227 242.172 83 239.656 83H233.609ZM239.656 68.3398H236.293V80.6211H239.656C240.828 80.6211 241.836 80.3516 242.68 79.8125C243.531 79.2656 244.168 78.5312 244.59 77.6094C245.012 76.6875 245.223 75.6367 245.223 74.457C245.223 72.6367 244.727 71.1641 243.734 70.0391C242.75 68.9062 241.391 68.3398 239.656 68.3398ZM249.711 74.4805C249.711 73.3555 249.918 72.2695 250.332 71.2227C250.754 70.168 251.324 69.2461 252.043 68.457C252.762 67.668 253.633 67.0352 254.656 66.5586C255.68 66.082 256.766 65.8438 257.914 65.8438C259.094 65.8438 260.199 66.0938 261.23 66.5938C262.262 67.0938 263.121 67.7539 263.809 68.5742C264.504 69.3867 265.051 70.3125 265.449 71.3516C265.848 72.3828 266.047 73.4336 266.047 74.5039C266.047 75.6289 265.836 76.7148 265.414 77.7617C265 78.8086 264.438 79.7266 263.727 80.5156C263.016 81.3047 262.148 81.9375 261.125 82.4141C260.102 82.8828 259.016 83.1172 257.867 83.1172C256.914 83.1172 256.008 82.9609 255.148 82.6484C254.289 82.3281 253.531 81.8906 252.875 81.3359C252.227 80.7812 251.66 80.1406 251.176 79.4141C250.699 78.6875 250.336 77.9023 250.086 77.0586C249.836 76.207 249.711 75.3477 249.711 74.4805ZM257.891 80.6914C258.719 80.6914 259.48 80.5117 260.176 80.1523C260.871 79.793 261.441 79.3203 261.887 78.7344C262.332 78.1406 262.676 77.4766 262.918 76.7422C263.168 76.0078 263.293 75.2539 263.293 74.4805C263.293 73.6758 263.16 72.9023 262.895 72.1602C262.637 71.4102 262.277 70.75 261.816 70.1797C261.363 69.6016 260.793 69.1445 260.105 68.8086C259.426 68.4648 258.688 68.293 257.891 68.293C257.062 68.293 256.297 68.4727 255.594 68.832C254.898 69.1836 254.324 69.6523 253.871 70.2383C253.418 70.8242 253.066 71.4844 252.816 72.2188C252.566 72.9531 252.441 73.707 252.441 74.4805C252.441 75.5586 252.656 76.5664 253.086 77.5039C253.523 78.4414 254.164 79.207 255.008 79.8008C255.852 80.3945 256.812 80.6914 257.891 80.6914ZM281.938 65.8672C283.43 65.8672 284.738 66.207 285.863 66.8867C286.996 67.5586 287.848 68.457 288.418 69.582L286.309 71C286.082 70.5078 285.797 70.082 285.453 69.7227C285.109 69.3555 284.734 69.0742 284.328 68.8789C283.922 68.6758 283.512 68.5273 283.098 68.4336C282.691 68.3398 282.273 68.293 281.844 68.293C281.156 68.293 280.516 68.4141 279.922 68.6562C279.328 68.8906 278.82 69.207 278.398 69.6055C277.977 70.0039 277.613 70.4688 277.309 71C277.004 71.5312 276.777 72.0898 276.629 72.6758C276.488 73.2617 276.418 73.8555 276.418 74.457C276.418 75.5586 276.648 76.5859 277.109 77.5391C277.578 78.4922 278.238 79.2617 279.09 79.8477C279.941 80.4258 280.883 80.7148 281.914 80.7148C282.5 80.7148 283.07 80.625 283.625 80.4453C284.188 80.2578 284.727 79.9492 285.242 79.5195C285.766 79.082 286.168 78.5469 286.449 77.9141L288.688 79.1797C288.352 79.9922 287.805 80.707 287.047 81.3242C286.289 81.9414 285.457 82.3984 284.551 82.6953C283.645 82.9922 282.734 83.1406 281.82 83.1406C280.664 83.1406 279.57 82.8867 278.539 82.3789C277.516 81.8711 276.652 81.2031 275.949 80.375C275.254 79.5469 274.703 78.6094 274.297 77.5625C273.891 76.5078 273.688 75.4414 273.688 74.3633C273.688 73.5352 273.805 72.7148 274.039 71.9023C274.273 71.082 274.625 70.3125 275.094 69.5938C275.57 68.8672 276.133 68.2266 276.781 67.6719C277.43 67.1172 278.199 66.6797 279.09 66.3594C279.98 66.0312 280.93 65.8672 281.938 65.8672ZM295.859 65.9609H298.402L305.023 83H302.188L300.395 78.3711H293.82L292.039 83H289.18L295.859 65.9609ZM299.867 76.3789L297.125 68.9141L294.301 76.3789H299.867ZM307.133 83V65.9609H318.488V68.3398H309.816V73.4258H317.07V75.6523H309.816V83H307.133ZM332.715 80.6211V83H321.031V65.9609H332.504V68.3398H323.715V73.1797H331.32V75.418H323.715V80.6211H332.715ZM334.309 80.9375L344.609 68.3398H334.555V65.9609H347.797V68.0234L337.766 80.6211H347.832V83H334.309V80.9375ZM355.508 65.9609H358.051L364.672 83H361.836L360.043 78.3711H353.469L351.688 83H348.828L355.508 65.9609ZM359.516 76.3789L356.773 68.9141L353.949 76.3789H359.516ZM366.781 83V65.9609H369.465V80.6211H378.617V83H366.781Z" fill="#1A9D5B"/>
<path d="M55 44.5C55 58.2308 39.7677 72.5307 34.6527 76.9472C34.1762 77.3056 33.5962 77.4993 33 77.4993C32.4038 77.4993 31.8238 77.3056 31.3473 76.9472C26.2323 72.5307 11 58.2308 11 44.5C11 38.6652 13.3179 33.0695 17.4437 28.9437C21.5695 24.8179 27.1652 22.5 33 22.5C38.8348 22.5 44.4306 24.8179 48.5564 28.9437C52.6822 33.0695 55 38.6652 55 44.5Z" stroke="#EC6560" stroke-width="5" stroke-linecap="round" stroke-linejoin="round"/>
<path d="M33 52.75C37.5563 52.75 41.25 49.0563 41.25 44.5C41.25 39.9437 37.5563 36.25 33 36.25C28.4437 36.25 24.75 39.9437 24.75 44.5C24.75 49.0563 28.4437 52.75 33 52.75Z" stroke="#EC6560" stroke-width="5" stroke-linecap="round" stroke-linejoin="round"/>
</svg>
