<svg width="39" height="39" viewBox="0 0 39 39" fill="none" xmlns="http://www.w3.org/2000/svg">
<circle cx="19.5" cy="19.5" r="19.5" fill="#FF7D3C"/>
<path d="M29.8119 24.1631L21.3336 9.3261C21.1488 8.9999 20.8807 8.72858 20.5567 8.53981C20.2328 8.35104 19.8645 8.25159 19.4896 8.25159C19.1147 8.25159 18.7464 8.35104 18.4225 8.53981C18.0985 8.72858 17.8304 8.9999 17.6456 9.3261L9.16732 24.1631C8.98046 24.4867 8.88248 24.8539 8.88331 25.2276C8.88413 25.6013 8.98374 25.9681 9.17203 26.2909C9.36032 26.6137 9.6306 26.881 9.95547 27.0656C10.2803 27.2503 10.6483 27.3458 11.0219 27.3424H27.9785C28.3503 27.342 28.7156 27.2438 29.0375 27.0576C29.3594 26.8714 29.6267 26.6038 29.8124 26.2817C29.9982 25.9595 30.0959 25.5942 30.0959 25.2223C30.0958 24.8504 29.9978 24.4851 29.8119 24.1631Z" stroke="white" stroke-width="2" stroke-linecap="round" stroke-linejoin="round"/>
<path d="M19.5 14.625V18.8641" stroke="white" stroke-width="2" stroke-linecap="round" stroke-linejoin="round"/>
<path d="M19.5 23.1033H19.5106" stroke="white" stroke-width="2" stroke-linecap="round" stroke-linejoin="round"/>
</svg>
