<svg width="39" height="39" viewBox="0 0 39 39" fill="none" xmlns="http://www.w3.org/2000/svg">
<circle cx="19.5" cy="19.5" r="19.5" fill="#F5AE37"/>
<path d="M23.2949 26.562L23.9999 29" stroke="white" stroke-width="2" stroke-linecap="round" stroke-linejoin="round"/>
<path d="M25 23L28.758 25.098" stroke="white" stroke-width="2" stroke-linecap="round" stroke-linejoin="round"/>
<path d="M27 19.5L30.026 18.902" stroke="white" stroke-width="2" stroke-linecap="round" stroke-linejoin="round"/>
<path d="M15.61 13.3C14.9144 12.9735 14.12 12.9262 13.3907 13.1681C12.6613 13.41 12.0526 13.9225 11.69 14.6L10.31 17.39C9.9864 18.0845 9.9408 18.8765 10.1825 19.6035C10.4242 20.3306 10.935 20.9376 11.61 21.3L18.5 24.897C18.6174 24.9558 18.7453 24.9909 18.8763 25.0003C19.0074 25.0096 19.139 24.9931 19.2636 24.9516C19.3882 24.91 19.5034 24.8444 19.6027 24.7583C19.7019 24.6723 19.7832 24.5675 19.842 24.45L22.948 18.239C23.0664 18.0019 23.0858 17.7275 23.002 17.476C22.9182 17.2246 22.738 17.0167 22.501 16.898L15.61 13.3Z" stroke="white" stroke-width="2" stroke-linecap="round" stroke-linejoin="round"/>
<path d="M16 16V9" stroke="white" stroke-width="2" stroke-linecap="round" stroke-linejoin="round"/>
</svg>
