<svg width="51" height="51" viewBox="0 0 51 51" fill="none" xmlns="http://www.w3.org/2000/svg">
<g filter="url(#filter0_d_93_34414)">
<circle cx="24.5" cy="24.5" r="19.5" fill="#A897ED"/>
<path d="M28.9999 14L26.6999 16.3C26.1502 16.8608 25.8423 17.6147 25.8423 18.4C25.8423 19.1853 26.1502 19.9392 26.6999 20.5L28.4999 22.3C29.0606 22.8497 29.8146 23.1576 30.5999 23.1576C31.3851 23.1576 32.1391 22.8497 32.6999 22.3L34.9999 20" stroke="white" stroke-width="2" stroke-linecap="round" stroke-linejoin="round"/>
<path d="M28.0002 27L16.3002 15.3C15.901 15.6911 15.584 16.1579 15.3675 16.673C15.151 17.1881 15.0396 17.7413 15.0396 18.3C15.0396 18.8588 15.151 19.412 15.3675 19.9271C15.584 20.4422 15.901 20.909 16.3002 21.3L23.6002 28.6C24.3002 29.3 25.6002 29.3 26.4002 28.6L28.0002 27ZM28.0002 27L35.0002 34" stroke="white" stroke-width="2" stroke-linecap="round" stroke-linejoin="round"/>
<path d="M15.1001 33.8L21.5001 27.5" stroke="white" stroke-width="2" stroke-linecap="round" stroke-linejoin="round"/>
<path d="M32 17L25 24" stroke="white" stroke-width="2" stroke-linecap="round" stroke-linejoin="round"/>
</g>
<defs>
<filter id="filter0_d_93_34414" x="0.2" y="0.2" width="50.6" height="50.6" filterUnits="userSpaceOnUse" color-interpolation-filters="sRGB">
<feFlood flood-opacity="0" result="BackgroundImageFix"/>
<feColorMatrix in="SourceAlpha" type="matrix" values="0 0 0 0 0 0 0 0 0 0 0 0 0 0 0 0 0 0 127 0" result="hardAlpha"/>
<feOffset dx="1" dy="1"/>
<feGaussianBlur stdDeviation="2.9"/>
<feComposite in2="hardAlpha" operator="out"/>
<feColorMatrix type="matrix" values="0 0 0 0 0 0 0 0 0 0 0 0 0 0 0 0 0 0 0.25 0"/>
<feBlend mode="normal" in2="BackgroundImageFix" result="effect1_dropShadow_93_34414"/>
<feBlend mode="normal" in="SourceGraphic" in2="effect1_dropShadow_93_34414" result="shape"/>
</filter>
</defs>
</svg>
