<svg width="17" height="16" viewBox="0 0 17 16" fill="none" xmlns="http://www.w3.org/2000/svg">
<path d="M13.4582 4V13.3333C13.4582 13.687 13.3089 14.0261 13.0432 14.2761C12.7776 14.5262 12.4172 14.6667 12.0415 14.6667H4.95817C4.58245 14.6667 4.22211 14.5262 3.95644 14.2761C3.69076 14.0261 3.5415 13.687 3.5415 13.3333V4" stroke="white" stroke-linecap="round" stroke-linejoin="round"/>
<path d="M2.125 4H14.875" stroke="white" stroke-linecap="round" stroke-linejoin="round"/>
<path d="M5.6665 3.99992V2.66659C5.6665 2.31296 5.81576 1.97382 6.08144 1.72378C6.34711 1.47373 6.70745 1.33325 7.08317 1.33325H9.9165C10.2922 1.33325 10.6526 1.47373 10.9182 1.72378C11.1839 1.97382 11.3332 2.31296 11.3332 2.66659V3.99992" stroke="white" stroke-linecap="round" stroke-linejoin="round"/>
</svg>
