<svg width="1280" height="677" viewBox="0 0 1280 677" fill="none" xmlns="http://www.w3.org/2000/svg">
<g opacity="0.22">
<path d="M785.885 56.7839C789.911 79.4471 811.552 94.3041 834.199 90.5269C842.251 89.1419 849.675 88.5123 856.595 88.5123C868.925 88.5123 878.236 92.5414 884.401 100.474C890.566 108.406 893.711 123.137 893.711 144.793L893.711 513.07C893.711 563.18 909.564 603.093 941.271 632.807C971.593 661.136 1015.38 675.741 1072.63 677C1129.75 675.741 1173.66 661.136 1203.98 632.807C1235.69 603.093 1251.54 563.18 1251.54 513.07L1251.54 144.793C1251.54 123.263 1254.69 108.532 1260.85 100.474C1267.02 92.4155 1276.33 88.5124 1288.66 88.5124C1295.45 88.5124 1303 89.142 1311.05 90.5269C1333.7 94.43 1355.34 79.4471 1359.37 56.784C1363.14 35.254 1349.68 14.2275 1328.42 9.19122C1324.89 8.30987 1321.12 7.42852 1317.22 6.67309C1296.71 2.26635 1278.21 5.38852e-05 1261.73 5.24443e-05C1227.76 4.94744e-05 1201.09 9.19121 1181.46 27.6995C1161.83 46.0819 1152.02 71.0114 1152.02 102.236L1152.02 492.169C1152.02 505.767 1150.63 518.106 1147.99 529.186C1145.35 540.265 1140.95 550.716 1134.91 560.662C1128.87 570.609 1120.06 578.163 1108.61 583.703C1098.42 588.488 1086.34 591.132 1072.5 591.635C1058.66 591.132 1046.58 588.488 1036.39 583.703C1024.94 578.289 1016.13 570.609 1010.09 560.662C1004.05 550.716 999.651 540.265 997.009 529.186C994.366 518.106 992.982 505.767 992.982 492.169L992.983 102.236C992.983 71.0114 983.169 46.0819 963.541 27.6995C943.913 9.3171 917.114 2.23168e-05 883.268 1.93579e-05C866.786 1.7917e-05 848.291 2.26631 827.782 6.67305C823.882 7.5544 820.107 8.30983 816.584 9.19118C795.321 14.3533 781.858 35.2539 785.633 56.7839L785.885 56.7839Z" fill="url(#paint0_linear_339_1598)"/>
<path d="M366.885 56.7839C370.911 79.447 392.552 94.304 415.199 90.5268C423.251 89.1419 430.675 88.5123 437.595 88.5123C449.925 88.5123 459.236 92.5413 465.401 100.473C471.566 108.406 474.711 123.137 474.711 144.793L474.711 513.07C474.711 563.18 490.564 603.093 522.271 632.807C552.593 661.136 596.378 675.741 653.626 677C710.748 675.741 754.658 661.136 784.981 632.807C816.687 603.093 832.54 563.18 832.54 513.07L832.54 144.793C832.54 123.263 835.686 108.531 841.851 100.474C848.016 92.4155 857.327 88.5123 869.657 88.5123C876.451 88.5123 884 89.1419 892.053 90.5269C914.7 94.4299 936.341 79.4471 940.367 56.7839C944.142 35.2539 930.679 14.2274 909.416 9.19116C905.893 8.30981 902.118 7.42846 898.218 6.67303C877.709 2.26629 859.214 -7.14997e-06 842.732 -8.59089e-06C808.761 -1.15607e-05 782.087 9.19115 762.459 27.6994C742.831 46.0818 733.018 71.0113 733.018 102.236L733.018 492.169C733.018 505.767 731.634 518.106 728.991 529.186C726.349 540.265 721.946 550.716 715.906 560.662C709.867 570.609 701.06 578.163 689.61 583.703C679.419 588.488 667.34 591.132 653.5 591.635C639.66 591.132 627.581 588.488 617.39 583.703C605.94 578.289 597.133 570.609 591.094 560.662C585.055 550.716 580.651 540.265 578.009 529.186C575.366 518.106 573.982 505.767 573.982 492.169L573.983 102.236C573.983 71.0113 564.169 46.0818 544.541 27.6994C524.913 9.31704 498.114 -3.87184e-05 464.268 -4.16772e-05C447.786 -4.31181e-05 429.291 2.26625 408.782 6.67299C404.882 7.55434 401.107 8.30977 397.584 9.19111C376.321 14.3533 362.858 35.2539 366.633 56.7839L366.885 56.7839Z" fill="url(#paint1_linear_339_1598)"/>
<path d="M-79.1154 56.7839C-75.0892 79.447 -53.4484 94.304 -30.801 90.5268C-22.7485 89.1419 -15.3253 88.5123 -8.40522 88.5123C3.92504 88.5123 13.2356 92.5413 19.4007 100.473C25.5659 108.406 28.7114 123.137 28.7114 144.793L28.7113 513.07C28.7113 563.18 44.5645 603.093 76.2708 632.807C106.593 661.136 150.378 675.741 207.626 677C264.748 675.741 308.658 661.136 338.981 632.807C370.687 603.093 386.54 563.18 386.54 513.07L386.54 144.793C386.54 123.263 389.686 108.531 395.851 100.474C402.016 92.4155 411.327 88.5123 423.657 88.5123C430.451 88.5123 438 89.1419 446.053 90.5269C468.7 94.4299 490.341 79.4471 494.367 56.7839C498.142 35.2539 484.679 14.2274 463.416 9.19116C459.893 8.30981 456.118 7.42846 452.218 6.67303C431.709 2.26629 413.214 -7.14997e-06 396.732 -8.59089e-06C362.761 -1.15607e-05 336.087 9.19115 316.459 27.6994C296.831 46.0818 287.018 71.0113 287.018 102.236L287.018 492.169C287.018 505.767 285.634 518.106 282.991 529.186C280.349 540.265 275.946 550.716 269.906 560.662C263.867 570.609 255.06 578.163 243.61 583.703C233.419 588.488 221.34 591.132 207.5 591.635C193.66 591.132 181.581 588.488 171.39 583.703C159.94 578.289 151.133 570.609 145.094 560.662C139.055 550.716 134.651 540.265 132.009 529.186C129.366 518.106 127.982 505.767 127.982 492.169L127.983 102.236C127.983 71.0113 118.169 46.0818 98.5409 27.6994C78.9131 9.31704 52.1137 -3.87184e-05 18.2684 -4.16772e-05C1.7861 -4.31181e-05 -16.7093 2.26625 -37.2178 6.67299C-41.1182 7.55434 -44.8927 8.30977 -48.4157 9.19111C-69.679 14.3533 -83.1417 35.2539 -79.3671 56.7839L-79.1154 56.7839Z" fill="url(#paint2_linear_339_1598)"/>
</g>
<defs>
<linearGradient id="paint0_linear_339_1598" x1="1072.5" y1="3.40215e-05" x2="1072.5" y2="677" gradientUnits="userSpaceOnUse">
<stop offset="0.158654" stop-color="#D2D2D2"/>
<stop offset="0.538462" stop-color="#979696"/>
<stop offset="1" stop-color="#5E5E5E"/>
</linearGradient>
<linearGradient id="paint1_linear_339_1598" x1="653.5" y1="-2.70136e-05" x2="653.5" y2="677" gradientUnits="userSpaceOnUse">
<stop offset="0.158654" stop-color="#D2D2D2"/>
<stop offset="0.538462" stop-color="#979696"/>
<stop offset="1" stop-color="#5E5E5E"/>
</linearGradient>
<linearGradient id="paint2_linear_339_1598" x1="207.5" y1="-2.70136e-05" x2="207.5" y2="677" gradientUnits="userSpaceOnUse">
<stop offset="0.158654" stop-color="#D2D2D2"/>
<stop offset="0.538462" stop-color="#979696"/>
<stop offset="1" stop-color="#5E5E5E"/>
</linearGradient>
</defs>
</svg>
