<svg width="320" height="138" viewBox="0 0 320 138" fill="none" xmlns="http://www.w3.org/2000/svg">
<path d="M20.9163 57H3.72281V21.3884H22.7777C24.3779 21.3884 25.8148 21.8455 27.0884 22.7599C28.362 23.658 29.3171 24.7928 29.9539 26.1643C30.5907 27.5196 30.9091 28.9564 30.9091 30.475C30.9091 32.2547 30.4601 33.9039 29.5621 35.4224C28.664 36.9409 27.4068 38.0512 25.7903 38.7533C27.8476 39.3575 29.4641 40.4514 30.6397 42.0353C31.8154 43.6028 32.4032 45.5295 32.4032 47.8154C32.4032 49.7421 31.8725 51.4158 30.8112 52.8363C29.7662 54.2405 28.3864 55.2855 26.672 55.9713C24.9575 56.6571 23.039 57 20.9163 57ZM10.6296 27.3155V36.2796H19.8632C21.0551 36.2796 22.0511 35.8714 22.8512 35.055C23.6676 34.2386 24.0758 33.1446 24.0758 31.773C24.0758 30.4341 23.7003 29.3565 22.9492 28.5401C22.2144 27.7237 21.2837 27.3155 20.1571 27.3155H10.6296ZM21.2592 41.7414H10.6296V51.1219H20.9163C22.1573 51.1219 23.2186 50.6729 24.1003 49.7748C24.982 48.8768 25.4229 47.7909 25.4229 46.5173C25.4229 45.2111 25.0147 44.0926 24.1983 43.1619C23.3982 42.2149 22.4185 41.7414 21.2592 41.7414ZM49.3518 57.4898C46.6086 57.4898 44.1676 56.8694 42.0286 55.6284C39.8896 54.3875 38.265 52.7547 37.1546 50.73C36.0443 48.689 35.4892 46.452 35.4892 44.0191C35.4892 41.5209 36.0443 39.235 37.1546 37.1613C38.265 35.0713 39.8896 33.3977 42.0286 32.1404C44.1676 30.8832 46.625 30.2545 49.4007 30.2545C51.4907 30.2545 53.4011 30.6219 55.1319 31.3567C56.879 32.0914 58.3241 33.0875 59.467 34.3447C60.6263 35.5857 61.5162 37.0144 62.1367 38.6309C62.7735 40.2473 63.0919 41.9536 63.0919 43.7497C63.0919 44.6804 63.0429 45.4315 62.9449 46.003H42.6164C42.7797 47.995 43.5308 49.5952 44.8697 50.8035C46.2086 51.9954 47.7843 52.5914 49.5967 52.5914C50.9519 52.5914 52.2173 52.2648 53.393 51.6117C54.5849 50.9423 55.3932 50.0769 55.8177 49.0155L61.5734 50.632C60.5937 52.6894 59.018 54.3467 56.8464 55.6039C54.6911 56.8612 52.1929 57.4898 49.3518 57.4898ZM42.4695 41.7414H56.2096C56.0136 39.7657 55.2707 38.1737 53.9808 36.9654C52.7072 35.7408 51.1479 35.1285 49.3028 35.1285C47.4904 35.1285 45.9392 35.7408 44.6493 36.9654C43.3593 38.19 42.6327 39.782 42.4695 41.7414ZM108.011 57H101.3V42.2557C101.3 40.2147 100.949 38.6962 100.247 37.7002C99.5444 36.6878 98.5402 36.1816 97.234 36.1816C95.8951 36.1816 94.6378 36.696 93.4622 37.7246C92.3029 38.7533 91.4702 40.0759 90.964 41.6924V57H84.2286V42.2557C84.2286 38.2063 82.8734 36.1816 80.1629 36.1816C78.8403 36.1816 77.5831 36.6878 76.3911 37.7002C75.2155 38.7125 74.3828 40.0269 73.8929 41.6434V57H67.1821V30.7199H73.2561V35.5938C74.2358 33.8957 75.5666 32.5813 77.2484 31.6506C78.9465 30.7199 80.8732 30.2545 83.0285 30.2545C85.1022 30.2545 86.7677 30.777 88.0249 31.822C89.2822 32.8507 90.0904 34.1896 90.4496 35.8388C91.511 34.0427 92.8662 32.6629 94.5153 31.6996C96.1808 30.7362 98.0504 30.2545 100.124 30.2545C105.382 30.2545 108.011 33.6998 108.011 40.5902V57ZM113.717 46.2724V40.1984H128.902V46.2724H113.717ZM141.418 57L131.719 30.7199H138.699L145.312 50.877L151.999 30.7199H158.366L148.741 57H141.418ZM161.918 27.0461V20.3842H168.629V27.0461H161.918ZM161.918 57V30.7199H168.629V57H161.918ZM199.121 57H192.411V42.2557C192.411 38.2063 191.023 36.1816 188.247 36.1816C186.859 36.1816 185.496 36.7041 184.157 37.7491C182.818 38.7941 181.903 40.0922 181.414 41.6434V57H174.703V30.7199H180.777V35.5938C181.757 33.9284 183.169 32.6221 185.014 31.6751C186.875 30.728 188.941 30.2545 191.211 30.2545C192.484 30.2545 193.594 30.4586 194.541 30.8668C195.505 31.2587 196.272 31.773 196.844 32.4098C197.415 33.0466 197.872 33.8304 198.215 34.7611C198.574 35.6918 198.811 36.6225 198.926 37.5532C199.056 38.4676 199.121 39.4799 199.121 40.5902V57ZM203.359 43.8477C203.359 41.3495 203.857 39.0636 204.853 36.9899C205.849 34.9162 207.245 33.2752 209.041 32.067C210.853 30.8587 212.878 30.2545 215.115 30.2545C216.993 30.2545 218.707 30.7199 220.258 31.6506C221.826 32.565 223.067 33.7896 223.981 35.3244V20.3842H230.716V49.4809C230.716 50.1993 230.831 50.7137 231.059 51.0239C231.288 51.3178 231.688 51.4893 232.259 51.5382V57C231.1 57.2286 230.145 57.3429 229.394 57.3429C228.202 57.3429 227.206 57.049 226.406 56.4612C225.622 55.857 225.181 55.0651 225.083 54.0854L224.985 52.4445C224.038 54.0609 222.74 55.31 221.091 56.1918C219.442 57.0571 217.695 57.4898 215.85 57.4898C213.466 57.4898 211.319 56.8857 209.408 55.6774C207.498 54.4691 206.012 52.8282 204.951 50.7545C203.889 48.6645 203.359 46.3622 203.359 43.8477ZM223.981 47.3746V41.1046C223.426 39.6514 222.495 38.4349 221.189 37.4552C219.899 36.4755 218.576 35.9857 217.221 35.9857C215.246 35.9857 213.605 36.7858 212.298 38.3859C210.992 39.9698 210.339 41.8475 210.339 44.0191C210.339 46.2071 211.025 48.0522 212.396 49.5544C213.784 51.0402 215.523 51.7832 217.613 51.7832C218.919 51.7832 220.193 51.3668 221.434 50.5341C222.691 49.685 223.54 48.6318 223.981 47.3746ZM235.639 43.8967C235.639 42.0679 235.966 40.329 236.619 38.6798C237.272 37.0307 238.178 35.5857 239.338 34.3447C240.497 33.0875 241.95 32.0914 243.697 31.3567C245.461 30.6219 247.379 30.2545 249.453 30.2545C252.212 30.2545 254.645 30.8913 256.752 32.1649C258.874 33.4222 260.474 35.0795 261.552 37.1368C262.646 39.1779 263.193 41.4311 263.193 43.8967C263.193 45.7091 262.875 47.4399 262.238 49.089C261.601 50.7218 260.703 52.1669 259.544 53.4241C258.401 54.6651 256.956 55.6529 255.209 56.3877C253.461 57.1225 251.543 57.4898 249.453 57.4898C247.771 57.4898 246.195 57.2531 244.726 56.7796C243.256 56.2897 241.975 55.6203 240.881 54.7712C239.787 53.9221 238.84 52.9343 238.04 51.8077C237.239 50.6647 236.635 49.4238 236.227 48.0848C235.835 46.7296 235.639 45.3336 235.639 43.8967ZM249.453 51.7832C251.396 51.7832 253.021 51.0321 254.327 49.5299C255.649 48.0277 256.311 46.1336 256.311 43.8477C256.311 41.5781 255.649 39.7004 254.327 38.2145C253.021 36.7286 251.396 35.9857 249.453 35.9857C247.51 35.9857 245.877 36.7368 244.554 38.239C243.232 39.7412 242.571 41.6271 242.571 43.8967C242.571 46.1826 243.224 48.0685 244.53 49.5544C245.853 51.0402 247.494 51.7832 249.453 51.7832ZM1.44504 112.848C1.44504 110.349 1.94305 108.064 2.93906 105.99C3.93508 103.916 5.33113 102.275 7.12723 101.067C8.93965 99.8587 10.9643 99.2545 13.2013 99.2545C15.079 99.2545 16.7935 99.7199 18.3446 100.651C19.9121 101.565 21.1531 102.79 22.0675 104.324V89.3842H28.8028V118.481C28.8028 119.199 28.9171 119.714 29.1457 120.024C29.3743 120.318 29.7743 120.489 30.3458 120.538V126C29.1865 126.229 28.2313 126.343 27.4802 126.343C26.2883 126.343 25.2923 126.049 24.4922 125.461C23.7084 124.857 23.2676 124.065 23.1696 123.085L23.0716 121.444C22.1246 123.061 20.8265 124.31 19.1774 125.192C17.5282 126.057 15.7811 126.49 13.9361 126.49C11.5521 126.49 9.405 125.886 7.49461 124.677C5.58422 123.469 4.09836 121.828 3.03703 119.754C1.9757 117.664 1.44504 115.362 1.44504 112.848ZM22.0675 116.375V110.105C21.5123 108.651 20.5816 107.435 19.2754 106.455C17.9854 105.476 16.6629 104.986 15.3076 104.986C13.3319 104.986 11.6909 105.786 10.3847 107.386C9.07844 108.97 8.42531 110.848 8.42531 113.019C8.42531 115.207 9.11109 117.052 10.4827 118.554C11.8705 120.04 13.6095 120.783 15.6995 120.783C17.0057 120.783 18.2793 120.367 19.5203 119.534C20.7775 118.685 21.6266 117.632 22.0675 116.375ZM47.5883 126.49C44.8452 126.49 42.4041 125.869 40.2652 124.628C38.1262 123.388 36.5015 121.755 35.3912 119.73C34.2809 117.689 33.7257 115.452 33.7257 113.019C33.7257 110.521 34.2809 108.235 35.3912 106.161C36.5015 104.071 38.1262 102.398 40.2652 101.14C42.4041 99.8832 44.8615 99.2545 47.6373 99.2545C49.7273 99.2545 51.6377 99.6219 53.3685 100.357C55.1156 101.091 56.5606 102.087 57.7036 103.345C58.8629 104.586 59.7528 106.014 60.3732 107.631C61.01 109.247 61.3284 110.954 61.3284 112.75C61.3284 113.68 61.2795 114.432 61.1815 115.003H40.853C41.0163 116.995 41.7673 118.595 43.1063 119.803C44.4452 120.995 46.0208 121.591 47.8332 121.591C49.1885 121.591 50.4539 121.265 51.6295 120.612C52.8215 119.942 53.6297 119.077 54.0543 118.016L59.8099 119.632C58.8302 121.689 57.2546 123.347 55.0829 124.604C52.9276 125.861 50.4294 126.49 47.5883 126.49ZM40.706 110.741H54.4461C54.2502 108.766 53.5073 107.174 52.2173 105.965C50.9438 104.741 49.3844 104.128 47.5393 104.128C45.7269 104.128 44.1757 104.741 42.8858 105.965C41.5959 107.19 40.8693 108.782 40.706 110.741ZM83.1755 126L73.4766 99.7199H80.4568L87.0697 119.877L93.7561 99.7199H100.124L90.4986 126H83.1755ZM101.079 112.897C101.079 111.068 101.406 109.329 102.059 107.68C102.712 106.031 103.618 104.586 104.778 103.345C105.937 102.087 107.39 101.091 109.137 100.357C110.901 99.6219 112.819 99.2545 114.893 99.2545C117.652 99.2545 120.085 99.8913 122.192 101.165C124.314 102.422 125.914 104.079 126.992 106.137C128.086 108.178 128.633 110.431 128.633 112.897C128.633 114.709 128.315 116.44 127.678 118.089C127.041 119.722 126.143 121.167 124.984 122.424C123.841 123.665 122.396 124.653 120.649 125.388C118.901 126.122 116.983 126.49 114.893 126.49C113.211 126.49 111.635 126.253 110.166 125.78C108.696 125.29 107.415 124.62 106.321 123.771C105.227 122.922 104.28 121.934 103.479 120.808C102.679 119.665 102.075 118.424 101.667 117.085C101.275 115.73 101.079 114.334 101.079 112.897ZM114.893 120.783C116.836 120.783 118.461 120.032 119.767 118.53C121.089 117.028 121.751 115.134 121.751 112.848C121.751 110.578 121.089 108.7 119.767 107.214C118.461 105.729 116.836 104.986 114.893 104.986C112.95 104.986 111.317 105.737 109.994 107.239C108.672 108.741 108.011 110.627 108.011 112.897C108.011 115.183 108.664 117.069 109.97 118.554C111.293 120.04 112.933 120.783 114.893 120.783ZM133.115 89.3842H139.826V117.575C139.826 118.734 140.014 119.534 140.389 119.975C140.765 120.416 141.328 120.636 142.079 120.636C143.157 120.636 144.21 120.399 145.239 119.926L146.145 125.045C145.263 125.453 144.226 125.78 143.034 126.024C141.842 126.269 140.74 126.392 139.728 126.392C137.638 126.392 136.013 125.829 134.854 124.702C133.695 123.575 133.115 121.983 133.115 119.926V89.3842ZM164.539 124.653C161.861 125.845 159.387 126.441 157.117 126.441C156.154 126.441 155.272 126.318 154.472 126.073C153.672 125.829 152.954 125.461 152.317 124.971C151.68 124.465 151.182 123.788 150.823 122.938C150.464 122.089 150.284 121.102 150.284 119.975V104.888H146.831V99.7199H150.284V91.1966H157.019V99.7199H162.53V104.888H157.019V117.722C157.068 119.436 157.901 120.293 159.518 120.293C160.465 120.293 161.689 119.975 163.191 119.338L164.539 124.653ZM166.228 118.236C166.228 115.689 167.273 113.631 169.363 112.064C171.453 110.48 174.172 109.688 177.519 109.688C180.034 109.688 182.14 110.039 183.838 110.741V109.345C183.838 107.664 183.34 106.374 182.344 105.476C181.365 104.578 179.903 104.128 177.96 104.128C176.556 104.128 175.217 104.373 173.944 104.863C172.67 105.337 171.274 106.08 169.755 107.092L167.576 102.683C171.086 100.398 174.784 99.2545 178.671 99.2545C182.426 99.2545 185.341 100.193 187.414 102.071C189.504 103.949 190.549 106.627 190.549 110.105V118.481C190.549 119.199 190.672 119.714 190.917 120.024C191.162 120.318 191.578 120.489 192.166 120.538V126C191.039 126.229 190.084 126.343 189.3 126.343C188.01 126.343 187.006 126.065 186.288 125.51C185.585 124.939 185.153 124.179 184.989 123.232L184.843 121.885C183.716 123.339 182.295 124.473 180.581 125.29C178.883 126.09 177.144 126.49 175.364 126.49C172.735 126.49 170.555 125.706 168.825 124.139C167.094 122.571 166.228 120.604 166.228 118.236ZM182.589 119.583C183.422 118.75 183.838 117.983 183.838 117.281V114.611C182.124 113.909 180.369 113.558 178.573 113.558C176.809 113.558 175.372 113.942 174.262 114.709C173.152 115.46 172.596 116.448 172.596 117.673C172.596 118.734 173.021 119.657 173.87 120.44C174.719 121.208 175.854 121.591 177.274 121.591C178.27 121.591 179.242 121.412 180.189 121.053C181.152 120.677 181.952 120.187 182.589 119.583ZM198.142 112.603V90.0455H204.877V112.603H198.142ZM198.142 126V118.432H204.877V126H198.142Z" fill="#7062AA"/>
</svg>
