<svg width="64" height="1080" viewBox="0 0 64 1080" fill="none" xmlns="http://www.w3.org/2000/svg">
<mask id="mask0_610_3396" style="mask-type:alpha" maskUnits="userSpaceOnUse" x="0" y="0" width="64" height="1080">
<rect width="64" height="1080" fill="#D9D9D9"/>
</mask>
<g mask="url(#mask0_610_3396)">
<path d="M120.779 -34.5507C113.671 -36.418 107.148 -39.7183 101.548 -44.1694L54.7949 49.3691H78.8335L85.0304 36.982L120.779 -34.5507Z" fill="#7062AA"/>
<path d="M-0.368896 -53.354V-31.8475H52.961L12.3721 49.3691H36.3999L87.7438 -53.354H-0.368896Z" fill="#7062AA"/>
<path d="M24.1038 -10.9055H-0.368896V38.0242L-0.358044 38.0459L24.1038 -10.9055Z" fill="#7062AA"/>
<path d="M120.779 502.449C113.671 500.582 107.148 497.282 101.548 492.831L54.7949 586.369H78.8335L85.0304 573.982L120.779 502.449Z" fill="#7062AA"/>
<path d="M-0.368896 483.646V505.153H52.961L12.3721 586.369H36.3999L87.7438 483.646H-0.368896Z" fill="#7062AA"/>
<path d="M24.1038 526.094H-0.368896V575.024L-0.358044 575.046L24.1038 526.094Z" fill="#7062AA"/>
<path d="M81.764 451.956C81.764 448.265 82.1546 444.672 82.8926 441.198H-0.368896V462.704H82.8926C82.1655 459.23 81.764 455.637 81.764 451.956Z" fill="#7062AA"/>
<path d="M-0.368896 243.981V292.074V292.063L52.961 398.76H-0.368896V420.266H87.7438L-0.368896 243.981Z" fill="#7062AA"/>
<path d="M-0.358044 328.867L-0.368896 328.888V377.818H24.1038L-0.358044 328.867Z" fill="#7062AA"/>
<path d="M120.779 401.463L32.0805 224.005C26.4914 228.456 19.9581 231.756 12.8496 233.624L84.6942 377.351L101.548 411.071C107.137 406.62 113.671 403.32 120.779 401.452V401.463Z" fill="#7062AA"/>
<path d="M222.11 214.831H45.885L133.998 391.117L222.11 214.831ZM187.328 236.338L133.998 343.023L80.6678 236.338H187.317H187.328Z" fill="#7062AA"/>
<path d="M216.131 183.131C216.131 179.439 216.521 175.846 217.259 172.372H50.7471C51.4742 175.846 51.8757 179.439 51.8757 183.131C51.8757 186.822 51.4851 190.415 50.7471 193.878H217.259C216.532 190.404 216.131 186.811 216.131 183.131Z" fill="#7062AA"/>
<path d="M222.11 151.441L170.766 48.7177H146.728L187.328 129.934H80.6678L121.268 48.7177H97.2289L45.885 151.441H222.11Z" fill="#7062AA"/>
<path d="M32.0805 142.267L78.8337 48.7177H54.7951L12.8496 132.648C19.9581 134.516 26.4805 137.816 32.0805 142.267Z" fill="#7062AA"/>
<path d="M36.3999 48.7177H12.3721L-0.368896 74.1976V122.281V122.291L36.3999 48.7177Z" fill="#7062AA"/>
<path d="M12.8495 233.624C19.958 231.756 26.4913 228.456 32.0804 224.005C41.4354 216.557 48.1966 205.994 50.747 193.878C51.4741 190.404 51.8757 186.811 51.8757 183.131C51.8757 179.45 51.485 175.846 50.747 172.372C48.2075 160.256 41.4354 149.704 32.0913 142.256C26.5022 137.805 19.9689 134.505 12.8604 132.638C8.62784 131.53 4.21081 130.879 -0.358154 130.879V149.356C18.2541 149.356 33.4044 164.501 33.4044 183.131C33.4044 201.76 18.265 216.905 -0.358154 216.905V235.382C4.21081 235.382 8.62784 234.731 12.8604 233.624H12.8495Z" fill="#7062AA"/>
<path d="M21.1845 183.131C21.1845 171.243 11.5148 161.57 -0.368896 161.57V177.811C2.56132 177.811 4.9489 180.199 4.9489 183.131C4.9489 186.062 2.56132 188.45 -0.368896 188.45V204.691C11.5148 204.691 21.1845 195.018 21.1845 183.131Z" fill="#7062AA"/>
<path d="M120.779 1039.45C113.671 1037.58 107.148 1034.28 101.548 1029.83L54.7949 1123.37H78.8335L85.0304 1110.98L120.779 1039.45Z" fill="#F5AE37"/>
<path d="M-0.368896 1020.65V1042.15H52.961L12.3721 1123.37H36.3999L87.7438 1020.65H-0.368896Z" fill="#F5AE37"/>
<path d="M24.1038 1063.09H-0.368896V1112.02L-0.358044 1112.05L24.1038 1063.09Z" fill="#F5AE37"/>
<path d="M81.764 988.956C81.764 985.265 82.1546 981.672 82.8926 978.198H-0.368896V999.704H82.8926C82.1655 996.23 81.764 992.637 81.764 988.956Z" fill="#F5AE37"/>
<path d="M-0.368896 780.981V829.074V829.063L52.961 935.76H-0.368896V957.266H87.7438L-0.368896 780.981Z" fill="#F5AE37"/>
<path d="M-0.358044 865.867L-0.368896 865.888V914.818H24.1038L-0.358044 865.867Z" fill="#F5AE37"/>
<path d="M120.779 938.463L32.0805 761.005C26.4914 765.456 19.9581 768.756 12.8496 770.624L84.6942 914.351L101.548 948.071C107.137 943.62 113.671 940.32 120.779 938.452V938.463Z" fill="#F5AE37"/>
<path d="M222.11 751.831H45.885L133.998 928.117L222.11 751.831ZM187.328 773.338L133.998 880.023L80.6678 773.338H187.317H187.328Z" fill="#F5AE37"/>
<path d="M216.131 720.131C216.131 716.439 216.521 712.846 217.259 709.372H50.7471C51.4742 712.846 51.8757 716.439 51.8757 720.131C51.8757 723.822 51.4851 727.415 50.7471 730.878H217.259C216.532 727.404 216.131 723.811 216.131 720.131Z" fill="#F5AE37"/>
<path d="M222.11 688.441L170.766 585.718H146.728L187.328 666.934H80.6678L121.268 585.718H97.2289L45.885 688.441H222.11Z" fill="#F5AE37"/>
<path d="M32.0805 679.267L78.8337 585.718H54.7951L12.8496 669.648C19.9581 671.516 26.4805 674.816 32.0805 679.267Z" fill="#F5AE37"/>
<path d="M36.3999 585.718H12.3721L-0.368896 611.198V659.281V659.291L36.3999 585.718Z" fill="#F5AE37"/>
<path d="M12.8495 770.624C19.958 768.756 26.4913 765.456 32.0804 761.005C41.4354 753.557 48.1966 742.994 50.747 730.878C51.4741 727.404 51.8757 723.811 51.8757 720.131C51.8757 716.45 51.485 712.846 50.747 709.372C48.2075 697.256 41.4354 686.704 32.0913 679.256C26.5022 674.805 19.9689 671.505 12.8604 669.638C8.62784 668.53 4.21081 667.879 -0.358154 667.879V686.356C18.2541 686.356 33.4044 701.501 33.4044 720.131C33.4044 738.76 18.265 753.905 -0.358154 753.905V772.382C4.21081 772.382 8.62784 771.731 12.8604 770.624H12.8495Z" fill="#F5AE37"/>
<path d="M21.1845 720.131C21.1845 708.243 11.5148 698.57 -0.368896 698.57V714.811C2.56132 714.811 4.9489 717.199 4.9489 720.131C4.9489 723.062 2.56132 725.45 -0.368896 725.45V741.691C11.5148 741.691 21.1845 732.018 21.1845 720.131Z" fill="#F5AE37"/>
</g>
</svg>
