<svg width="35" height="35" viewBox="0 0 35 35" fill="none" xmlns="http://www.w3.org/2000/svg">
<path d="M17.4996 35C27.0565 35 35 27.0735 35 17.5C35 7.9433 27.039 0 17.4821 0C7.90906 0 0 7.9433 0 17.5C0 27.0735 7.9259 35 17.4996 35ZM17.5004 32.0836C9.40098 32.0836 2.93186 25.5978 2.93186 17.5C2.93186 9.41835 9.38341 2.91642 17.4821 2.91642C25.5632 2.91642 32.0652 9.41908 32.0828 17.5C32.0996 25.5985 25.58 32.0836 17.4989 32.0836M13.3811 21.5496C17.3781 25.5641 22.4746 28.1028 25.4943 25.1C25.6013 24.9945 25.6988 24.8799 25.7857 24.7574C26.5748 23.8826 26.7981 22.7157 25.7857 21.961C24.9965 21.3944 24.1562 20.8117 22.7316 19.8162C21.7367 19.1134 21.0845 19.284 20.3129 20.0563L19.6262 20.7253C19.4205 20.9142 19.0948 20.8974 18.8715 20.7597C18.2712 20.3996 17.2588 19.5929 16.2976 18.6325C15.354 17.6881 14.4968 16.6252 14.1703 16.0586C14.0502 15.8698 13.9646 15.5608 14.2047 15.3383L14.8738 14.6173C15.6461 13.8113 15.8174 13.1934 15.0971 12.181L12.9866 9.19581C12.2655 8.18341 11.2194 8.37227 10.0693 9.23021C9.98369 9.29903 9.91561 9.36784 9.84679 9.43592C6.82709 12.4556 9.38341 17.5512 13.3811 21.5489" fill="white"/>
</svg>
