<svg width="537" height="537" viewBox="0 0 537 537" fill="none" xmlns="http://www.w3.org/2000/svg">
<g clip-path="url(#clip0_89_639)">
<path d="M85.0305 524.971L120.779 453.449L85.0305 524.971Z" fill="#F5AE37"/>
<path d="M97.2289 537.369H121.268L133.998 511.889L146.728 537.369H170.766L133.998 463.806L97.2289 537.369Z" fill="#F5AE37"/>
<path d="M120.779 453.449C113.671 451.582 107.148 448.282 101.548 443.831L54.795 537.369H78.8337L85.0305 524.982L120.779 453.449Z" fill="#F5AE37"/>
<path d="M-0.369019 434.646V456.153H52.9609L12.372 537.369H36.3998L87.7436 434.646H-0.369019Z" fill="#F5AE37"/>
<path d="M24.1037 477.094H-0.369019V526.024L-0.358166 526.046L24.1037 477.094Z" fill="#F5AE37"/>
<path d="M353.764 524.971L389.512 453.449L353.764 524.971Z" fill="#F5AE37"/>
<path d="M365.951 537.369H389.99L402.731 511.889L415.461 537.369H439.5L402.731 463.806L365.951 537.369Z" fill="#F5AE37"/>
<path d="M389.512 453.449C382.404 451.582 375.882 448.282 370.282 443.831L323.528 537.369H347.567L353.764 524.982L389.512 453.449Z" fill="#F5AE37"/>
<path d="M147.216 453.449L189.162 537.369H213.2L166.447 443.831C160.858 448.282 154.325 451.582 147.216 453.449Z" fill="#F5AE37"/>
<path d="M180.252 434.646L231.596 537.369H255.623L215.034 456.153H321.694L281.094 537.369H305.133L356.477 434.646H180.252Z" fill="#F5AE37"/>
<path d="M243.892 477.094L268.364 526.046L292.826 477.094H243.892Z" fill="#F5AE37"/>
<path d="M435.18 443.831C429.591 448.282 423.058 451.582 415.95 453.449L457.895 537.369H481.934L435.18 443.831Z" fill="#F5AE37"/>
<path d="M500.318 537.369H524.357L483.768 456.153H537.087V434.646H448.974L500.318 537.369Z" fill="#F5AE37"/>
<path d="M537.087 526.024V477.094H512.625L537.087 526.024Z" fill="#F5AE37"/>
<path d="M81.7638 402.956C81.7638 399.265 82.1545 395.672 82.8925 392.198H-0.369019V413.704H82.8925C82.1654 410.23 81.7638 406.637 81.7638 402.956Z" fill="#F5AE37"/>
<path d="M84.6941 328.362L101.548 362.082L84.6941 328.362Z" fill="#F5AE37"/>
<path d="M-0.369019 194.981V243.074V243.063L52.9609 349.76H-0.369019V371.266H87.7436L-0.369019 194.981Z" fill="#F5AE37"/>
<path d="M-0.358166 279.867L-0.369019 279.888V328.818H24.1037L-0.358166 279.867Z" fill="#F5AE37"/>
<path d="M351.615 392.208H185.103C185.83 395.682 186.231 399.276 186.231 402.967C186.231 406.658 185.841 410.252 185.103 413.715H351.615C350.888 410.241 350.486 406.647 350.486 402.967C350.486 399.287 350.877 395.682 351.615 392.208Z" fill="#F5AE37"/>
<path d="M370.282 362.082L353.427 328.362L370.282 362.082Z" fill="#F5AE37"/>
<path d="M255.146 184.624L219.397 256.156L255.146 184.624Z" fill="#F5AE37"/>
<path d="M180.252 371.266H356.477L268.364 194.981L180.252 371.266ZM215.034 349.76L268.364 243.074L321.694 349.76H215.045H215.034Z" fill="#F5AE37"/>
<path d="M292.826 328.818L268.364 279.867L243.892 328.818H292.826Z" fill="#F5AE37"/>
<path d="M120.779 352.463L32.0804 175.005C26.4913 179.456 19.958 182.756 12.8495 184.624L84.694 328.351L101.548 362.071C107.137 357.62 113.671 354.32 120.779 352.452V352.463Z" fill="#F5AE37"/>
<path d="M255.146 184.624C248.037 182.756 241.515 179.456 235.915 175.005L147.216 352.463C154.325 354.331 160.847 357.631 166.447 362.082L219.397 256.145L255.146 184.613V184.624Z" fill="#F5AE37"/>
<path d="M222.11 165.831H45.885L133.998 342.117L222.11 165.831ZM187.328 187.338L133.998 294.023L80.6678 187.338H187.317H187.328Z" fill="#F5AE37"/>
<path d="M158.46 208.269H109.536L134.008 257.22L158.46 208.269Z" fill="#F5AE37"/>
<path d="M185.114 392.208C182.574 380.093 175.802 369.54 166.458 362.093C160.869 357.642 154.336 354.341 147.227 352.474C142.995 351.367 138.578 350.715 134.009 350.715C129.44 350.715 125.023 351.367 120.79 352.474C113.682 354.341 107.148 357.642 101.559 362.093C92.2042 369.54 85.443 380.104 82.8926 392.208C82.1655 395.682 81.7639 399.276 81.7639 402.967C81.7639 406.658 82.1546 410.252 82.8926 413.715C85.4321 425.831 92.2042 436.394 101.559 443.831C107.148 448.282 113.682 451.582 120.79 453.449C125.023 454.557 129.44 455.208 134.009 455.208C138.578 455.208 142.995 454.557 147.227 453.449C154.336 451.582 160.869 448.282 166.458 443.831C175.813 436.383 182.574 425.82 185.125 413.704C185.852 410.23 186.253 406.637 186.253 402.956C186.253 399.276 185.863 395.672 185.125 392.198L185.114 392.208ZM100.235 402.956C100.235 384.338 115.375 369.182 133.998 369.182C152.621 369.182 167.76 384.327 167.76 402.956C167.76 421.586 152.621 436.73 133.998 436.73C115.375 436.73 100.235 421.586 100.235 402.956Z" fill="#F5AE37"/>
<path d="M133.998 424.517C145.881 424.517 155.551 414.844 155.551 402.956C155.551 391.069 145.881 381.396 133.998 381.396C122.114 381.396 112.444 391.069 112.444 402.956C112.444 414.844 122.114 424.517 133.998 424.517ZM128.68 402.956C128.68 400.025 131.067 397.637 133.998 397.637C136.928 397.637 139.315 400.025 139.315 402.956C139.315 405.888 136.928 408.276 133.998 408.276C131.067 408.276 128.68 405.888 128.68 402.956Z" fill="#F5AE37"/>
<path d="M523.879 184.624L488.12 256.156L523.879 184.624Z" fill="#F5AE37"/>
<path d="M454.965 402.956C454.965 406.647 454.574 410.241 453.836 413.704H537.087V392.198H453.836C454.563 395.672 454.965 399.265 454.965 402.956Z" fill="#F5AE37"/>
<path d="M537.087 371.266V349.76H483.768L537.087 243.074V194.981L448.974 371.266H537.087Z" fill="#F5AE37"/>
<path d="M537.087 328.818V279.888L512.625 328.818H537.087Z" fill="#F5AE37"/>
<path d="M300.814 175.005C295.225 179.456 288.691 182.756 281.583 184.624L353.427 328.351L370.282 362.071C375.871 357.62 382.404 354.32 389.513 352.452L300.814 174.994V175.005Z" fill="#F5AE37"/>
<path d="M415.95 352.463C423.058 354.331 429.58 357.631 435.18 362.082L488.131 256.145L523.879 184.613C516.771 182.745 510.248 179.445 504.648 174.994L415.95 352.452V352.463Z" fill="#F5AE37"/>
<path d="M402.731 342.117L490.844 165.831H314.618L402.731 342.117ZM349.401 187.338H456.05L402.72 294.023L349.39 187.338H349.401Z" fill="#F5AE37"/>
<path d="M378.258 208.269L402.731 257.22L427.193 208.269H378.258Z" fill="#F5AE37"/>
<path d="M453.836 413.704C454.563 410.23 454.965 406.637 454.965 402.956C454.965 399.276 454.574 395.672 453.836 392.198C451.297 380.082 444.525 369.529 435.18 362.082C429.591 357.631 423.058 354.33 415.949 352.463C411.717 351.356 407.3 350.704 402.731 350.704C398.162 350.704 393.745 351.356 389.512 352.463C382.404 354.33 375.871 357.631 370.282 362.082C360.927 369.529 354.165 380.093 351.615 392.198C350.888 395.672 350.486 399.265 350.486 402.956C350.486 406.647 350.877 410.241 351.615 413.704C354.155 425.82 360.927 436.383 370.282 443.82C375.871 448.271 382.404 451.571 389.512 453.438C393.745 454.546 398.162 455.197 402.731 455.197C407.3 455.197 411.717 454.546 415.949 453.438C423.058 451.571 429.591 448.271 435.18 443.82C444.535 436.372 451.297 425.809 453.847 413.693L453.836 413.704ZM368.968 402.956C368.968 384.338 384.108 369.182 402.731 369.182C421.354 369.182 436.494 384.327 436.494 402.956C436.494 421.586 421.354 436.73 402.731 436.73C384.108 436.73 368.968 421.586 368.968 402.956Z" fill="#F5AE37"/>
<path d="M402.731 424.517C414.615 424.517 424.284 414.844 424.284 402.956C424.284 391.069 414.615 381.396 402.731 381.396C390.847 381.396 381.178 391.069 381.178 402.956C381.178 414.844 390.847 424.517 402.731 424.517ZM397.413 402.956C397.413 400.025 399.801 397.637 402.731 397.637C405.661 397.637 408.049 400.025 408.049 402.956C408.049 405.888 405.661 408.276 402.731 408.276C399.801 408.276 397.413 405.888 397.413 402.956Z" fill="#F5AE37"/>
<path d="M216.13 134.131C216.13 130.439 216.521 126.846 217.259 123.372H50.7469C51.4741 126.846 51.8756 130.439 51.8756 134.131C51.8756 137.822 51.4849 141.415 50.7469 144.878H217.259C216.532 141.404 216.13 137.811 216.13 134.131Z" fill="#F5AE37"/>
<path d="M219.082 59.5907L235.915 93.2563L219.082 59.5907Z" fill="#F5AE37"/>
<path d="M222.11 102.441L170.766 -0.282288H146.728L187.328 80.9343H80.6678L121.268 -0.282288H97.2289L45.885 102.441H222.11Z" fill="#F5AE37"/>
<path d="M158.46 59.9924L134.008 11.041L109.536 59.9924H158.46Z" fill="#F5AE37"/>
<path d="M32.0804 93.2671L78.8336 -0.282288H54.795L12.8495 83.6484C19.958 85.5157 26.4804 88.816 32.0804 93.2671Z" fill="#F5AE37"/>
<path d="M36.3998 -0.282288H12.372L-0.369019 25.1976V73.2805V73.2914L36.3998 -0.282288Z" fill="#F5AE37"/>
<path d="M12.8495 184.624C19.958 182.756 26.4913 179.456 32.0804 175.005C41.4354 167.557 48.1966 156.994 50.747 144.878C51.4741 141.404 51.8757 137.811 51.8757 134.131C51.8757 130.45 51.485 126.846 50.747 123.372C48.2075 111.256 41.4354 100.704 32.0913 93.2563C26.5022 88.8052 19.9689 85.5048 12.8604 83.6375C8.62784 82.5302 4.21081 81.8788 -0.358154 81.8788V100.356C18.2541 100.356 33.4044 115.501 33.4044 134.131C33.4044 152.76 18.265 167.905 -0.358154 167.905V186.382C4.21081 186.382 8.62784 185.731 12.8604 184.624H12.8495Z" fill="#F5AE37"/>
<path d="M21.1843 134.131C21.1843 122.243 11.5146 112.57 -0.369019 112.57V128.811C2.5612 128.811 4.94878 131.199 4.94878 134.131C4.94878 137.062 2.5612 139.45 -0.369019 139.45V155.691C11.5146 155.691 21.1843 146.018 21.1843 134.131Z" fill="#F5AE37"/>
<path d="M320.598 134.131C320.598 137.822 320.207 141.415 319.469 144.878H485.982C485.255 141.404 484.853 137.811 484.853 134.131C484.853 130.45 485.244 126.846 485.982 123.372H319.469C320.197 126.846 320.598 130.439 320.598 134.131Z" fill="#F5AE37"/>
<path d="M487.816 59.5907L504.648 93.2563L487.816 59.5907Z" fill="#F5AE37"/>
<path d="M490.833 102.441L439.5 -0.282288H415.461L456.05 80.9343H349.401L389.99 -0.282288H365.951L314.618 102.441H490.833Z" fill="#F5AE37"/>
<path d="M427.193 59.9924L402.731 11.041L378.258 59.9924H427.193Z" fill="#F5AE37"/>
<path d="M235.915 93.2563C241.504 88.8052 248.037 85.5048 255.146 83.6375L213.2 -0.282288H189.162L219.082 59.5798L235.915 93.2563Z" fill="#F5AE37"/>
<path d="M300.814 93.2671L347.567 -0.282288H323.528L281.583 83.6375C288.691 85.5048 295.214 88.8052 300.814 93.2563V93.2671Z" fill="#F5AE37"/>
<path d="M305.133 -0.282288H281.095L268.364 25.1976L255.623 -0.282288H231.596L268.364 73.2914L305.133 -0.282288Z" fill="#F5AE37"/>
<path d="M216.13 134.131C216.13 137.822 216.521 141.415 217.259 144.878C219.799 156.994 226.571 167.557 235.926 174.994C241.515 179.445 248.048 182.745 255.157 184.613C259.389 185.72 263.806 186.371 268.375 186.371C272.944 186.371 277.361 185.72 281.594 184.613C288.702 182.745 295.235 179.445 300.825 174.994C310.18 167.547 316.941 156.983 319.491 144.868C320.218 141.394 320.62 137.8 320.62 134.12C320.62 130.439 320.229 126.835 319.491 123.361C316.952 111.245 310.18 100.693 300.835 93.2455C295.246 88.7943 288.713 85.494 281.605 83.6267C277.372 82.5194 272.955 81.868 268.386 81.868C263.817 81.868 259.4 82.5194 255.167 83.6267C248.059 85.494 241.526 88.7943 235.937 93.2455C226.582 100.693 219.82 111.256 217.27 123.361C216.543 126.835 216.141 130.429 216.141 134.12L216.13 134.131ZM302.127 134.131C302.127 152.749 286.987 167.905 268.364 167.905C249.741 167.905 234.602 152.76 234.602 134.131C234.602 115.501 249.741 100.356 268.364 100.356C286.987 100.356 302.127 115.501 302.127 134.131Z" fill="#F5AE37"/>
<path d="M289.918 134.131C289.918 122.243 280.248 112.57 268.364 112.57C256.481 112.57 246.811 122.243 246.811 134.131C246.811 146.018 256.481 155.691 268.364 155.691C280.248 155.691 289.918 146.018 289.918 134.131ZM268.364 139.45C265.434 139.45 263.047 137.062 263.047 134.131C263.047 131.199 265.434 128.811 268.364 128.811C271.295 128.811 273.682 131.199 273.682 134.131C273.682 137.062 271.295 139.45 268.364 139.45Z" fill="#F5AE37"/>
<path d="M504.648 93.2563C510.237 88.8052 516.771 85.5048 523.879 83.6375L481.934 -0.282288H457.895L487.816 59.5798L504.648 93.2563Z" fill="#F5AE37"/>
<path d="M537.087 25.1976L524.357 -0.282288H500.318L537.087 73.2805V25.1976Z" fill="#F5AE37"/>
<path d="M504.648 93.2563C495.293 100.704 488.532 111.267 485.982 123.372C485.255 126.846 484.853 130.439 484.853 134.131C484.853 137.822 485.244 141.415 485.982 144.878C488.521 156.994 495.293 167.557 504.648 174.994C510.237 179.445 516.771 182.745 523.879 184.613C528.112 185.72 532.518 186.371 537.098 186.371V167.894C518.485 167.894 503.346 152.749 503.346 134.12C503.346 115.49 518.485 100.346 537.098 100.346V81.868C532.529 81.868 528.112 82.5194 523.879 83.6267C516.771 85.494 510.237 88.7943 504.648 93.2455V93.2563Z" fill="#F5AE37"/>
<path d="M515.533 134.131C515.533 146.018 525.203 155.691 537.087 155.691V139.45C534.157 139.45 531.769 137.062 531.769 134.131C531.769 131.199 534.157 128.811 537.087 128.811V112.57C525.203 112.57 515.533 122.243 515.533 134.131Z" fill="#F5AE37"/>
</g>
<defs>
<clipPath id="clip0_89_639">
<rect width="537" height="537" fill="white"/>
</clipPath>
</defs>
</svg>
