<svg width="307" height="68" viewBox="0 0 307 68" fill="none" xmlns="http://www.w3.org/2000/svg">
<path d="M73.0281 30.9015C73.1495 31.6347 73.8313 32.1297 74.5692 32.0457C74.6813 32.0317 74.7887 32.027 74.8867 32.027C75.5825 32.027 75.9281 32.522 75.9281 33.5167V42.7352C75.9281 44.2435 76.3905 45.4297 77.3151 46.2983C78.2164 47.1436 79.5473 47.5732 81.2986 47.5966C83.0544 47.5732 84.3807 47.1436 85.282 46.2983C86.2067 45.4297 86.669 44.2435 86.669 42.7352V33.5167C86.669 32.6948 86.9118 32.2231 87.3835 32.0784C87.8551 32.2231 88.098 32.6948 88.098 33.5167V42.7352C88.098 44.2435 88.5603 45.4297 89.485 46.2983C90.3863 47.1436 91.7172 47.5732 93.4684 47.5966C95.2243 47.5732 96.5506 47.1436 97.4519 46.2983C98.3765 45.4297 98.8388 44.2435 98.8388 42.7352V33.5167C98.8388 32.5267 99.1844 32.027 99.8802 32.027C99.983 32.027 100.09 32.0317 100.198 32.0457C100.936 32.1297 101.617 31.6347 101.739 30.9015C101.856 30.1917 101.417 29.5099 100.716 29.3324C100.66 29.3184 100.604 29.3044 100.548 29.2904C99.9223 29.1363 99.3339 29.0616 98.7875 29.0616C97.7881 29.0616 96.9895 29.3278 96.3965 29.8648C95.8034 30.4018 95.5092 31.0977 95.5092 31.9523V42.0673C95.5092 42.469 95.4812 42.8239 95.4204 43.1274C95.3597 43.431 95.257 43.7112 95.1076 43.968C94.9581 44.2249 94.7433 44.4257 94.4584 44.5611C94.1829 44.6919 93.856 44.7619 93.4684 44.7666C93.0808 44.7666 92.7492 44.6965 92.4784 44.5611C92.1982 44.4257 91.9787 44.2249 91.8293 43.968C91.6798 43.7112 91.5771 43.431 91.5164 43.1274C91.4557 42.8239 91.4276 42.4736 91.4276 42.0673V31.9523C91.4276 31.0977 91.1334 30.4018 90.5404 29.8648C89.9473 29.3278 89.1487 29.0616 88.1494 29.0616H86.6223C85.6229 29.0616 84.8244 29.3278 84.2313 29.8648C83.6382 30.4018 83.344 31.0977 83.344 31.9523V42.0673C83.344 42.469 83.316 42.8239 83.2553 43.1274C83.1945 43.431 83.0918 43.7112 82.9424 43.968C82.7929 44.2249 82.5781 44.4257 82.2932 44.5611C82.0177 44.6919 81.6908 44.7619 81.3032 44.7666C80.9156 44.7666 80.5841 44.6965 80.3132 44.5611C80.033 44.4257 79.8135 44.2249 79.6641 43.968C79.5146 43.7112 79.4119 43.431 79.3512 43.1274C79.2905 42.8239 79.2625 42.4736 79.2625 42.0673V31.9523C79.2625 31.0977 78.9683 30.4018 78.3752 29.8648C77.7821 29.3278 76.9835 29.0616 75.9842 29.0616C75.4378 29.0616 74.8494 29.1363 74.2236 29.2904C74.1676 29.3044 74.1115 29.3184 74.0555 29.3324C73.3597 29.5099 72.916 30.1917 73.0328 30.9015H73.0281Z" fill="#C4C4C4"/>
<path d="M55.4881 42.0768C55.0725 40.9934 54.8623 39.8586 54.8623 38.6677C54.8623 37.4769 55.0771 36.3421 55.5068 35.2587C55.9364 34.1752 56.5248 33.2272 57.2767 32.4147C58.0285 31.6021 58.9625 30.953 60.0833 30.472C61.2041 29.991 62.4089 29.7481 63.7072 29.7481C65.4444 29.7481 66.9948 30.1591 68.3584 30.9857C69.7267 31.8123 70.7681 32.9004 71.4826 34.25C72.1971 35.5996 72.5614 37.0753 72.5614 38.6677C72.5614 40.2602 72.2018 41.7359 71.4826 43.0855C70.7634 44.4351 69.722 45.5232 68.3584 46.3498C66.9901 47.1763 65.4397 47.5873 63.7072 47.5873C62.3902 47.5873 61.1714 47.3445 60.0506 46.8635C58.9298 46.3825 57.9958 45.7333 57.244 44.9208C56.4921 44.1082 55.9084 43.1602 55.4927 42.0768H55.4881ZM60.0599 42.852C61.05 43.9541 62.2642 44.5051 63.7025 44.5051C65.1408 44.5051 66.355 43.9448 67.3497 42.8193C68.3444 41.6938 68.8441 40.3115 68.8441 38.6724C68.8441 37.0332 68.3444 35.6556 67.3497 34.5348C66.355 33.414 65.1362 32.8537 63.7025 32.8537C62.2688 32.8537 61.0687 33.4234 60.0693 34.5582C59.0746 35.693 58.5749 37.0799 58.5749 38.7191C58.5749 40.3582 59.0699 41.7452 60.0599 42.8473V42.852Z" fill="#C4C4C4"/>
<path d="M53.6671 45.5278C53.5224 44.7059 52.7378 44.1642 51.9112 44.3043C51.617 44.3556 51.3462 44.379 51.0987 44.379C50.6504 44.379 50.3094 44.2342 50.0853 43.9447C49.8611 43.6551 49.7491 43.1181 49.7491 42.3382V28.9635C49.7491 27.1422 49.1747 25.6946 48.0212 24.6158C46.9191 23.5837 45.322 23.0514 43.2392 23.0093C43.1458 23.0093 43.0617 23 42.9636 23C40.8201 23 39.1623 23.5791 37.9902 24.7419C36.818 25.9047 36.2296 27.5205 36.2296 29.5893V30.584H35.3143C34.5437 30.584 33.918 31.2097 33.918 31.9803C33.918 32.7508 34.5437 33.3766 35.3143 33.3766H36.2296V45.5511C36.2296 46.5505 37.0375 47.3584 38.0369 47.3584C39.0362 47.3584 39.8441 46.5505 39.8441 45.5511V33.3766H41.5953C42.3659 33.3766 42.9917 32.7508 42.9917 31.9803C42.9917 31.2097 42.3659 30.584 41.5953 30.584H39.8441V30.1497C39.8768 28.8981 40.1523 27.9081 40.6707 27.1843C41.1891 26.4604 41.9783 26.1008 43.043 26.1008C43.1084 26.1008 43.1738 26.1055 43.2345 26.1102C43.7388 26.1289 44.1825 26.2223 44.5514 26.3997C44.967 26.5959 45.2893 26.876 45.5088 27.2356C45.7282 27.5952 45.887 27.9735 45.9851 28.3751C46.0832 28.7767 46.1299 29.225 46.1299 29.7154V43.8746C46.1299 45.0094 46.4848 45.9154 47.1993 46.5832C47.9138 47.251 48.8851 47.5872 50.118 47.5872C50.7157 47.5872 51.3882 47.5078 52.1354 47.3444C52.2755 47.3117 52.4109 47.2837 52.5417 47.251C53.3122 47.0642 53.8026 46.303 53.6625 45.5231L53.6671 45.5278Z" fill="#C4C4C4"/>
<rect y="23" width="28" height="25" rx="7" fill="#C4C4C4"/>
<path d="M3.72121 30.6463C3.81073 31.2027 4.31343 31.5784 4.85745 31.5146C4.94009 31.5039 5.01928 31.5004 5.09159 31.5004C5.60462 31.5004 5.85941 31.8761 5.85941 32.6309V39.6266C5.85941 40.7713 6.20029 41.6715 6.88203 42.3306C7.54656 42.9721 8.52786 43.2981 9.81905 43.3159C11.1137 43.2981 12.0915 42.9721 12.7561 42.3306C13.4378 41.6715 13.7787 40.7713 13.7787 39.6266V32.6309C13.7787 32.0072 13.9577 31.6492 14.3055 31.5394C14.6532 31.6492 14.8323 32.0072 14.8323 32.6309V39.6266C14.8323 40.7713 15.1732 41.6715 15.8549 42.3306C16.5194 42.9721 17.5007 43.2981 18.7919 43.3159C20.0866 43.2981 21.0644 42.9721 21.7289 42.3306C22.4107 41.6715 22.7516 40.7713 22.7516 39.6266V32.6309C22.7516 31.8796 23.0064 31.5004 23.5194 31.5004C23.5951 31.5004 23.6743 31.5039 23.7535 31.5146C24.2975 31.5784 24.8002 31.2027 24.8898 30.6463C24.9758 30.1076 24.6522 29.5902 24.1357 29.4555C24.0944 29.4449 24.0531 29.4343 24.0118 29.4237C23.5504 29.3067 23.1165 29.25 22.7137 29.25C21.9769 29.25 21.3881 29.452 20.9508 29.8596C20.5135 30.2671 20.2966 30.7952 20.2966 31.4437V39.1198C20.2966 39.4246 20.2759 39.694 20.2312 39.9243C20.1864 40.1547 20.1107 40.3673 20.0005 40.5622C19.8903 40.7571 19.7319 40.9095 19.5219 41.0123C19.3187 41.1115 19.0777 41.1647 18.7919 41.1682C18.5061 41.1682 18.2617 41.1151 18.062 41.0123C17.8554 40.9095 17.6936 40.7571 17.5834 40.5622C17.4732 40.3673 17.3974 40.1547 17.3527 39.9243C17.3079 39.694 17.2873 39.4282 17.2873 39.1198V31.4437C17.2873 30.7952 17.0703 30.2671 16.6331 29.8596C16.1958 29.452 15.607 29.25 14.8702 29.25H13.7443C13.0074 29.25 12.4186 29.452 11.9814 29.8596C11.5441 30.2671 11.3272 30.7952 11.3272 31.4437V39.1198C11.3272 39.4246 11.3065 39.694 11.2617 39.9243C11.217 40.1547 11.1412 40.3673 11.031 40.5622C10.9209 40.7571 10.7625 40.9095 10.5524 41.0123C10.3493 41.1115 10.1083 41.1647 9.82249 41.1682C9.53671 41.1682 9.29225 41.1151 9.09254 41.0123C8.88595 40.9095 8.72412 40.7571 8.61394 40.5622C8.50376 40.3673 8.42801 40.1547 8.38325 39.9243C8.33849 39.694 8.31783 39.4282 8.31783 39.1198V31.4437C8.31783 30.7952 8.10091 30.2671 7.66363 29.8596C7.22635 29.452 6.63757 29.25 5.90073 29.25C5.49788 29.25 5.06404 29.3067 4.60266 29.4237C4.56134 29.4343 4.52002 29.4449 4.47871 29.4555C3.96568 29.5902 3.63858 30.1076 3.72466 30.6463H3.72121Z" fill="white"/>
<path d="M149.897 55.8652L145.956 55.6438L145.924 55.5734L145.89 54.2982C145.765 52.7255 145.251 51.1786 143.413 51.3928C141.484 51.6171 141.602 53.8023 141.484 55.2974C141.475 55.4095 141.488 55.5245 141.485 55.6381L141.461 55.6611L137.51 55.9357C137.497 55.3908 137.527 54.8416 137.511 54.2953C137.51 54.222 137.479 54.1559 137.477 54.0898C137.445 53.1539 137.598 51.7752 136.234 52.0829C135.447 52.2597 134.884 53.0029 134.836 53.8123C134.789 54.6217 134.863 55.4497 134.867 56.2419L132.065 56.6803C132.03 56.653 131.929 56.0162 131.911 55.9083C131.837 55.4972 131.806 55.0199 131.719 54.6246C131.438 53.3537 129.989 54.7123 129.298 54.8517C128.735 54.9667 129.382 54.327 129.534 54.1976C130.79 53.1266 133.269 52.0168 134.822 51.4532C141.805 48.9158 149.435 49.419 155.95 53.0159C156.597 53.3724 157.268 53.7074 157.811 54.2307C157.924 54.3385 158.205 54.6432 158.244 54.7841C158.265 54.8589 158.196 54.8359 158.162 54.8344C157.623 54.8143 156.959 54.2695 156.45 54.12C155.94 53.9704 155.764 54.2177 155.624 54.6964C155.462 55.2542 155.448 55.8925 155.335 56.4661L155.286 56.5222L152.517 56.1139C152.542 54.9466 152.784 53.8468 152.149 52.8031C151.74 52.1303 150.511 51.6487 150.071 52.5127C149.979 52.6924 149.899 52.9785 149.899 53.1625V55.8695L149.897 55.8652Z" fill="#F5AE37"/>
<path d="M139.439 46.6674C141.628 46.3612 141.413 49.8244 139.406 49.3744C137.953 49.0495 138.086 46.8572 139.439 46.6674Z" fill="#F5AE37"/>
<path d="M147.452 46.6674C148.475 46.5237 149.294 47.4452 148.963 48.4702C148.625 49.5139 147.268 49.7281 146.625 48.8483C146.051 48.0633 146.5 46.8011 147.452 46.6674Z" fill="#F5AE37"/>
<path d="M152.967 35.6583L151.983 37.7945L149.396 34.8633C149.617 34.8374 149.848 34.7411 150.071 34.7684L152.967 35.6568V35.6583Z" fill="#1589AB"/>
<path d="M139.379 39.2782C140.247 38.8354 141.248 38.8196 142.111 39.2839L142.108 39.9768L141.565 40.8293H139.379V39.2782ZM139.78 39.8302C139.812 39.8518 140.423 39.8302 140.531 39.8302C140.593 39.8302 140.618 39.6347 140.491 39.5959C140.426 39.5757 139.902 39.5757 139.837 39.5959C139.73 39.6289 139.739 39.8029 139.78 39.8302ZM141.717 39.8302C141.748 39.7382 141.776 39.6318 141.66 39.5959C141.595 39.5757 141.071 39.5757 141.006 39.5959C140.879 39.6347 140.904 39.8302 140.966 39.8302H141.717Z" fill="#1589AB"/>
<path d="M132.827 49.0797C134.253 48.8296 134.412 50.9385 133.149 51.0679C131.887 51.1973 131.714 49.2752 132.827 49.0797Z" fill="#F5AE37"/>
<path d="M154.161 49.0797C155.557 48.854 155.744 50.9357 154.451 51.0679C153.158 51.2002 153.021 49.2637 154.161 49.0797Z" fill="#F5AE37"/>
<path d="M145.422 24.8978L146.724 22.7601L146.991 24.1388C146.526 24.0698 146.248 24.4407 146.39 24.8978H145.421H145.422Z" fill="#F5AE37"/>
<path d="M150.49 27.4568C150.986 27.3863 151.026 28.1181 150.675 28.2014C150.096 28.338 150.003 27.5258 150.49 27.4568Z" fill="#F5AE37"/>
<path d="M150.899 38.1051L150.563 36.8644L151.43 37.9168C151.454 38.0246 150.985 38.0993 150.897 38.1051H150.899Z" fill="#1589AB"/>
<path d="M148.126 22.1391C148.114 22.2411 148.203 22.3518 148.126 22.4323L146.991 23.0706L146.963 22.8004L148.125 22.1391H148.126Z" fill="#F5AE37"/>
<path d="M146.725 5.42982C146.089 3.55231 145.321 1.64749 144.237 0C143.292 1.43616 142.557 3.05778 141.958 4.68083C141.246 6.61441 140.675 8.67018 140.23 10.69C140.06 11.4562 139.244 15.483 139.244 15.483C140.771 17.2742 142.346 19.0497 143.659 21.0278L144.252 22.0183C144.721 20.9588 145.47 19.9999 146.205 19.1215C147.145 17.9959 148.184 16.9536 149.243 15.9488C149.271 15.5247 147.61 8.05201 146.724 5.43126L146.725 5.42982Z" fill="#F5AE37"/>
<path d="M148.118 23.5939C148.484 23.4804 148.609 24.0813 148.236 24.1316C147.92 24.1747 147.829 23.6831 148.118 23.5939Z" fill="#F5AE37"/>
<path d="M146.749 24.3875C147.23 24.2725 147.192 25.0416 146.722 24.882C146.532 24.8173 146.537 24.4378 146.749 24.3875Z" fill="#F5AE37"/>
<path d="M147.843 28.3466C147.865 28.3581 147.865 28.3695 147.843 28.3809V28.3466Z" fill="#F5AE37"/>
<path d="M179.312 67.9353L179.266 68C173.228 64.8574 166.755 62.5357 160.121 61.1168C143.489 57.5587 126.187 59.6677 110.857 67.0771C110.237 67.3761 109.632 67.7269 109 67.9871C112.076 65.7458 115.407 63.8295 118.86 62.2726C137.503 53.8713 160.226 55.3261 177.408 66.6443C178.048 67.0656 178.667 67.5242 179.313 67.9353H179.312Z" fill="#8BBF4B"/>
<path d="M150.523 21.8731C151.723 21.8559 152.07 23.5982 150.953 24.0425C149.29 24.7052 148.842 21.8976 150.523 21.8731ZM150.521 22.2555C149.414 22.2728 149.725 24.1445 150.823 23.6974C151.551 23.4013 151.333 22.2426 150.521 22.2555Z" fill="white"/>
<path d="M154.433 21.2478C154.458 21.2636 154.472 21.3872 154.469 21.4275C154.458 21.5841 154.224 22.6667 154.166 22.7716C153.958 23.1396 153.443 22.9456 153.5 22.4999C153.534 22.2397 153.918 22.0988 154.103 22.3116L154.203 21.794L153.255 21.8932C153.145 22.1534 153.159 22.9527 152.845 23.0275C152.127 23.1971 152.242 21.9967 152.969 22.3791C153.02 22.2066 153.101 21.4447 153.204 21.3642C153.274 21.3096 154.373 21.2075 154.433 21.2463V21.2478ZM154.27 21.4145C154.068 21.4878 153.471 21.4289 153.324 21.5166C153.276 21.5439 153.311 21.6417 153.303 21.6905L154.216 21.623L154.271 21.4145H154.27ZM153.827 22.3863C153.642 22.4165 153.606 22.7055 153.759 22.7529C154.136 22.8694 154.089 22.3446 153.827 22.3863ZM152.576 22.8205C152.731 22.9801 153.044 22.7256 152.834 22.5373C152.624 22.349 152.436 22.6753 152.576 22.8205Z" fill="white"/>
<path d="M151.432 20.4154C151.442 20.4039 151.453 20.1552 151.465 20.1049C151.321 20.1509 150.896 20.0876 150.839 20.2328C150.764 20.4226 150.815 20.8955 150.545 20.9315C150.215 20.9746 150.131 20.4499 150.516 20.4456C150.573 20.4456 150.659 20.4887 150.665 20.4844C150.719 20.4427 150.723 19.8504 150.856 19.8015C151.11 19.7814 151.412 19.7052 151.653 19.7584C151.684 19.803 151.528 20.5635 151.492 20.6655C151.328 21.1284 150.8 20.7087 151.083 20.4499C151.23 20.3148 151.422 20.4312 151.433 20.4168L151.432 20.4154ZM151.532 19.8633C151.447 19.882 150.92 19.8734 150.897 19.8978C150.889 19.9065 150.903 20.0014 150.897 20.0359C151.07 20.0085 151.275 20.0215 151.44 19.9927C151.532 19.9769 151.543 19.964 151.532 19.8648V19.8633ZM151.255 20.4901C151.077 20.5045 151.109 20.7604 151.25 20.7618C151.405 20.7618 151.397 20.4786 151.255 20.4901ZM150.406 20.7848C150.504 20.8855 150.718 20.7518 150.601 20.6008C150.484 20.4499 150.292 20.667 150.406 20.7848Z" fill="white"/>
<path d="M148.493 36.9334L148.243 36.5898C148.271 36.6531 148.56 36.8932 148.56 36.9162V37.796C148.407 37.8391 148.489 37.704 148.442 37.6896C148.418 37.6824 148.204 37.6867 148.194 37.6954C148.178 37.7112 148.212 37.7845 148.176 37.796C148.044 37.8348 148.121 37.7011 148.075 37.6896C148.05 37.6839 147.865 37.6839 147.844 37.6896C147.797 37.7025 147.879 37.8391 147.726 37.796V36.9162C147.726 36.9032 147.854 36.7925 147.876 36.7624L147.891 36.7782C147.849 36.8314 147.78 36.8616 147.792 36.9334H148.493Z" fill="white"/>
<path d="M138.028 34.2092C137.891 34.1847 137.919 33.9677 138.028 33.9677H139.33C139.408 33.9677 139.45 34.1675 139.33 34.2092C138.939 34.1603 138.401 34.2739 138.028 34.2092Z" fill="white"/>
<path d="M139.301 28.489C139.467 28.4315 139.962 28.6212 140.164 28.6212C140.366 28.6212 140.96 28.4056 141.102 28.5148C141.217 28.6054 141.099 28.7262 140.992 28.752C140.8 28.798 140.288 28.8714 140.096 28.8642C140.001 28.8599 139.319 28.7405 139.279 28.7089C139.222 28.6643 139.226 28.5148 139.301 28.489Z" fill="white"/>
<path d="M137.433 28.6974C137.566 28.6586 137.957 28.821 138.127 28.8225C138.33 28.8239 138.884 28.6083 139.031 28.7233C139.097 28.7736 139.094 28.8484 139.031 28.9001C138.969 28.9519 138.216 29.0755 138.095 29.0726C137.973 29.0697 137.532 28.9907 137.432 28.9274C137.322 28.8599 137.31 28.7333 137.435 28.696L137.433 28.6974Z" fill="white"/>
<path d="M136.771 39.8244C136.75 39.8374 136.534 39.8374 136.515 39.8244C136.408 39.7554 136.522 39.4938 136.743 39.6059C136.822 39.6462 136.819 39.7928 136.771 39.8244Z" fill="white"/>
<path d="M137.799 39.5944C137.941 39.5441 138.094 39.6404 138.03 39.7986C137.834 39.9581 137.579 39.6721 137.799 39.5944Z" fill="white"/>
<path d="M138.64 39.6275C138.779 39.8561 138.278 39.938 138.349 39.6807C138.384 39.5585 138.606 39.5729 138.64 39.6275Z" fill="white"/>
<path d="M137.405 39.6275C137.544 39.8561 137.043 39.938 137.114 39.6807C137.149 39.5585 137.372 39.5729 137.405 39.6275Z" fill="white"/>
<path d="M142.828 23.9634C142.559 23.5867 142.341 23.1713 142.085 22.786C142.035 22.7112 141.88 22.4683 141.728 22.2584C141.714 22.1923 141.696 22.1304 141.677 22.0916C141.598 21.9234 141.059 21.2449 140.896 21.1514C140.906 21.1529 140.916 21.1529 140.927 21.1572C140.952 21.1356 140.817 20.9646 140.793 20.9344C139.417 19.1532 137.44 17.3475 135.572 16.1371C132.565 14.1877 128.633 12.9514 125.056 13.4732C124.986 13.4833 124.567 13.5436 124.567 13.5897C127.956 16.958 133.723 25.6957 133.723 25.6957C133.721 25.6957 133.719 25.6957 133.717 25.6943C133.706 25.7546 133.822 25.9962 133.858 26.0048C133.861 26.0048 133.867 26.0062 133.876 26.0077L134.012 26.2837C134.004 26.288 134 26.2923 134.001 26.2966C134.007 26.3167 134.16 26.6071 134.175 26.6172C134.175 26.6172 134.178 26.6172 134.178 26.6186L134.488 27.244L134.534 27.3475C134.534 27.3475 134.537 27.3475 134.538 27.3475L135.057 28.3955L135.602 29.5715C137.426 30.1178 139.016 31.2305 140.524 32.3834C140.618 31.7437 140.814 31.127 141.027 30.5217C141.056 30.4383 141.085 30.3765 141.105 30.3205C141.758 28.545 142.598 26.8501 143.46 25.1767H143.507L142.821 23.9648L142.828 23.9634Z" fill="#1A9D5B"/>
<path d="M141.716 39.8302H140.965C140.904 39.8302 140.879 39.6347 141.006 39.5959C141.071 39.5757 141.594 39.5757 141.659 39.5959C141.775 39.6318 141.747 39.7382 141.716 39.8302Z" fill="white"/>
<path d="M139.78 39.8302C139.739 39.8029 139.73 39.6289 139.837 39.5959C139.902 39.5757 140.425 39.5757 140.49 39.5959C140.617 39.6347 140.592 39.8302 140.531 39.8302C140.422 39.8302 139.812 39.8518 139.78 39.8302Z" fill="white"/>
<path d="M150.52 22.2555C151.333 22.2426 151.55 23.4013 150.822 23.6974C149.724 24.1445 149.415 22.2728 150.52 22.2555Z" fill="#F5AE37"/>
<path d="M154.27 21.4145L154.214 21.623L153.301 21.6905C153.31 21.6417 153.275 21.5439 153.322 21.5166C153.47 21.4289 154.067 21.4878 154.269 21.4145H154.27Z" fill="#F5AE37"/>
<path d="M153.827 22.3863C154.089 22.3446 154.137 22.8694 153.759 22.7529C153.606 22.7055 153.641 22.4165 153.827 22.3863Z" fill="#F5AE37"/>
<path d="M152.576 22.8205C152.436 22.6753 152.632 22.3562 152.834 22.5373C153.035 22.7184 152.731 22.9801 152.576 22.8205Z" fill="#F5AE37"/>
<path d="M151.532 19.8633C151.544 19.9623 151.532 19.9752 151.44 19.991C151.275 20.0197 151.069 20.0082 150.898 20.034C150.903 20.001 150.889 19.9049 150.898 19.8963C150.92 19.8719 151.447 19.8806 151.532 19.8619V19.8633Z" fill="#F5AE37"/>
<path d="M150.406 20.7849C150.292 20.667 150.478 20.4427 150.601 20.6008C150.723 20.759 150.503 20.8855 150.406 20.7849Z" fill="#F5AE37"/>
<path d="M151.255 20.4901C151.397 20.4786 151.404 20.7618 151.25 20.7618C151.109 20.7618 151.079 20.506 151.255 20.4901Z" fill="#F5AE37"/>
<path d="M160.636 12.1937C155.521 13.0117 151.375 16.5123 148.261 20.5865C147.926 21.0264 147.607 21.4806 147.291 21.9364C147.163 22.1204 147.037 22.3044 146.909 22.487C146.879 22.5085 146.863 22.5215 146.863 22.5215L145.187 25.3291L145.19 25.3363C143.765 27.819 142.607 30.4642 141.65 33.177L144.242 35.9803C144.288 35.9889 144.342 35.9113 144.371 35.8797C144.679 35.5505 144.96 35.1235 145.272 34.7756C146.555 33.3466 148.062 32.0657 149.63 30.9818C149.63 30.9818 149.63 30.9818 149.63 30.9789L151.168 29.9093C151.168 29.9093 151.168 29.9107 151.168 29.9122L152.714 29.0094L153.762 28.4545C154.154 27.51 156.473 23.0922 157.155 22.0111C159.325 18.5724 161.896 15.424 164.654 12.4798C164.757 12.3691 164.962 12.2929 164.956 12.119C163.513 11.9695 162.074 11.9637 160.639 12.1937H160.636Z" fill="#E36935"/>
<path d="M140.97 40.4469C140.957 40.4771 140.939 40.5044 140.92 40.5303L140.974 40.457C140.899 40.5576 140.824 40.6554 140.764 40.7661C140.704 40.8768 140.655 40.9946 140.614 41.114C140.6 41.1614 140.597 41.2088 140.608 41.2577C140.611 41.3052 140.623 41.3497 140.65 41.3914C140.691 41.4662 140.775 41.5366 140.857 41.5567C140.946 41.5783 141.046 41.5726 141.126 41.5208L141.197 41.4647C141.24 41.4202 141.269 41.367 141.286 41.3066C141.295 41.2779 141.307 41.2491 141.318 41.2203L141.283 41.3066C141.337 41.1743 141.407 41.0493 141.492 40.9343L141.437 41.0076C141.485 40.9443 141.54 40.8854 141.572 40.8121C141.598 40.7704 141.611 40.7258 141.614 40.6784C141.624 40.6309 141.623 40.5835 141.609 40.5346C141.586 40.4512 141.524 40.3607 141.449 40.3204C141.368 40.2758 141.27 40.2543 141.18 40.2845C141.099 40.3118 141.007 40.3664 140.973 40.4498L140.97 40.4469Z" fill="#F5AE37"/>
<path d="M140.936 40.6194C140.936 40.6194 140.936 40.6266 140.936 40.6295L140.949 40.5346C140.949 40.5346 140.947 40.5447 140.945 40.5504L140.979 40.4642C140.974 40.4786 140.964 40.4915 140.956 40.503L141.01 40.4297C140.975 40.4757 140.932 40.5131 140.89 40.5504C140.87 40.5691 140.85 40.5878 140.831 40.6079C140.821 40.618 140.811 40.6295 140.803 40.6396C140.776 40.6741 140.748 40.7086 140.725 40.7445C140.7 40.7862 140.686 40.8308 140.683 40.8782C140.673 40.9256 140.675 40.9731 140.689 41.022C140.7 41.0694 140.721 41.1097 140.751 41.1442C140.776 41.183 140.808 41.2146 140.849 41.2362L140.932 41.2721C140.993 41.2894 141.056 41.2894 141.117 41.2721L141.201 41.2362C141.254 41.2045 141.294 41.1614 141.326 41.1068C141.332 41.0982 141.337 41.091 141.343 41.0838L141.288 41.1571C141.327 41.1053 141.379 41.0637 141.426 41.0205C141.45 40.999 141.472 40.9774 141.492 40.953C141.515 40.9242 141.536 40.8955 141.557 40.8653C141.563 40.8581 141.568 40.8509 141.572 40.8423C141.592 40.8106 141.607 40.7689 141.617 40.7373C141.617 40.733 141.618 40.7287 141.62 40.7244L141.632 40.6295C141.632 40.6295 141.632 40.6223 141.632 40.6194C141.634 40.5706 141.624 40.5231 141.602 40.4814C141.588 40.4369 141.564 40.398 141.529 40.3664C141.497 40.3319 141.461 40.306 141.418 40.2917C141.376 40.2687 141.332 40.2586 141.284 40.26L141.192 40.273C141.134 40.2902 141.082 40.3204 141.039 40.365L140.985 40.4383C140.953 40.4944 140.938 40.5547 140.938 40.6194H140.936Z" fill="#F5AE37"/>
<path d="M141.096 40.4225C141.096 40.4225 141.089 40.4239 141.085 40.4254C141.057 40.4369 141.027 40.4498 140.999 40.4627C140.998 40.4627 140.995 40.4642 140.993 40.4656C140.991 40.4671 140.988 40.4685 140.985 40.4714C140.959 40.4901 140.934 40.5116 140.909 40.5332C140.896 40.5432 140.886 40.5547 140.877 40.5677C140.836 40.6223 140.796 40.6769 140.757 40.7316C140.732 40.7733 140.718 40.8178 140.715 40.8653C140.706 40.9127 140.707 40.9602 140.721 41.009C140.732 41.0565 140.753 41.0967 140.783 41.1312C140.808 41.17 140.84 41.2017 140.881 41.2232L140.964 41.2592C141.025 41.2764 141.088 41.2764 141.149 41.2592L141.233 41.2232C141.285 41.1916 141.326 41.1485 141.358 41.0938C141.379 41.0637 141.399 41.0335 141.422 41.0033L141.368 41.0766C141.377 41.0637 141.388 41.0507 141.402 41.0392L141.331 41.0953C141.331 41.0953 141.344 41.0867 141.351 41.0838L141.267 41.1197C141.267 41.1197 141.277 41.1169 141.281 41.1154C141.327 41.1039 141.366 41.0823 141.399 41.0507C141.437 41.0248 141.468 40.9918 141.489 40.9501C141.514 40.9084 141.527 40.8638 141.53 40.8164C141.54 40.7689 141.539 40.7215 141.525 40.6726L141.49 40.5864C141.459 40.5317 141.418 40.4901 141.365 40.457L141.281 40.421C141.22 40.4038 141.158 40.4038 141.096 40.421V40.4225Z" fill="#F5AE37"/>
<path d="M140.806 40.7316C140.806 40.7316 140.803 40.7402 140.802 40.7445L140.836 40.6582C140.832 40.6683 140.827 40.6784 140.82 40.687L140.874 40.6137C140.868 40.6223 140.861 40.6295 140.853 40.6352C140.82 40.6683 140.795 40.7057 140.781 40.7503C140.758 40.7934 140.749 40.8394 140.75 40.8883C140.749 40.9371 140.758 40.9846 140.781 41.0263C140.795 41.0708 140.818 41.1097 140.853 41.1413L140.924 41.1973C140.978 41.2304 141.037 41.2462 141.099 41.2462L141.191 41.2333C141.249 41.216 141.301 41.1858 141.344 41.1413C141.35 41.137 141.354 41.1327 141.358 41.1283C141.361 41.1255 141.362 41.124 141.363 41.1212C141.382 41.0982 141.401 41.0708 141.419 41.0478C141.419 41.0478 141.419 41.0478 141.42 41.0464C141.42 41.0464 141.422 41.0435 141.423 41.0421C141.427 41.0363 141.43 41.0306 141.433 41.0248C141.447 40.9946 141.459 40.963 141.472 40.93C141.472 40.9271 141.475 40.9242 141.475 40.9199C141.489 40.8724 141.491 40.825 141.48 40.7761C141.477 40.7287 141.465 40.6841 141.439 40.6424C141.416 40.6007 141.387 40.5662 141.35 40.5418C141.316 40.5102 141.277 40.4886 141.231 40.4771L141.14 40.4642C141.077 40.4642 141.019 40.4814 140.964 40.5131L140.893 40.5691C140.85 40.6137 140.821 40.6669 140.804 40.7273L140.806 40.7316Z" fill="#F5AE37"/>
<path d="M140.93 40.5619C140.93 40.5619 140.924 40.5677 140.921 40.5705L140.992 40.5145C140.955 40.5447 140.911 40.5691 140.87 40.595C140.828 40.6209 140.783 40.6453 140.739 40.6683C140.699 40.6913 140.665 40.7215 140.641 40.7603C140.611 40.7948 140.59 40.8351 140.579 40.8825C140.565 40.9299 140.562 40.9774 140.573 41.0263C140.576 41.0737 140.589 41.1183 140.615 41.16L140.669 41.2333C140.712 41.2778 140.764 41.308 140.822 41.3253L140.914 41.3382C140.977 41.3382 141.035 41.321 141.09 41.2893C141.137 41.2649 141.183 41.239 141.229 41.2117C141.251 41.1973 141.273 41.183 141.296 41.1686C141.307 41.1614 141.318 41.1542 141.329 41.1456C141.361 41.124 141.396 41.1025 141.421 41.0708C141.454 41.0378 141.479 41.0004 141.493 40.9558C141.516 40.9127 141.525 40.8667 141.524 40.8178C141.525 40.7689 141.516 40.7215 141.493 40.6798C141.479 40.6352 141.456 40.5964 141.421 40.5648L141.35 40.5087C141.296 40.4757 141.237 40.4599 141.175 40.4599L141.083 40.4728C141.024 40.49 140.973 40.5202 140.93 40.5648V40.5619Z" fill="#F5AE37"/>
<path d="M143.514 37.7529C143.503 37.6982 143.06 37.1218 142.984 37.0211C142.783 36.758 142.562 36.4806 142.35 36.2276C142.232 36.0867 140.25 34.0438 140.207 34.0093L140.06 33.8598C139.983 33.7779 139.476 33.3481 139.476 33.3481C139.019 32.911 138.504 32.5157 137.987 32.1462C134.133 29.3846 129.368 27.911 124.655 28.1741C124.638 28.2417 124.683 28.2403 124.711 28.2704C125.027 28.604 125.601 28.9878 125.972 29.3127C128.623 31.633 130.965 34.4191 133.028 37.3015C133.428 37.8607 133.806 38.4357 134.201 38.9978C134.261 39.087 134.378 39.2609 134.519 39.4694C134.519 39.4751 134.519 39.4809 134.519 39.4866L135.038 40.2787V40.2457C135.197 40.4857 135.337 40.6985 135.418 40.8236L135.545 41.0363H135.539L138.229 45.9343L138.948 45.6683C139.589 44.258 140.353 42.9153 141.13 41.5826C141.564 40.9142 143.535 37.8636 143.513 37.7514L143.514 37.7529ZM134.26 38.8972V38.8828L134.267 38.8943L134.26 38.8972Z" fill="#7062AA"/>
<path d="M141.674 42.75L141.554 42.9555L141.724 43.013L142.023 42.7198L141.674 42.75Z" fill="#1589AB"/>
<path d="M163.336 28.2072C161.371 28.0994 159.262 28.3322 157.361 28.8325C151.211 30.4513 146.311 35.1465 142.952 40.5361H142.95L142.62 41.0565C142.619 41.0565 142.616 41.0565 142.615 41.0593L142.59 41.1053L142.586 41.1111L141.649 42.7801C141.649 42.8132 141.667 42.8348 141.696 42.8492C141.685 42.8722 141.675 42.8937 141.664 42.9167H141.582C141.515 42.9512 140.945 44.1099 140.864 44.2796C140.815 44.3816 140.41 45.2083 140.448 45.2456C142.729 44.7554 145.074 44.7022 147.365 45.1522C148.378 45.352 149.364 45.6769 150.33 46.0392L151.232 43.7635L151.833 42.6091L152.334 41.6603L152.607 41.2103C152.619 41.2103 152.629 41.2103 152.632 41.2103C152.64 41.2031 152.703 41.0795 152.737 40.9961L152.92 40.6956C154.085 38.7577 155.442 36.9593 156.875 35.2299C158.481 33.2934 160.213 31.4317 162.05 29.7123C162.582 29.2149 163.138 28.7405 163.687 28.2647C163.573 28.2446 163.456 28.2172 163.337 28.2115L163.336 28.2072ZM141.524 43.2445C141.524 43.2445 141.522 43.2488 141.521 43.2517C141.521 43.2488 141.517 43.2474 141.517 43.2445C141.519 43.2445 141.521 43.2445 141.524 43.2445ZM152.797 40.4699L152.822 40.4282L152.833 40.4599L152.797 40.4699Z" fill="#1589AB"/>
<path d="M190.391 32.1453V28.3608H183.282V25.551L191.389 15.4702H193.569V25.5166H195.656V28.3608H193.569V32.1453H190.391ZM186.495 25.5166H190.739V20.2182L186.495 25.5166Z" fill="#7062AA"/>
<path d="M203.044 32.3059C201.706 32.3059 200.547 32.0536 199.565 31.549C198.583 31.0444 197.852 30.341 197.373 29.4388L199.078 27.3057C199.34 27.8944 199.808 28.3952 200.481 28.808C201.161 29.2132 201.977 29.4159 202.928 29.4159C203.902 29.4159 204.675 29.2132 205.247 28.808C205.819 28.4028 206.106 27.8409 206.106 27.1222C206.106 26.3347 205.738 25.7345 205.004 25.3216C204.277 24.9088 203.229 24.7023 201.861 24.7023H201.072V22.3513H201.907C203.067 22.3513 203.983 22.1563 204.656 21.7664C205.336 21.3688 205.676 20.8107 205.676 20.092C205.676 19.4498 205.425 18.9375 204.923 18.5552C204.42 18.1729 203.802 17.9818 203.067 17.9818C202.286 17.9818 201.59 18.1615 200.98 18.5208C200.377 18.8802 199.909 19.358 199.576 19.9544L197.512 17.6722C198.015 16.9382 198.803 16.3533 199.878 15.9175C200.953 15.474 202.097 15.2523 203.311 15.2523C204.996 15.2523 206.376 15.669 207.451 16.5024C208.533 17.3281 209.074 18.3756 209.074 19.6447C209.074 20.5928 208.784 21.4032 208.205 22.076C207.632 22.7489 206.863 23.1923 205.897 23.4064C206.933 23.5822 207.776 24.0677 208.425 24.8629C209.082 25.6504 209.411 26.5755 209.411 27.6382C209.411 28.594 209.129 29.4311 208.564 30.1498C208.007 30.8609 207.25 31.3999 206.291 31.7669C205.332 32.1262 204.25 32.3059 203.044 32.3059Z" fill="#7062AA"/>
<path d="M213.852 15.1376C214.564 15.1376 215.147 15.3593 215.604 15.8028C216.068 16.2462 216.299 16.8005 216.299 17.4657C216.299 18.2073 216.071 18.8075 215.615 19.2663C215.159 19.725 214.571 19.9544 213.852 19.9544C213.149 19.9544 212.569 19.7212 212.113 19.2548C211.657 18.7884 211.429 18.1921 211.429 17.4657C211.429 16.8005 211.657 16.2462 212.113 15.8028C212.577 15.3593 213.157 15.1376 213.852 15.1376ZM213.215 16.9267C213.052 17.1178 212.971 17.3281 212.971 17.5575C212.971 17.7868 213.052 17.9818 213.215 18.1424C213.439 18.3335 213.651 18.4291 213.852 18.4291C214.115 18.4291 214.328 18.3335 214.49 18.1424C214.653 17.9818 214.734 17.7868 214.734 17.5575C214.734 17.3281 214.653 17.1178 214.49 16.9267C214.336 16.7509 214.123 16.6629 213.852 16.6629C213.628 16.6629 213.416 16.7509 213.215 16.9267Z" fill="#7062AA"/>
<path d="M219.013 32.1453V15.4702H230.332V18.3144H222.284V22.6151H228.987V25.2413H222.284V32.1453H219.013Z" fill="#7062AA"/>
<path d="M237.372 32.3747C236.073 32.3747 234.917 32.0842 233.904 31.5031C232.891 30.922 232.122 30.1575 231.596 29.2094C231.07 28.2537 230.808 27.2063 230.808 26.0671C230.808 24.8973 231.07 23.8269 231.596 22.8559C232.122 21.8773 232.891 21.0936 233.904 20.5049C234.917 19.9161 236.08 19.6218 237.395 19.6218C238.384 19.6218 239.289 19.7938 240.109 20.1379C240.936 20.4819 241.62 20.9483 242.161 21.537C242.71 22.1181 243.132 22.7871 243.425 23.544C243.727 24.3009 243.878 25.0999 243.878 25.9409C243.878 26.3767 243.854 26.7284 243.808 26.996H234.182C234.26 27.9288 234.615 28.6781 235.249 29.2438C235.883 29.802 236.629 30.081 237.488 30.081C238.129 30.081 238.728 29.9281 239.285 29.6223C239.85 29.3088 240.232 28.9036 240.433 28.4066L243.159 29.1636C242.695 30.1269 241.949 30.9029 240.92 31.4916C239.9 32.0804 238.717 32.3747 237.372 32.3747ZM234.113 25.0005H240.619C240.526 24.0754 240.174 23.3299 239.563 22.7641C238.96 22.1907 238.222 21.904 237.348 21.904C236.49 21.904 235.756 22.1907 235.145 22.7641C234.534 23.3376 234.19 24.083 234.113 25.0005Z" fill="#7062AA"/>
<path d="M250.395 32.3747C249.321 32.3747 248.3 32.1989 247.334 31.8472C246.367 31.4955 245.544 30.9909 244.863 30.3333L246 28.2919C247.484 29.4541 248.911 30.0352 250.279 30.0352C250.906 30.0352 251.4 29.9243 251.764 29.7026C252.135 29.4732 252.32 29.1444 252.32 28.7163C252.32 28.6169 252.309 28.529 252.286 28.4525C252.27 28.3684 252.231 28.2919 252.17 28.2231C252.116 28.1467 252.065 28.0817 252.019 28.0282C251.972 27.9747 251.891 27.9211 251.775 27.8676C251.659 27.8064 251.563 27.7606 251.485 27.73C251.408 27.6918 251.284 27.6459 251.114 27.5924C250.944 27.5312 250.809 27.4892 250.708 27.4662C250.616 27.4356 250.457 27.3898 250.233 27.3286C250.009 27.2598 249.835 27.2063 249.711 27.168C249.1 26.9769 248.598 26.8049 248.203 26.652C247.817 26.499 247.438 26.3194 247.067 26.1129C246.696 25.9065 246.41 25.6886 246.209 25.4592C246.008 25.2299 245.845 24.9584 245.722 24.645C245.606 24.3315 245.548 23.9722 245.548 23.5669C245.548 22.3589 246.008 21.3956 246.928 20.6769C247.848 19.9582 249.069 19.5989 250.592 19.5989C252.456 19.5989 254.014 20.1799 255.266 21.3421L253.979 23.3376C252.742 22.3972 251.563 21.927 250.442 21.927C249.885 21.927 249.425 22.0263 249.062 22.2251C248.698 22.4239 248.517 22.7489 248.517 23.2C248.517 23.6052 248.679 23.9072 249.004 24.106C249.328 24.2971 249.92 24.5112 250.778 24.7482C251.466 24.947 252.011 25.119 252.413 25.2643C252.815 25.4019 253.229 25.5777 253.654 25.7918C254.087 26.0059 254.412 26.2314 254.628 26.4685C254.852 26.6978 255.034 26.9807 255.173 27.3171C255.312 27.6535 255.382 28.0435 255.382 28.4869C255.382 29.6949 254.93 30.6468 254.025 31.3426C253.128 32.0307 251.918 32.3747 250.395 32.3747Z" fill="#7062AA"/>
<path d="M264.938 31.5146C263.67 32.0727 262.499 32.3518 261.424 32.3518C260.968 32.3518 260.551 32.2944 260.172 32.1798C259.793 32.0651 259.453 31.893 259.151 31.6637C258.85 31.4267 258.614 31.1094 258.444 30.7118C258.274 30.3142 258.189 29.8517 258.189 29.3241V22.2595H256.553V19.8397H258.189V15.8487H261.378V19.8397H263.987V22.2595H261.378V28.269C261.401 29.0718 261.795 29.4732 262.561 29.4732C263.009 29.4732 263.589 29.3241 264.3 29.0259L264.938 31.5146Z" fill="#7062AA"/>
<path d="M266.597 18.1194V15H269.774V18.1194H266.597ZM266.597 32.1453V19.8397H269.774V32.1453H266.597Z" fill="#7062AA"/>
<path d="M276.002 32.1453L271.409 19.8397H274.715L277.846 29.2782L281.012 19.8397H284.027L279.469 32.1453H276.002Z" fill="#7062AA"/>
<path d="M284.503 28.5098C284.503 27.3171 284.997 26.3538 285.987 25.6198C286.977 24.8782 288.264 24.5074 289.849 24.5074C291.04 24.5074 292.037 24.6717 292.841 25.0005V24.3468C292.841 23.5593 292.605 22.9553 292.134 22.5348C291.67 22.1143 290.978 21.904 290.058 21.904C289.393 21.904 288.759 22.0187 288.156 22.2481C287.553 22.4698 286.892 22.8177 286.173 23.2917L285.141 21.2274C286.803 20.157 288.554 19.6218 290.394 19.6218C292.172 19.6218 293.552 20.0614 294.534 20.9407C295.524 21.8199 296.019 23.0738 296.019 24.7023V28.6245C296.019 28.9609 296.077 29.2018 296.193 29.347C296.309 29.4847 296.506 29.5649 296.784 29.5879V32.1453C296.251 32.2524 295.798 32.3059 295.427 32.3059C294.816 32.3059 294.341 32.1759 294.001 31.916C293.668 31.6484 293.463 31.2929 293.386 30.8494L293.317 30.2186C292.783 30.8991 292.11 31.4305 291.299 31.8128C290.495 32.1874 289.671 32.3747 288.828 32.3747C287.584 32.3747 286.552 32.0077 285.732 31.2737C284.912 30.5398 284.503 29.6185 284.503 28.5098ZM292.25 29.1406C292.644 28.7507 292.841 28.3913 292.841 28.0626V26.8125C292.029 26.4838 291.198 26.3194 290.348 26.3194C289.513 26.3194 288.832 26.499 288.307 26.8584C287.781 27.2101 287.518 27.6727 287.518 28.2461C287.518 28.743 287.719 29.175 288.121 29.542C288.523 29.9014 289.06 30.081 289.733 30.081C290.205 30.081 290.665 29.9969 291.113 29.8287C291.569 29.6529 291.948 29.4235 292.25 29.1406Z" fill="#7062AA"/>
<path d="M298.976 15H302.154V28.2002C302.154 28.743 302.243 29.1177 302.42 29.3241C302.598 29.5305 302.865 29.6338 303.221 29.6338C303.731 29.6338 304.23 29.5229 304.717 29.3012L305.146 31.6981C304.728 31.8892 304.237 32.0421 303.673 32.1568C303.108 32.2715 302.587 32.3288 302.107 32.3288C301.118 32.3288 300.348 32.0651 299.799 31.5375C299.25 31.01 298.976 30.2645 298.976 29.3012V15Z" fill="#7062AA"/>
<path d="M183.352 54.6121C183.352 53.4423 183.588 52.3719 184.059 51.4009C184.531 50.4299 185.192 49.6615 186.042 49.0957C186.901 48.53 187.859 48.2471 188.918 48.2471C189.808 48.2471 190.619 48.465 191.354 48.9008C192.096 49.3289 192.684 49.9024 193.117 50.621V43.6253H196.306V57.2498C196.306 57.5862 196.36 57.8271 196.468 57.9723C196.576 58.1099 196.766 58.1902 197.037 58.2132V60.7706C196.488 60.8777 196.035 60.9312 195.68 60.9312C195.115 60.9312 194.644 60.7936 194.265 60.5183C193.894 60.2354 193.685 59.8646 193.639 59.4059L193.592 58.6375C193.144 59.3944 192.529 59.9793 191.748 60.3922C190.967 60.7974 190.14 61 189.266 61C188.138 61 187.121 60.7171 186.216 60.1513C185.312 59.5856 184.608 58.8172 184.106 57.8462C183.603 56.8675 183.352 55.7895 183.352 54.6121ZM193.117 56.2635V53.3276C192.854 52.6471 192.413 52.0775 191.795 51.6188C191.184 51.1601 190.558 50.9307 189.916 50.9307C188.98 50.9307 188.203 51.3053 187.585 52.0546C186.966 52.7962 186.657 53.6755 186.657 54.6923C186.657 55.7169 186.982 56.5808 187.631 57.2842C188.288 57.98 189.112 58.3278 190.101 58.3278C190.72 58.3278 191.323 58.1329 191.911 57.743C192.506 57.3454 192.908 56.8522 193.117 56.2635Z" fill="#7062AA"/>
<path d="M198.637 54.635C198.637 53.7787 198.792 52.9644 199.101 52.1922C199.41 51.42 199.839 50.7434 200.388 50.1623C200.937 49.5736 201.625 49.1072 202.452 48.7632C203.287 48.4191 204.196 48.2471 205.178 48.2471C206.484 48.2471 207.636 48.5452 208.634 49.1416C209.639 49.7303 210.396 50.5064 210.907 51.4697C211.425 52.4254 211.684 53.4805 211.684 54.635C211.684 55.4837 211.533 56.2941 211.231 57.0663C210.93 57.8309 210.505 58.5075 209.956 59.0962C209.415 59.6773 208.73 60.1399 207.903 60.4839C207.076 60.828 206.167 61 205.178 61C204.381 61 203.635 60.8891 202.939 60.6674C202.244 60.438 201.637 60.1246 201.119 59.727C200.601 59.3294 200.152 58.8669 199.773 58.3393C199.395 57.8041 199.109 57.2231 198.915 56.5961C198.73 55.9615 198.637 55.3078 198.637 54.635ZM205.178 58.3278C206.098 58.3278 206.867 57.9762 207.486 57.2728C208.112 56.5694 208.425 55.6825 208.425 54.6121C208.425 53.5493 208.112 52.6701 207.486 51.9743C206.867 51.2786 206.098 50.9307 205.178 50.9307C204.258 50.9307 203.485 51.2824 202.858 51.9858C202.232 52.6892 201.919 53.5723 201.919 54.635C201.919 55.7054 202.228 56.5885 202.847 57.2842C203.473 57.98 204.25 58.3278 205.178 58.3278Z" fill="#7062AA"/>
<path d="M223.687 44.0955H227.015L233.208 60.7706H229.833L228.268 56.619H222.376L220.834 60.7706H217.459L223.687 44.0955ZM227.676 54.3368L225.345 47.4557L222.921 54.3368H227.676Z" fill="#7062AA"/>
<path d="M237.534 58.6375V60.7706H234.751V43.6253H237.928V50.621C238.377 49.8641 238.964 49.2792 239.691 48.8664C240.426 48.4535 241.264 48.2471 242.208 48.2471C243.259 48.2471 244.202 48.5414 245.037 49.1301C245.88 49.7189 246.526 50.5025 246.974 51.4812C247.423 52.4522 247.647 53.5149 247.647 54.6694C247.647 55.8392 247.395 56.9096 246.893 57.8806C246.39 58.8439 245.691 59.6047 244.794 60.1628C243.905 60.7209 242.915 61 241.825 61C240.889 61 240.047 60.7936 239.297 60.3807C238.555 59.9602 237.967 59.3791 237.534 58.6375ZM244.388 54.6923C244.388 53.6678 244.079 52.7848 243.46 52.0431C242.842 51.3015 242.068 50.9307 241.141 50.9307C240.46 50.9307 239.83 51.1562 239.25 51.6073C238.678 52.0584 238.238 52.6318 237.928 53.3276V56.2635C238.137 56.8675 238.535 57.3645 239.123 57.7544C239.71 58.1367 240.317 58.3278 240.944 58.3278C241.941 58.3278 242.764 57.9762 243.414 57.2728C244.063 56.5617 244.388 55.7016 244.388 54.6923Z" fill="#7062AA"/>
<path d="M248.946 57.1351C248.946 55.9424 249.44 54.9791 250.43 54.2451C251.42 53.5034 252.707 53.1326 254.292 53.1326C255.483 53.1326 256.48 53.297 257.284 53.6258V52.9721C257.284 52.1846 257.048 51.5806 256.577 51.1601C256.113 50.7395 255.421 50.5293 254.501 50.5293C253.836 50.5293 253.202 50.644 252.599 50.8733C251.996 51.0951 251.335 51.4429 250.616 51.917L249.583 49.8527C251.246 48.7823 252.997 48.2471 254.837 48.2471C256.615 48.2471 257.995 48.6867 258.977 49.5659C259.967 50.4452 260.462 51.6991 260.462 53.3276V57.2498C260.462 57.5862 260.52 57.8271 260.636 57.9723C260.752 58.1099 260.949 58.1902 261.227 58.2132V60.7706C260.694 60.8777 260.241 60.9312 259.87 60.9312C259.259 60.9312 258.784 60.8012 258.444 60.5413C258.111 60.2737 257.906 59.9181 257.829 59.4747L257.759 58.8439C257.226 59.5244 256.553 60.0558 255.742 60.438C254.938 60.8127 254.114 61 253.271 61C252.027 61 250.994 60.633 250.175 59.899C249.355 59.165 248.946 58.2437 248.946 57.1351ZM256.693 57.7659C257.087 57.376 257.284 57.0166 257.284 56.6879V55.4378C256.472 55.109 255.641 54.9447 254.791 54.9447C253.956 54.9447 253.275 55.1243 252.75 55.4837C252.224 55.8354 251.961 56.2979 251.961 56.8714C251.961 57.3683 252.162 57.8003 252.564 58.1673C252.966 58.5266 253.503 58.7063 254.176 58.7063C254.648 58.7063 255.108 58.6222 255.556 58.454C256.012 58.2782 256.391 58.0488 256.693 57.7659Z" fill="#7062AA"/>
<path d="M269.241 61C268.259 61 267.35 60.828 266.515 60.4839C265.68 60.1322 264.985 59.6658 264.428 59.0848C263.871 58.4961 263.434 57.8156 263.117 57.0434C262.808 56.2712 262.654 55.4607 262.654 54.6121C262.654 53.4576 262.913 52.4025 263.431 51.4468C263.956 50.4911 264.722 49.7189 265.727 49.1301C266.74 48.5414 267.903 48.2471 269.218 48.2471C270.532 48.2471 271.676 48.53 272.65 49.0957C273.624 49.6615 274.355 50.4299 274.842 51.4009L271.734 52.3413C271.471 51.8979 271.116 51.5538 270.667 51.3092C270.219 51.0568 269.728 50.9307 269.194 50.9307C268.267 50.9307 267.49 51.2747 266.863 51.9629C266.245 52.651 265.936 53.534 265.936 54.6121C265.936 55.6748 266.253 56.5617 266.887 57.2728C267.52 57.9762 268.29 58.3278 269.194 58.3278C269.759 58.3278 270.281 58.1902 270.76 57.915C271.247 57.6397 271.587 57.2919 271.781 56.8714L274.889 57.8118C274.448 58.7675 273.729 59.5397 272.731 60.1284C271.734 60.7095 270.571 61 269.241 61Z" fill="#7062AA"/>
<path d="M275.99 57.1351C275.99 55.9424 276.485 54.9791 277.475 54.2451C278.464 53.5034 279.752 53.1326 281.337 53.1326C282.527 53.1326 283.525 53.297 284.329 53.6258V52.9721C284.329 52.1846 284.093 51.5806 283.621 51.1601C283.157 50.7395 282.465 50.5293 281.545 50.5293C280.88 50.5293 280.246 50.644 279.643 50.8733C279.04 51.0951 278.379 51.4429 277.66 51.917L276.628 49.8527C278.29 48.7823 280.042 48.2471 281.882 48.2471C283.66 48.2471 285.04 48.6867 286.022 49.5659C287.012 50.4452 287.506 51.6991 287.506 53.3276V57.2498C287.506 57.5862 287.564 57.8271 287.68 57.9723C287.796 58.1099 287.993 58.1902 288.272 58.2132V60.7706C287.738 60.8777 287.286 60.9312 286.915 60.9312C286.304 60.9312 285.829 60.8012 285.488 60.5413C285.156 60.2737 284.951 59.9181 284.874 59.4747L284.804 58.8439C284.271 59.5244 283.598 60.0558 282.786 60.438C281.982 60.8127 281.159 61 280.316 61C279.071 61 278.039 60.633 277.22 59.899C276.4 59.165 275.99 58.2437 275.99 57.1351ZM283.737 57.7659C284.132 57.376 284.329 57.0166 284.329 56.6879V55.4378C283.517 55.109 282.686 54.9447 281.835 54.9447C281 54.9447 280.32 55.1243 279.794 55.4837C279.268 55.8354 279.006 56.2979 279.006 56.8714C279.006 57.3683 279.207 57.8003 279.609 58.1673C280.011 58.5266 280.548 58.7063 281.221 58.7063C281.692 58.7063 282.152 58.6222 282.601 58.454C283.057 58.2782 283.436 58.0488 283.737 57.7659Z" fill="#7062AA"/>
<path d="M292.528 48.465L295.137 52.3184L295.334 52.7427L295.566 52.3184L298.153 48.465H301.504L297.178 54.5891L301.574 60.7706H298.234L295.543 56.9402L295.334 56.5388L295.137 56.9402L292.482 60.7706H289.13L293.525 54.6694L289.2 48.465H292.528Z" fill="#7062AA"/>
<path d="M303.105 46.7447V43.6253H306.282V46.7447H303.105ZM303.105 60.7706V48.465H306.282V60.7706H303.105Z" fill="#7062AA"/>
</svg>
