<svg width="1092" height="388" viewBox="0 0 1092 388" fill="none" xmlns="http://www.w3.org/2000/svg">
<path d="M234.505 267.569L216.915 266.667L216.772 266.38L216.623 261.186C216.064 254.779 213.772 248.478 205.568 249.35C196.959 250.264 197.487 259.165 196.959 265.256C196.922 265.712 196.978 266.181 196.965 266.643L196.86 266.737L179.227 267.856C179.171 265.636 179.301 263.399 179.233 261.174C179.227 260.875 179.09 260.606 179.078 260.336C178.935 256.524 179.618 250.908 173.531 252.161C170.022 252.882 167.506 255.909 167.295 259.206C167.084 262.503 167.413 265.876 167.432 269.103L154.929 270.889C154.774 270.778 154.32 268.184 154.24 267.744C153.91 266.07 153.774 264.125 153.383 262.515C152.128 257.338 145.662 262.872 142.582 263.44C140.066 263.909 142.954 261.303 143.631 260.776C149.24 256.413 160.302 251.892 167.233 249.596C198.394 239.26 232.443 241.31 261.517 255.962C264.405 257.414 267.399 258.779 269.821 260.91C270.324 261.35 271.579 262.591 271.753 263.165C271.846 263.469 271.541 263.376 271.386 263.37C268.982 263.288 266.02 261.068 263.747 260.459C261.473 259.85 260.684 260.858 260.063 262.808C259.337 265.08 259.275 267.68 258.771 270.017L258.554 270.245L246.194 268.582C246.306 263.827 247.387 259.347 244.554 255.095C242.728 252.355 237.244 250.393 235.281 253.912C234.871 254.644 234.511 255.81 234.511 256.559V267.586L234.505 267.569Z" fill="#F5AE37"/>
<path d="M187.835 230.101C197.605 228.854 196.643 242.961 187.686 241.128C181.202 239.805 181.798 230.874 187.835 230.101Z" fill="#F5AE37"/>
<path d="M223.592 230.101C228.157 229.515 231.816 233.269 230.338 237.445C228.828 241.696 222.773 242.569 219.903 238.985C217.344 235.787 219.344 230.646 223.592 230.101Z" fill="#F5AE37"/>
<path d="M248.207 185.255L243.816 193.957L232.269 182.017C233.257 181.911 234.288 181.519 235.282 181.63L248.207 185.249V185.255Z" fill="#1589AB"/>
<path d="M187.568 200.001C191.444 198.197 195.91 198.133 199.761 200.024L199.748 202.847L197.326 206.319H187.568V200.001ZM189.357 202.249C189.5 202.337 192.227 202.249 192.711 202.249C192.985 202.249 193.096 201.453 192.531 201.295C192.239 201.213 189.904 201.213 189.612 201.295C189.134 201.43 189.177 202.138 189.357 202.249ZM198.003 202.249C198.14 201.875 198.264 201.441 197.748 201.295C197.456 201.213 195.121 201.213 194.829 201.295C194.264 201.453 194.376 202.249 194.649 202.249H198.003Z" fill="#1589AB"/>
<path d="M158.327 239.928C164.693 238.909 165.401 247.5 159.768 248.027C154.134 248.554 153.364 240.724 158.327 239.928Z" fill="#F5AE37"/>
<path d="M253.536 239.928C259.765 239.008 260.598 247.488 254.828 248.027C249.058 248.566 248.449 240.677 253.536 239.928Z" fill="#F5AE37"/>
<path d="M214.536 141.422L220.344 132.714L221.536 138.33C219.462 138.049 218.22 139.56 218.853 141.422H214.53H214.536Z" fill="#F5AE37"/>
<path d="M237.15 151.846C239.366 151.559 239.546 154.54 237.975 154.879C235.394 155.436 234.978 152.127 237.15 151.846Z" fill="#F5AE37"/>
<path d="M238.976 195.222L237.48 190.168L241.347 194.455C241.452 194.894 239.361 195.199 238.97 195.222H238.976Z" fill="#1589AB"/>
<path d="M226.605 130.184C226.549 130.6 226.946 131.051 226.605 131.379L221.536 133.979L221.412 132.878L226.598 130.184H226.605Z" fill="#F5AE37"/>
<path d="M220.35 62.1185C217.512 54.4705 214.083 46.7111 209.245 40C205.028 45.8503 201.748 52.456 199.078 59.0675C195.898 66.944 193.351 75.3182 191.363 83.5461C190.606 86.6674 186.966 103.07 186.966 103.07C193.78 110.367 200.81 117.599 206.667 125.657L209.313 129.692C211.406 125.376 214.748 121.47 218.027 117.892C222.226 113.307 226.86 109.061 231.586 104.968C231.71 103.24 224.301 72.8001 220.344 62.1244L220.35 62.1185Z" fill="#F5AE37"/>
<path d="M226.567 136.111C228.199 135.648 228.758 138.096 227.095 138.301C225.686 138.477 225.276 136.474 226.567 136.111Z" fill="#F5AE37"/>
<path d="M220.455 139.343C222.602 138.875 222.435 142.008 220.337 141.358C219.487 141.094 219.512 139.548 220.455 139.343Z" fill="#F5AE37"/>
<path d="M225.338 155.471C225.438 155.518 225.438 155.566 225.338 155.613V155.471Z" fill="#F5AE37"/>
<path d="M365.769 316.737L365.564 317C338.621 304.199 309.733 294.741 280.132 288.961C205.91 274.467 128.7 283.058 60.2855 313.24C57.5216 314.459 54.8198 315.887 52 316.947C65.7264 307.818 80.5894 300.012 95.999 293.669C179.196 259.446 280.597 265.373 357.273 311.478C360.13 313.194 362.894 315.062 365.776 316.737H365.769Z" fill="#8BBF4B"/>
<path d="M237.3 129.101C242.654 129.03 244.2 136.128 239.219 137.937C231.797 140.637 229.797 129.2 237.3 129.101ZM237.288 130.658C232.35 130.729 233.735 138.353 238.635 136.532C241.884 135.326 240.915 130.606 237.288 130.658Z" fill="white"/>
<path d="M254.747 126.553C254.859 126.618 254.921 127.121 254.909 127.285C254.859 127.924 253.815 132.333 253.554 132.761C252.629 134.26 250.331 133.469 250.586 131.654C250.735 130.594 252.449 130.02 253.275 130.887L253.722 128.779L249.492 129.183C249.002 130.243 249.064 133.499 247.66 133.803C244.455 134.494 244.971 129.604 248.213 131.162C248.443 130.459 248.803 127.356 249.263 127.028C249.573 126.805 254.48 126.389 254.747 126.547V126.553ZM254.02 127.233C253.12 127.531 250.455 127.291 249.797 127.648C249.586 127.76 249.741 128.158 249.704 128.357L253.778 128.082L254.027 127.233H254.02ZM252.045 131.191C251.219 131.314 251.058 132.491 251.741 132.685C253.424 133.159 253.213 131.022 252.045 131.191ZM246.461 132.96C247.151 133.61 248.548 132.573 247.611 131.806C246.673 131.039 245.834 132.368 246.461 132.96Z" fill="white"/>
<path d="M241.356 123.163C241.4 123.116 241.449 122.103 241.505 121.898C240.859 122.085 238.965 121.827 238.71 122.419C238.375 123.192 238.605 125.119 237.4 125.265C235.928 125.441 235.549 123.303 237.269 123.286C237.524 123.286 237.909 123.461 237.934 123.444C238.176 123.274 238.195 120.861 238.785 120.662C239.922 120.58 241.269 120.27 242.344 120.486C242.48 120.668 241.785 123.766 241.623 124.182C240.89 126.067 238.536 124.357 239.797 123.303C240.456 122.753 241.313 123.227 241.362 123.168L241.356 123.163ZM241.803 120.914C241.425 120.99 239.071 120.955 238.971 121.054C238.934 121.09 238.996 121.476 238.971 121.617C239.741 121.505 240.654 121.558 241.394 121.441C241.803 121.377 241.853 121.324 241.803 120.92V120.914ZM240.567 123.467C239.772 123.526 239.915 124.568 240.543 124.574C241.238 124.574 241.201 123.42 240.567 123.467ZM236.779 124.668C237.213 125.078 238.17 124.533 237.648 123.918C237.127 123.303 236.269 124.187 236.779 124.668Z" fill="white"/>
<path d="M228.242 190.45L227.125 189.05C227.249 189.308 228.54 190.286 228.54 190.379V193.963C227.857 194.139 228.223 193.589 228.012 193.53C227.907 193.501 226.951 193.518 226.908 193.553C226.833 193.618 226.988 193.916 226.827 193.963C226.237 194.121 226.579 193.577 226.374 193.53C226.262 193.507 225.437 193.507 225.344 193.53C225.133 193.583 225.499 194.139 224.816 193.963V190.379C224.816 190.327 225.387 189.876 225.486 189.753L225.555 189.817C225.368 190.034 225.058 190.157 225.114 190.45H228.242Z" fill="white"/>
<path d="M181.537 179.352C180.929 179.253 181.053 178.368 181.537 178.368H187.351C187.699 178.368 187.885 179.182 187.351 179.352C185.606 179.153 183.202 179.616 181.537 179.352Z" fill="white"/>
<path d="M187.22 156.051C187.959 155.817 190.171 156.59 191.071 156.59C191.972 156.59 194.624 155.711 195.257 156.156C195.773 156.525 195.245 157.017 194.767 157.122C193.91 157.31 191.624 157.609 190.767 157.579C190.344 157.562 187.301 157.076 187.121 156.947C186.866 156.765 186.885 156.156 187.22 156.051Z" fill="white"/>
<path d="M178.885 156.9C179.476 156.742 181.221 157.403 181.979 157.409C182.885 157.415 185.357 156.537 186.016 157.005C186.308 157.21 186.295 157.515 186.016 157.725C185.736 157.936 182.376 158.44 181.836 158.428C181.295 158.416 179.326 158.094 178.879 157.837C178.389 157.561 178.333 157.046 178.892 156.894L178.885 156.9Z" fill="white"/>
<path d="M175.928 202.226C175.835 202.279 174.873 202.279 174.786 202.226C174.308 201.945 174.817 200.879 175.804 201.336C176.157 201.5 176.145 202.097 175.928 202.226Z" fill="white"/>
<path d="M180.518 201.289C181.151 201.084 181.834 201.477 181.549 202.121C180.673 202.771 179.538 201.605 180.518 201.289Z" fill="white"/>
<path d="M184.269 201.424C184.89 202.355 182.656 202.689 182.972 201.641C183.127 201.143 184.12 201.201 184.269 201.424Z" fill="white"/>
<path d="M178.76 201.424C179.381 202.355 177.146 202.689 177.463 201.641C177.618 201.143 178.611 201.201 178.76 201.424Z" fill="white"/>
<path d="M202.959 137.615C201.761 136.081 200.785 134.389 199.643 132.819C199.419 132.515 198.73 131.525 198.053 130.67C197.99 130.401 197.91 130.149 197.823 129.991C197.469 129.306 195.065 126.542 194.338 126.161C194.382 126.167 194.425 126.167 194.475 126.184C194.587 126.096 193.984 125.4 193.879 125.277C187.736 118.021 178.916 110.666 170.581 105.735C157.159 97.7939 139.613 92.7576 123.651 94.8834C123.34 94.9244 121.47 95.1704 121.47 95.3577C136.594 109.079 162.327 144.672 162.327 144.672C162.32 144.672 162.308 144.672 162.302 144.666C162.252 144.912 162.768 145.896 162.929 145.931C162.942 145.931 162.973 145.937 163.01 145.943L163.619 147.067C163.581 147.085 163.563 147.102 163.569 147.12C163.594 147.202 164.277 148.385 164.345 148.426C164.345 148.426 164.358 148.426 164.358 148.432L165.743 150.979L165.948 151.401C165.948 151.401 165.96 151.401 165.966 151.401L168.283 155.67L170.712 160.46C178.854 162.685 185.947 167.218 192.68 171.915C193.096 169.309 193.972 166.796 194.922 164.331C195.053 163.991 195.183 163.74 195.27 163.511C198.183 156.279 201.934 149.375 205.779 142.558H205.99L202.928 137.621L202.959 137.615Z" fill="#1A9D5B"/>
<path d="M198 202.249H194.649C194.376 202.249 194.264 201.453 194.829 201.295C195.12 201.213 197.454 201.213 197.746 201.295C198.261 201.441 198.137 201.875 198 202.249Z" fill="white"/>
<path d="M189.357 202.249C189.177 202.138 189.134 201.43 189.611 201.295C189.903 201.213 192.237 201.213 192.528 201.295C193.093 201.453 192.981 202.249 192.708 202.249C192.224 202.249 189.5 202.337 189.357 202.249Z" fill="white"/>
<path d="M237.288 130.659C240.915 130.606 241.884 135.326 238.636 136.532C233.735 138.354 232.356 130.729 237.288 130.659Z" fill="#F5AE37"/>
<path d="M254.02 127.233L253.772 128.082L249.697 128.357C249.735 128.158 249.579 127.76 249.791 127.649C250.449 127.291 253.114 127.532 254.014 127.233H254.02Z" fill="#F5AE37"/>
<path d="M252.045 131.192C253.211 131.022 253.429 133.159 251.74 132.685C251.058 132.492 251.213 131.314 252.045 131.192Z" fill="#F5AE37"/>
<path d="M246.461 132.96C245.834 132.369 246.71 131.069 247.609 131.807C248.509 132.544 247.15 133.61 246.461 132.96Z" fill="#F5AE37"/>
<path d="M241.801 120.914C241.857 121.317 241.801 121.37 241.391 121.434C240.653 121.551 239.734 121.504 238.971 121.609C238.996 121.475 238.934 121.083 238.971 121.048C239.07 120.949 241.422 120.984 241.801 120.908V120.914Z" fill="#F5AE37"/>
<path d="M236.778 124.668C236.27 124.188 237.101 123.274 237.647 123.918C238.193 124.562 237.213 125.078 236.778 124.668Z" fill="#F5AE37"/>
<path d="M240.567 123.467C241.2 123.42 241.231 124.574 240.542 124.574C239.915 124.574 239.779 123.532 240.567 123.467Z" fill="#F5AE37"/>
<path d="M282.43 89.6714C259.604 93.0035 241.101 107.263 227.207 123.859C225.71 125.651 224.288 127.502 222.878 129.358C222.307 130.108 221.741 130.857 221.17 131.601C221.04 131.689 220.965 131.742 220.965 131.742L213.487 143.179L213.499 143.208C207.139 153.322 201.972 164.097 197.705 175.147L209.27 186.567C209.475 186.602 209.717 186.286 209.847 186.157C211.22 184.816 212.475 183.076 213.866 181.659C219.592 175.838 226.319 170.62 233.313 166.205C233.313 166.205 233.313 166.205 233.313 166.193L240.176 161.836C240.176 161.836 240.176 161.842 240.176 161.848L247.076 158.17L251.753 155.91C253.505 152.062 263.852 134.067 266.896 129.663C276.579 115.655 288.051 102.83 300.361 90.8368C300.82 90.3859 301.733 90.0755 301.709 89.3669C295.268 88.7579 288.846 88.7344 282.442 89.6714H282.43Z" fill="#E36935"/>
<path d="M194.668 204.762C194.612 204.885 194.531 204.996 194.444 205.101L194.686 204.803C194.351 205.213 194.015 205.611 193.748 206.062C193.481 206.513 193.264 206.993 193.078 207.479C193.015 207.672 193.003 207.866 193.053 208.065C193.065 208.258 193.121 208.439 193.239 208.609C193.425 208.914 193.798 209.201 194.165 209.283C194.562 209.371 195.009 209.347 195.363 209.136L195.68 208.908C195.873 208.726 196.003 208.51 196.078 208.264C196.121 208.147 196.171 208.03 196.22 207.912L196.065 208.264C196.307 207.725 196.618 207.216 196.997 206.747L196.755 207.046C196.966 206.788 197.214 206.548 197.357 206.249C197.469 206.079 197.531 205.898 197.543 205.705C197.587 205.511 197.581 205.318 197.518 205.119C197.419 204.779 197.14 204.41 196.804 204.247C196.444 204.065 196.009 203.977 195.605 204.1C195.245 204.211 194.835 204.434 194.68 204.774L194.668 204.762Z" fill="#F5AE37"/>
<path d="M194.518 205.464C194.518 205.464 194.518 205.494 194.518 205.505L194.574 205.119C194.574 205.119 194.568 205.16 194.556 205.183L194.711 204.832C194.686 204.89 194.643 204.943 194.605 204.99L194.847 204.691C194.692 204.879 194.5 205.031 194.313 205.183C194.22 205.259 194.133 205.336 194.046 205.417C194.003 205.458 193.959 205.505 193.922 205.546C193.804 205.687 193.68 205.827 193.574 205.974C193.462 206.144 193.4 206.325 193.388 206.518C193.344 206.712 193.351 206.905 193.413 207.104C193.462 207.297 193.556 207.461 193.692 207.602C193.804 207.76 193.947 207.889 194.127 207.977L194.5 208.123C194.773 208.193 195.052 208.193 195.326 208.123L195.698 207.977C195.934 207.848 196.115 207.672 196.257 207.45C196.282 207.414 196.307 207.385 196.332 207.356L196.09 207.655C196.264 207.444 196.493 207.274 196.705 207.098C196.81 207.01 196.91 206.923 196.997 206.823C197.102 206.706 197.195 206.589 197.288 206.466C197.313 206.436 197.338 206.407 197.357 206.372C197.444 206.243 197.512 206.073 197.556 205.945C197.556 205.927 197.562 205.909 197.568 205.892L197.624 205.505C197.624 205.505 197.624 205.476 197.624 205.464C197.63 205.265 197.587 205.072 197.487 204.902C197.425 204.721 197.319 204.562 197.164 204.434C197.021 204.293 196.86 204.188 196.667 204.129C196.481 204.035 196.282 203.994 196.071 204L195.661 204.053C195.4 204.123 195.17 204.246 194.978 204.428L194.736 204.726C194.593 204.955 194.525 205.201 194.525 205.464H194.518Z" fill="#F5AE37"/>
<path d="M195.231 204.662C195.231 204.662 195.2 204.668 195.182 204.674C195.058 204.72 194.921 204.773 194.797 204.826C194.791 204.826 194.778 204.832 194.772 204.838C194.76 204.843 194.747 204.849 194.735 204.861C194.617 204.937 194.505 205.025 194.394 205.113C194.338 205.154 194.294 205.201 194.251 205.253C194.071 205.476 193.891 205.698 193.717 205.921C193.605 206.091 193.543 206.272 193.531 206.466C193.487 206.659 193.494 206.852 193.556 207.051C193.605 207.244 193.699 207.408 193.835 207.549C193.947 207.707 194.089 207.836 194.269 207.924L194.642 208.07C194.915 208.14 195.194 208.14 195.467 208.07L195.84 207.924C196.075 207.795 196.255 207.619 196.398 207.397C196.491 207.274 196.584 207.151 196.684 207.028L196.442 207.326C196.485 207.274 196.535 207.221 196.597 207.174L196.28 207.402C196.28 207.402 196.336 207.367 196.367 207.356L195.995 207.502C195.995 207.502 196.038 207.49 196.057 207.484C196.262 207.438 196.435 207.35 196.584 207.221C196.752 207.116 196.888 206.981 196.982 206.811C197.093 206.641 197.155 206.46 197.168 206.266C197.211 206.073 197.205 205.88 197.143 205.681L196.988 205.329C196.851 205.107 196.665 204.937 196.429 204.802L196.057 204.656C195.784 204.586 195.505 204.586 195.231 204.656V204.662Z" fill="#F5AE37"/>
<path d="M193.934 205.922C193.934 205.922 193.922 205.957 193.916 205.974L194.071 205.623C194.052 205.664 194.027 205.705 193.996 205.74L194.238 205.441C194.214 205.476 194.183 205.506 194.145 205.529C193.996 205.664 193.885 205.816 193.823 205.998C193.723 206.173 193.68 206.361 193.686 206.56C193.68 206.759 193.723 206.952 193.823 207.122C193.885 207.304 193.99 207.462 194.145 207.59L194.462 207.819C194.704 207.954 194.965 208.018 195.244 208.018L195.653 207.965C195.914 207.895 196.144 207.772 196.336 207.59C196.361 207.573 196.38 207.555 196.398 207.538C196.411 207.526 196.417 207.52 196.423 207.509C196.504 207.415 196.591 207.304 196.671 207.21C196.671 207.21 196.671 207.21 196.678 207.204C196.678 207.204 196.684 207.192 196.69 207.186C196.709 207.163 196.721 207.14 196.733 207.116C196.795 206.993 196.851 206.864 196.907 206.73C196.907 206.718 196.92 206.706 196.92 206.689C196.982 206.495 196.994 206.302 196.944 206.103C196.932 205.91 196.876 205.728 196.758 205.558C196.659 205.389 196.529 205.248 196.361 205.148C196.212 205.02 196.038 204.932 195.833 204.885L195.424 204.832C195.145 204.832 194.884 204.903 194.642 205.031L194.325 205.26C194.133 205.441 194.003 205.658 193.928 205.904L193.934 205.922Z" fill="#F5AE37"/>
<path d="M194.487 205.23C194.487 205.23 194.463 205.254 194.45 205.265L194.767 205.037C194.599 205.16 194.407 205.26 194.22 205.365C194.034 205.47 193.835 205.57 193.636 205.664C193.456 205.757 193.307 205.88 193.202 206.038C193.065 206.179 192.972 206.343 192.922 206.536C192.86 206.729 192.848 206.923 192.897 207.122C192.91 207.315 192.966 207.497 193.084 207.666L193.326 207.965C193.518 208.147 193.748 208.27 194.009 208.34L194.419 208.393C194.699 208.393 194.959 208.322 195.202 208.193C195.413 208.094 195.618 207.988 195.823 207.877C195.922 207.819 196.022 207.76 196.121 207.702C196.171 207.672 196.22 207.643 196.27 207.608C196.413 207.52 196.568 207.432 196.68 207.303C196.829 207.169 196.941 207.016 197.003 206.835C197.102 206.659 197.146 206.472 197.139 206.273C197.146 206.074 197.102 205.88 197.003 205.71C196.941 205.529 196.835 205.371 196.68 205.242L196.363 205.014C196.121 204.879 195.86 204.814 195.581 204.814L195.171 204.867C194.91 204.937 194.68 205.06 194.487 205.242V205.23Z" fill="#F5AE37"/>
<path d="M206.022 193.788C205.972 193.565 203.997 191.217 203.655 190.807C202.761 189.735 201.773 188.605 200.829 187.574C200.301 187 191.457 178.679 191.264 178.538L190.606 177.929C190.264 177.595 188.003 175.844 188.003 175.844C185.96 174.064 183.662 172.454 181.358 170.949C164.159 159.699 142.893 153.697 121.862 154.768C121.788 155.044 121.986 155.038 122.111 155.161C123.52 156.519 126.086 158.083 127.738 159.406C139.57 168.858 150.023 180.207 159.228 191.949C161.01 194.227 162.7 196.569 164.464 198.859C164.731 199.222 165.252 199.931 165.88 200.78C165.88 200.803 165.88 200.827 165.88 200.85L168.196 204.077V203.942C168.905 204.92 169.532 205.787 169.892 206.296L170.457 207.163H170.432L182.438 227.115L185.643 226.031C188.507 220.287 191.916 214.817 195.382 209.388C197.32 206.665 206.115 194.239 206.015 193.782L206.022 193.788ZM164.724 198.449V198.391L164.756 198.437L164.724 198.449Z" fill="#7466AB"/>
<path d="M197.81 214.143L197.276 214.981L198.033 215.215L199.367 214.02L197.81 214.143Z" fill="#1589AB"/>
<path d="M294.479 154.903C285.709 154.464 276.299 155.413 267.815 157.45C240.369 164.044 218.506 183.171 203.512 205.125H203.506L202.034 207.245C202.028 207.245 202.015 207.245 202.009 207.257L201.897 207.444L201.879 207.468L197.699 214.266C197.699 214.401 197.779 214.489 197.91 214.548C197.86 214.641 197.817 214.729 197.767 214.823H197.401C197.102 214.963 194.556 219.683 194.196 220.374C193.978 220.79 192.171 224.157 192.339 224.31C202.519 222.313 212.984 222.096 223.207 223.929C227.729 224.743 232.127 226.067 236.437 227.542L240.462 218.272L243.145 213.57L245.381 209.705L246.598 207.872C246.654 207.872 246.698 207.872 246.71 207.872C246.747 207.842 247.027 207.339 247.182 206.999L247.996 205.775C253.194 197.881 259.25 190.555 265.648 183.51C272.815 175.622 280.542 168.038 288.74 161.034C291.113 159.008 293.597 157.076 296.044 155.137C295.535 155.055 295.013 154.944 294.485 154.921L294.479 154.903ZM197.14 216.158C197.14 216.158 197.134 216.176 197.127 216.187C197.127 216.176 197.109 216.17 197.109 216.158C197.121 216.158 197.127 216.158 197.14 216.158ZM247.449 204.856L247.561 204.686L247.611 204.815L247.449 204.856Z" fill="#1589AB"/>
<path d="M465.615 186.154V169.123H434V156.479L470.051 111.116H479.747V156.325H489.03V169.123H479.747V186.154H465.615ZM448.286 156.325H467.162V132.482L448.286 156.325Z" fill="#7062AA"/>
<path d="M521.883 186.877C515.935 186.877 510.777 185.741 506.411 183.47C502.044 181.2 498.795 178.034 496.663 173.975L504.245 164.375C505.414 167.025 507.494 169.278 510.485 171.136C513.511 172.96 517.138 173.871 521.367 173.871C525.7 173.871 529.138 172.96 531.682 171.136C534.227 169.313 535.499 166.784 535.499 163.55C535.499 160.006 533.866 157.305 530.599 155.447C527.367 153.589 522.708 152.66 516.622 152.66H513.115V142.081H516.829C521.986 142.081 526.061 141.203 529.052 139.449C532.078 137.66 533.591 135.148 533.591 131.914C533.591 129.024 532.473 126.719 530.238 124.999C528.003 123.278 525.253 122.418 521.986 122.418C518.514 122.418 515.419 123.227 512.703 124.844C510.021 126.461 507.941 128.611 506.462 131.295L497.282 121.025C499.517 117.722 503.024 115.09 507.803 113.129C512.582 111.133 517.671 110.135 523.069 110.135C530.565 110.135 536.702 112.01 541.481 115.761C546.295 119.476 548.702 124.19 548.702 129.901C548.702 134.168 547.412 137.815 544.834 140.842C542.289 143.87 538.868 145.865 534.57 146.829C539.178 147.62 542.926 149.805 545.814 153.383C548.736 156.927 550.198 161.09 550.198 165.872C550.198 170.173 548.943 173.94 546.433 177.174C543.957 180.374 540.587 182.8 536.324 184.451C532.06 186.068 527.247 186.877 521.883 186.877Z" fill="#7062AA"/>
<path d="M569.951 109.619C573.114 109.619 575.71 110.617 577.738 112.613C579.801 114.608 580.833 117.102 580.833 120.096C580.833 123.433 579.819 126.134 577.79 128.198C575.761 130.263 573.148 131.295 569.951 131.295C566.822 131.295 564.243 130.245 562.214 128.147C560.186 126.048 559.172 123.364 559.172 120.096C559.172 117.102 560.186 114.608 562.214 112.613C564.277 110.617 566.856 109.619 569.951 109.619ZM567.114 117.67C566.392 118.53 566.031 119.476 566.031 120.509C566.031 121.541 566.392 122.418 567.114 123.141C568.111 124.001 569.057 124.431 569.951 124.431C571.12 124.431 572.065 124.001 572.787 123.141C573.509 122.418 573.87 121.541 573.87 120.509C573.87 119.476 573.509 118.53 572.787 117.67C572.1 116.879 571.154 116.483 569.951 116.483C568.953 116.483 568.008 116.879 567.114 117.67Z" fill="#7062AA"/>
<path d="M592.901 186.154V111.116H643.238V123.915H607.445V143.268H637.255V155.086H607.445V186.154H592.901Z" fill="#7062AA"/>
<path d="M674.544 187.186C668.767 187.186 663.627 185.879 659.123 183.264C654.619 180.649 651.198 177.209 648.86 172.942C646.522 168.642 645.353 163.928 645.353 158.802C645.353 153.538 646.522 148.721 648.86 144.352C651.198 139.948 654.619 136.421 659.123 133.772C663.627 131.123 668.802 129.798 674.647 129.798C679.048 129.798 683.071 130.572 686.715 132.12C690.394 133.669 693.437 135.767 695.844 138.417C698.285 141.031 700.159 144.042 701.466 147.448C702.807 150.854 703.477 154.45 703.477 158.234C703.477 160.195 703.374 161.778 703.168 162.982H660.361C660.705 167.18 662.286 170.551 665.106 173.097C667.925 175.609 671.243 176.865 675.06 176.865C677.913 176.865 680.578 176.177 683.054 174.8C685.564 173.39 687.266 171.566 688.16 169.33L700.28 172.736C698.217 177.071 694.899 180.563 690.326 183.212C685.787 185.862 680.526 187.186 674.544 187.186ZM660.051 154.002H688.985C688.572 149.839 687.008 146.485 684.291 143.939C681.61 141.358 678.326 140.068 674.441 140.068C670.624 140.068 667.358 141.358 664.642 143.939C661.925 146.519 660.395 149.874 660.051 154.002Z" fill="#7062AA"/>
<path d="M732.462 187.186C727.683 187.186 723.144 186.395 718.846 184.812C714.549 183.23 710.887 180.959 707.861 178L712.915 168.814C719.517 174.043 725.861 176.658 731.946 176.658C734.731 176.658 736.932 176.159 738.548 175.162C740.198 174.129 741.023 172.65 741.023 170.723C741.023 170.276 740.972 169.88 740.869 169.536C740.8 169.158 740.628 168.814 740.353 168.504C740.112 168.16 739.889 167.868 739.683 167.627C739.476 167.386 739.115 167.145 738.599 166.904C738.084 166.629 737.654 166.423 737.31 166.285C736.966 166.113 736.416 165.907 735.66 165.666C734.903 165.39 734.302 165.201 733.855 165.098C733.442 164.96 732.737 164.754 731.74 164.479C730.743 164.169 729.969 163.928 729.419 163.756C726.703 162.896 724.468 162.122 722.715 161.434C720.995 160.746 719.311 159.937 717.66 159.008C716.01 158.079 714.738 157.099 713.844 156.067C712.95 155.034 712.228 153.813 711.678 152.402C711.162 150.992 710.904 149.375 710.904 147.551C710.904 142.115 712.95 137.78 717.041 134.546C721.133 131.312 726.565 129.695 733.339 129.695C741.625 129.695 748.553 132.31 754.123 137.539L748.399 146.519C742.897 142.287 737.654 140.171 732.668 140.171C730.193 140.171 728.147 140.619 726.531 141.513C724.915 142.408 724.107 143.87 724.107 145.9C724.107 147.723 724.829 149.082 726.273 149.977C727.717 150.837 730.348 151.8 734.164 152.867C737.224 153.761 739.648 154.536 741.436 155.189C743.224 155.809 745.063 156.6 746.955 157.563C748.88 158.527 750.324 159.542 751.287 160.608C752.284 161.64 753.092 162.913 753.711 164.427C754.33 165.941 754.639 167.696 754.639 169.691C754.639 175.127 752.628 179.411 748.605 182.542C744.617 185.638 739.236 187.186 732.462 187.186Z" fill="#7062AA"/>
<path d="M797.137 183.316C791.498 185.827 786.289 187.083 781.51 187.083C779.481 187.083 777.624 186.825 775.939 186.309C774.255 185.793 772.742 185.019 771.401 183.987C770.06 182.92 769.011 181.492 768.255 179.703C767.498 177.914 767.12 175.832 767.12 173.458V141.668H759.848V130.779H767.12V112.819H781.303V130.779H792.908V141.668H781.303V168.711C781.406 172.323 783.16 174.129 786.564 174.129C788.558 174.129 791.137 173.458 794.3 172.117L797.137 183.316Z" fill="#7062AA"/>
<path d="M804.512 123.037V109H818.643V123.037H804.512ZM804.512 186.154V130.779H818.643V186.154H804.512Z" fill="#7062AA"/>
<path d="M846.339 186.154L825.915 130.779H840.614L854.539 173.252L868.619 130.779H882.028L861.76 186.154H846.339Z" fill="#7062AA"/>
<path d="M884.143 169.794C884.143 164.427 886.343 160.092 890.744 156.789C895.146 153.452 900.87 151.783 907.919 151.783C913.214 151.783 917.649 152.523 921.225 154.002V151.061C921.225 147.517 920.176 144.799 918.079 142.907C916.016 141.014 912.939 140.068 908.847 140.068C905.89 140.068 903.071 140.584 900.389 141.616C897.707 142.614 894.767 144.18 891.57 146.313L886.98 137.023C894.372 132.206 902.16 129.798 910.343 129.798C918.251 129.798 924.388 131.776 928.755 135.733C933.156 139.69 935.357 145.332 935.357 152.66V170.31C935.357 171.824 935.614 172.908 936.13 173.562C936.646 174.181 937.523 174.542 938.76 174.645V186.154C936.388 186.636 934.377 186.877 932.726 186.877C930.01 186.877 927.895 186.292 926.383 185.122C924.904 183.918 923.993 182.318 923.649 180.322L923.34 177.484C920.967 180.546 917.976 182.937 914.366 184.657C910.79 186.343 907.128 187.186 903.38 187.186C897.845 187.186 893.254 185.535 889.61 182.232C885.965 178.929 884.143 174.783 884.143 169.794ZM918.595 172.633C920.348 170.878 921.225 169.261 921.225 167.782V162.156C917.615 160.677 913.919 159.937 910.137 159.937C906.423 159.937 903.397 160.746 901.059 162.363C898.721 163.945 897.552 166.027 897.552 168.607C897.552 170.844 898.446 172.788 900.234 174.439C902.022 176.056 904.412 176.865 907.403 176.865C909.5 176.865 911.546 176.486 913.54 175.729C915.569 174.938 917.254 173.906 918.595 172.633Z" fill="#7062AA"/>
<path d="M948.508 109H962.639V168.401C962.639 170.844 963.035 172.53 963.826 173.458C964.616 174.387 965.803 174.852 967.384 174.852C969.654 174.852 971.871 174.353 974.037 173.355L975.946 184.141C974.089 185.001 971.906 185.69 969.396 186.206C966.886 186.722 964.565 186.98 962.433 186.98C958.032 186.98 954.611 185.793 952.17 183.419C949.729 181.045 948.508 177.69 948.508 173.355V109Z" fill="#7062AA"/>
<path d="M434.309 287.254C434.309 281.99 435.358 277.174 437.455 272.804C439.553 268.435 442.493 264.977 446.275 262.431C450.091 259.885 454.355 258.612 459.065 258.612C463.019 258.612 466.63 259.592 469.896 261.553C473.197 263.48 475.81 266.061 477.735 269.295V237.814H491.918V299.124C491.918 300.638 492.159 301.722 492.64 302.375C493.122 302.995 493.964 303.356 495.167 303.459V314.968C492.726 315.45 490.715 315.69 489.133 315.69C486.623 315.69 484.526 315.071 482.841 313.832C481.191 312.559 480.262 310.891 480.056 308.826L479.85 305.369C477.856 308.775 475.122 311.407 471.649 313.265C468.177 315.088 464.498 316 460.612 316C455.593 316 451.071 314.727 447.048 312.181C443.026 309.635 439.897 306.177 437.662 301.808C435.427 297.404 434.309 292.553 434.309 287.254ZM477.735 294.686V281.474C476.566 278.412 474.606 275.849 471.856 273.785C469.139 271.72 466.354 270.688 463.501 270.688C459.34 270.688 455.885 272.374 453.134 275.746C450.384 279.083 449.008 283.04 449.008 287.616C449.008 292.226 450.452 296.114 453.34 299.279C456.263 302.41 459.925 303.975 464.326 303.975C467.076 303.975 469.758 303.098 472.371 301.343C475.019 299.554 476.807 297.335 477.735 294.686Z" fill="#7062AA"/>
<path d="M502.285 287.358C502.285 283.504 502.972 279.84 504.348 276.365C505.723 272.89 507.631 269.845 510.073 267.23C512.514 264.581 515.574 262.482 519.253 260.934C522.966 259.386 527.006 258.612 531.373 258.612C537.184 258.612 542.307 259.954 546.742 262.637C551.212 265.286 554.581 268.779 556.851 273.114C559.154 277.414 560.306 282.162 560.306 287.358C560.306 291.177 559.636 294.823 558.295 298.298C556.954 301.739 555.063 304.784 552.622 307.433C550.215 310.048 547.172 312.129 543.493 313.678C539.814 315.226 535.774 316 531.373 316C527.831 316 524.513 315.501 521.419 314.503C518.324 313.471 515.625 312.061 513.322 310.271C511.018 308.482 509.024 306.401 507.339 304.027C505.654 301.619 504.382 299.004 503.523 296.182C502.697 293.327 502.285 290.385 502.285 287.358ZM531.373 303.975C535.464 303.975 538.886 302.393 541.636 299.227C544.421 296.062 545.814 292.071 545.814 287.254C545.814 282.472 544.421 278.515 541.636 275.384C538.886 272.254 535.464 270.688 531.373 270.688C527.281 270.688 523.843 272.271 521.058 275.436C518.273 278.601 516.88 282.575 516.88 287.358C516.88 292.174 518.256 296.148 521.006 299.279C523.791 302.41 527.247 303.975 531.373 303.975Z" fill="#7062AA"/>
<path d="M613.686 239.93H628.488L656.029 314.968H641.02L634.058 296.286H607.858L600.998 314.968H585.99L613.686 239.93ZM631.427 286.016L621.061 255.051L610.282 286.016H631.427Z" fill="#7062AA"/>
<path d="M675.266 305.369V314.968H662.888V237.814H677.019V269.295C679.014 265.889 681.627 263.257 684.859 261.399C688.125 259.541 691.856 258.612 696.05 258.612C700.727 258.612 704.921 259.936 708.635 262.586C712.382 265.235 715.253 268.761 717.248 273.165C719.242 277.535 720.239 282.317 720.239 287.512C720.239 292.776 719.121 297.593 716.887 301.963C714.652 306.298 711.54 309.721 707.552 312.233C703.598 314.744 699.197 316 694.348 316C690.188 316 686.44 315.071 683.105 313.213C679.804 311.321 677.191 308.706 675.266 305.369ZM705.746 287.616C705.746 283.005 704.371 279.031 701.62 275.694C698.87 272.357 695.432 270.688 691.306 270.688C688.28 270.688 685.478 271.703 682.899 273.733C680.355 275.763 678.395 278.343 677.019 281.474V294.686C677.948 297.404 679.718 299.64 682.332 301.395C684.945 303.115 687.644 303.975 690.429 303.975C694.864 303.975 698.526 302.393 701.414 299.227C704.302 296.028 705.746 292.157 705.746 287.616Z" fill="#7062AA"/>
<path d="M726.015 298.608C726.015 293.241 728.216 288.906 732.617 285.603C737.018 282.266 742.743 280.597 749.791 280.597C755.086 280.597 759.522 281.337 763.097 282.816V279.874C763.097 276.331 762.049 273.613 759.951 271.72C757.888 269.828 754.811 268.882 750.72 268.882C747.763 268.882 744.943 269.398 742.261 270.43C739.579 271.428 736.64 272.993 733.442 275.126L728.852 265.837C736.244 261.02 744.032 258.612 752.215 258.612C760.123 258.612 766.261 260.59 770.627 264.547C775.028 268.503 777.229 274.146 777.229 281.474V299.124C777.229 300.638 777.487 301.722 778.002 302.375C778.518 302.995 779.395 303.356 780.633 303.459V314.968C778.26 315.45 776.249 315.69 774.599 315.69C771.882 315.69 769.768 315.105 768.255 313.936C766.776 312.731 765.865 311.132 765.521 309.136L765.212 306.298C762.84 309.36 759.848 311.751 756.238 313.471C752.662 315.157 749 316 745.253 316C739.717 316 735.127 314.349 731.482 311.046C727.838 307.743 726.015 303.597 726.015 298.608ZM760.467 301.447C762.221 299.692 763.097 298.075 763.097 296.595V290.97C759.487 289.491 755.791 288.751 752.009 288.751C748.296 288.751 745.27 289.559 742.932 291.177C740.594 292.759 739.425 294.841 739.425 297.421C739.425 299.657 740.319 301.601 742.107 303.253C743.894 304.87 746.284 305.678 749.275 305.678C751.373 305.678 753.419 305.3 755.413 304.543C757.441 303.752 759.126 302.72 760.467 301.447Z" fill="#7062AA"/>
<path d="M816.271 316C811.904 316 807.864 315.226 804.151 313.678C800.437 312.095 797.343 309.996 794.867 307.381C792.392 304.732 790.449 301.67 789.039 298.195C787.664 294.72 786.976 291.073 786.976 287.254C786.976 282.059 788.128 277.311 790.432 273.01C792.77 268.71 796.174 265.235 800.644 262.586C805.148 259.936 810.323 258.612 816.168 258.612C822.013 258.612 827.101 259.885 831.434 262.431C835.766 264.977 839.015 268.435 841.181 272.804L827.359 277.036C826.19 275.04 824.609 273.492 822.614 272.391C820.62 271.256 818.437 270.688 816.064 270.688C811.939 270.688 808.483 272.236 805.698 275.333C802.947 278.429 801.572 282.403 801.572 287.254C801.572 292.037 802.982 296.028 805.801 299.227C808.621 302.393 812.042 303.975 816.064 303.975C818.574 303.975 820.895 303.356 823.027 302.117C825.193 300.879 826.706 299.313 827.566 297.421L841.388 301.653C839.428 305.954 836.23 309.429 831.795 312.078C827.359 314.693 822.185 316 816.271 316Z" fill="#7062AA"/>
<path d="M846.287 298.608C846.287 293.241 848.488 288.906 852.889 285.603C857.29 282.266 863.015 280.597 870.063 280.597C875.358 280.597 879.793 281.337 883.369 282.816V279.874C883.369 276.331 882.321 273.613 880.223 271.72C878.16 269.828 875.083 268.882 870.991 268.882C868.034 268.882 865.215 269.398 862.533 270.43C859.851 271.428 856.912 272.993 853.714 275.126L849.124 265.837C856.516 261.02 864.304 258.612 872.487 258.612C880.395 258.612 886.533 260.59 890.899 264.547C895.3 268.503 897.501 274.146 897.501 281.474V299.124C897.501 300.638 897.759 301.722 898.274 302.375C898.79 302.995 899.667 303.356 900.905 303.459V314.968C898.532 315.45 896.521 315.69 894.87 315.69C892.154 315.69 890.04 315.105 888.527 313.936C887.048 312.731 886.137 311.132 885.793 309.136L885.484 306.298C883.111 309.36 880.12 311.751 876.51 313.471C872.934 315.157 869.272 316 865.525 316C859.989 316 855.399 314.349 851.754 311.046C848.109 307.743 846.287 303.597 846.287 298.608ZM880.739 301.447C882.493 299.692 883.369 298.075 883.369 296.595V290.97C879.759 289.491 876.063 288.751 872.281 288.751C868.567 288.751 865.542 289.559 863.204 291.177C860.866 292.759 859.697 294.841 859.697 297.421C859.697 299.657 860.591 301.601 862.378 303.253C864.166 304.87 866.556 305.678 869.547 305.678C871.645 305.678 873.69 305.3 875.685 304.543C877.713 303.752 879.398 302.72 880.739 301.447Z" fill="#7062AA"/>
<path d="M919.833 259.592L931.437 276.933L932.314 278.842L933.345 276.933L944.846 259.592H959.751L940.514 287.151L960.061 314.968H945.207L933.242 297.731L932.314 295.924L931.437 297.731L919.626 314.968H904.721L924.268 287.512L905.031 259.592H919.833Z" fill="#7062AA"/>
<path d="M966.869 251.851V237.814H981V251.851H966.869ZM966.869 314.968V259.592H981V314.968H966.869Z" fill="#7062AA"/>
</svg>
