<svg width="51" height="51" viewBox="0 0 51 51" fill="none" xmlns="http://www.w3.org/2000/svg">
<g filter="url(#filter0_d_93_34409)">
<circle cx="24.5" cy="24.5" r="19.5" fill="#3DD34E"/>
<path d="M24 32H15" stroke="white" stroke-width="2" stroke-linecap="round" stroke-linejoin="round"/>
<path d="M24 16.562V32.719C24 32.8708 24.0347 33.0207 24.1013 33.1573C24.1679 33.2938 24.2648 33.4133 24.3845 33.5068C24.5042 33.6003 24.6436 33.6653 24.7922 33.6968C24.9408 33.7284 25.0946 33.7257 25.242 33.689L32 32V17.562C31.9999 17.116 31.8508 16.6828 31.5763 16.3313C31.3018 15.9798 30.9177 15.7301 30.485 15.622L26.485 14.622C26.1902 14.5483 25.8826 14.5427 25.5854 14.6057C25.2882 14.6687 25.0092 14.7986 24.7697 14.9855C24.5301 15.1724 24.3363 15.4114 24.203 15.6844C24.0696 15.9574 24.0002 16.2581 24 16.562Z" stroke="white" stroke-width="2" stroke-linecap="round" stroke-linejoin="round"/>
<path d="M24 16H21C20.4696 16 19.9609 16.2107 19.5858 16.5858C19.2107 16.9609 19 17.4696 19 18V32" stroke="white" stroke-width="2" stroke-linecap="round" stroke-linejoin="round"/>
<path d="M27 24H27.01" stroke="white" stroke-width="2" stroke-linecap="round" stroke-linejoin="round"/>
<path d="M35 32H32" stroke="white" stroke-width="2" stroke-linecap="round" stroke-linejoin="round"/>
</g>
<defs>
<filter id="filter0_d_93_34409" x="0.2" y="0.2" width="50.6" height="50.6" filterUnits="userSpaceOnUse" color-interpolation-filters="sRGB">
<feFlood flood-opacity="0" result="BackgroundImageFix"/>
<feColorMatrix in="SourceAlpha" type="matrix" values="0 0 0 0 0 0 0 0 0 0 0 0 0 0 0 0 0 0 127 0" result="hardAlpha"/>
<feOffset dx="1" dy="1"/>
<feGaussianBlur stdDeviation="2.9"/>
<feComposite in2="hardAlpha" operator="out"/>
<feColorMatrix type="matrix" values="0 0 0 0 0 0 0 0 0 0 0 0 0 0 0 0 0 0 0.25 0"/>
<feBlend mode="normal" in2="BackgroundImageFix" result="effect1_dropShadow_93_34409"/>
<feBlend mode="normal" in="SourceGraphic" in2="effect1_dropShadow_93_34409" result="shape"/>
</filter>
</defs>
</svg>
