<svg width="39" height="39" viewBox="0 0 39 39" fill="none" xmlns="http://www.w3.org/2000/svg">
<circle cx="19.5" cy="19.5" r="19.5" fill="#EC6560"/>
<path d="M29.1668 20.7083C29.1668 26.75 24.9377 29.7708 19.911 31.5229C19.6478 31.6121 19.3619 31.6079 19.1014 31.5108C14.0627 29.7708 9.8335 26.75 9.8335 20.7083V12.25C9.8335 11.9295 9.9608 11.6222 10.1874 11.3956C10.414 11.169 10.7214 11.0417 11.0418 11.0417C13.4585 11.0417 16.4793 9.59168 18.5818 7.75501C18.8378 7.5363 19.1635 7.41614 19.5002 7.41614C19.8369 7.41614 20.1625 7.5363 20.4185 7.75501C22.5331 9.60376 25.5418 11.0417 27.9585 11.0417C28.279 11.0417 28.5863 11.169 28.8129 11.3956C29.0395 11.6222 29.1668 11.9295 29.1668 12.25V20.7083Z" stroke="white" stroke-width="2" stroke-linecap="round" stroke-linejoin="round"/>
<path d="M12.7041 27.8496C13.2197 26.4627 14.1474 25.2667 15.3625 24.4223C16.5776 23.578 18.0219 23.1256 19.5016 23.126C20.9813 23.1264 22.4255 23.5795 23.6401 24.4245C24.8548 25.2696 25.7818 26.466 26.2966 27.8533" stroke="white" stroke-width="2" stroke-linecap="round" stroke-linejoin="round"/>
<path d="M19.4998 23.125C22.1692 23.125 24.3332 20.9611 24.3332 18.2917C24.3332 15.6223 22.1692 13.4584 19.4998 13.4584C16.8305 13.4584 14.6665 15.6223 14.6665 18.2917C14.6665 20.9611 16.8305 23.125 19.4998 23.125Z" stroke="white" stroke-width="2" stroke-linecap="round" stroke-linejoin="round"/>
</svg>
