<svg width="64" height="3760" viewBox="0 0 64 3760" fill="none" xmlns="http://www.w3.org/2000/svg">
<mask id="mask0_622_2420" style="mask-type:alpha" maskUnits="userSpaceOnUse" x="0" y="0" width="64" height="3760">
<rect width="64" height="3760" fill="#D9D9D9"/>
</mask>
<g mask="url(#mask0_622_2420)">
<path d="M121.148 2065.45C114.04 2063.58 107.517 2060.28 101.917 2055.83L55.1641 2149.37H79.2027L85.3995 2136.98L121.148 2065.45Z" fill="#7062AA"/>
<path d="M0 2046.65V2068.15H53.3299L12.741 2149.37H36.7688L88.1127 2046.65H0Z" fill="#7062AA"/>
<path d="M24.4727 2089.09H0V2138.02L0.0108526 2138.05L24.4727 2089.09Z" fill="#7062AA"/>
<path d="M82.1329 2014.96C82.1329 2011.27 82.5235 2007.67 83.2615 2004.2H0V2025.7H83.2615C82.5344 2022.23 82.1329 2018.64 82.1329 2014.96Z" fill="#7062AA"/>
<path d="M0 1806.98V1855.07V1855.06L53.3299 1961.76H0V1983.27H88.1127L0 1806.98Z" fill="#7062AA"/>
<path d="M0.0108526 1891.87L0 1891.89V1940.82H24.4727L0.0108526 1891.87Z" fill="#7062AA"/>
<path d="M121.148 1964.46L32.4494 1787C26.8603 1791.46 20.327 1794.76 13.2185 1796.62L85.063 1940.35L101.917 1974.07C107.506 1969.62 114.04 1966.32 121.148 1964.45V1964.46Z" fill="#7062AA"/>
<path d="M222.479 1777.83H46.2539L134.367 1954.12L222.479 1777.83ZM187.697 1799.34L134.367 1906.02L81.0367 1799.34H187.686H187.697Z" fill="#7062AA"/>
<path d="M216.5 1746.13C216.5 1742.44 216.89 1738.85 217.628 1735.37H51.116C51.8431 1738.85 52.2446 1742.44 52.2446 1746.13C52.2446 1749.82 51.8539 1753.42 51.116 1756.88H217.628C216.901 1753.4 216.5 1749.81 216.5 1746.13Z" fill="#7062AA"/>
<path d="M222.479 1714.44L171.135 1611.72H147.097L187.697 1692.93H81.0367L121.636 1611.72H97.5978L46.2539 1714.44H222.479Z" fill="#7062AA"/>
<path d="M32.4494 1705.27L79.2026 1611.72H55.164L13.2185 1695.65C20.327 1697.52 26.8494 1700.82 32.4494 1705.27Z" fill="#7062AA"/>
<path d="M36.7688 1611.72H12.741L0 1637.2V1685.28V1685.29L36.7688 1611.72Z" fill="#7062AA"/>
<path d="M13.2184 1796.62C20.3269 1794.76 26.8602 1791.46 32.4493 1787C41.8043 1779.56 48.5655 1768.99 51.1159 1756.88C51.843 1753.4 52.2445 1749.81 52.2445 1746.13C52.2445 1742.45 51.8539 1738.85 51.1159 1735.37C48.5764 1723.26 41.8043 1712.7 32.4602 1705.26C26.8711 1700.81 20.3378 1697.5 13.2293 1695.64C8.99674 1694.53 4.57971 1693.88 0.0107422 1693.88V1712.36C18.623 1712.36 33.7733 1727.5 33.7733 1746.13C33.7733 1764.76 18.6339 1779.9 0.0107422 1779.9V1798.38C4.57971 1798.38 8.99674 1797.73 13.2293 1796.62H13.2184Z" fill="#7062AA"/>
<path d="M21.5534 1746.13C21.5534 1734.24 11.8837 1724.57 0 1724.57V1740.81C2.93022 1740.81 5.3178 1743.2 5.3178 1746.13C5.3178 1749.06 2.93022 1751.45 0 1751.45V1767.69C11.8837 1767.69 21.5534 1758.02 21.5534 1746.13Z" fill="#7062AA"/>
<path d="M121.148 2602.45C114.04 2600.58 107.517 2597.28 101.917 2592.83L55.1641 2686.37H79.2027L85.3995 2673.98L121.148 2602.45Z" fill="#7062AA"/>
<path d="M0 2583.65V2605.15H53.3299L12.741 2686.37H36.7688L88.1127 2583.65H0Z" fill="#7062AA"/>
<path d="M24.4727 2626.09H0V2675.02L0.0108526 2675.05L24.4727 2626.09Z" fill="#7062AA"/>
<path d="M82.1329 2551.96C82.1329 2548.27 82.5235 2544.67 83.2615 2541.2H0V2562.7H83.2615C82.5344 2559.23 82.1329 2555.64 82.1329 2551.96Z" fill="#7062AA"/>
<path d="M0 2343.98V2392.07V2392.06L53.3299 2498.76H0V2520.27H88.1127L0 2343.98Z" fill="#7062AA"/>
<path d="M0.0108526 2428.87L0 2428.89V2477.82H24.4727L0.0108526 2428.87Z" fill="#7062AA"/>
<path d="M121.148 2501.46L32.4494 2324C26.8603 2328.46 20.327 2331.76 13.2185 2333.62L85.063 2477.35L101.917 2511.07C107.506 2506.62 114.04 2503.32 121.148 2501.45V2501.46Z" fill="#7062AA"/>
<path d="M222.479 2314.83H46.2539L134.367 2491.12L222.479 2314.83ZM187.697 2336.34L134.367 2443.02L81.0367 2336.34H187.686H187.697Z" fill="#7062AA"/>
<path d="M216.5 2283.13C216.5 2279.44 216.89 2275.85 217.628 2272.37H51.116C51.8431 2275.85 52.2446 2279.44 52.2446 2283.13C52.2446 2286.82 51.8539 2290.42 51.116 2293.88H217.628C216.901 2290.4 216.5 2286.81 216.5 2283.13Z" fill="#7062AA"/>
<path d="M222.479 2251.44L171.135 2148.72H147.097L187.697 2229.93H81.0367L121.636 2148.72H97.5978L46.2539 2251.44H222.479Z" fill="#7062AA"/>
<path d="M32.4494 2242.27L79.2026 2148.72H55.164L13.2185 2232.65C20.327 2234.52 26.8494 2237.82 32.4494 2242.27Z" fill="#7062AA"/>
<path d="M36.7688 2148.72H12.741L0 2174.2V2222.28V2222.29L36.7688 2148.72Z" fill="#7062AA"/>
<path d="M13.2184 2333.62C20.3269 2331.76 26.8602 2328.46 32.4493 2324C41.8043 2316.56 48.5655 2305.99 51.1159 2293.88C51.843 2290.4 52.2445 2286.81 52.2445 2283.13C52.2445 2279.45 51.8539 2275.85 51.1159 2272.37C48.5764 2260.26 41.8043 2249.7 32.4602 2242.26C26.8711 2237.81 20.3378 2234.5 13.2293 2232.64C8.99674 2231.53 4.57971 2230.88 0.0107422 2230.88V2249.36C18.623 2249.36 33.7733 2264.5 33.7733 2283.13C33.7733 2301.76 18.6339 2316.9 0.0107422 2316.9V2335.38C4.57971 2335.38 8.99674 2334.73 13.2293 2333.62H13.2184Z" fill="#7062AA"/>
<path d="M21.5534 2283.13C21.5534 2271.24 11.8837 2261.57 0 2261.57V2277.81C2.93022 2277.81 5.3178 2280.2 5.3178 2283.13C5.3178 2286.06 2.93022 2288.45 0 2288.45V2304.69C11.8837 2304.69 21.5534 2295.02 21.5534 2283.13Z" fill="#7062AA"/>
<path d="M121.148 3676.45C114.04 3674.58 107.517 3671.28 101.917 3666.83L55.1641 3760.37H79.2027L85.3995 3747.98L121.148 3676.45Z" fill="#F5AE37"/>
<path d="M0 3657.65V3679.15H53.3299L12.741 3760.37H36.7688L88.1127 3657.65H0Z" fill="#F5AE37"/>
<path d="M24.4727 3700.09H0V3749.02L0.0108526 3749.05L24.4727 3700.09Z" fill="#F5AE37"/>
<path d="M82.1329 3625.96C82.1329 3622.27 82.5235 3618.67 83.2615 3615.2H0V3636.7H83.2615C82.5344 3633.23 82.1329 3629.64 82.1329 3625.96Z" fill="#F5AE37"/>
<path d="M0 3417.98V3466.07V3466.06L53.3299 3572.76H0V3594.27H88.1127L0 3417.98Z" fill="#F5AE37"/>
<path d="M0.0108526 3502.87L0 3502.89V3551.82H24.4727L0.0108526 3502.87Z" fill="#F5AE37"/>
<path d="M121.148 3575.46L32.4494 3398C26.8603 3402.46 20.327 3405.76 13.2185 3407.62L85.063 3551.35L101.917 3585.07C107.506 3580.62 114.04 3577.32 121.148 3575.45V3575.46Z" fill="#F5AE37"/>
<path d="M222.479 3388.83H46.2539L134.367 3565.12L222.479 3388.83ZM187.697 3410.34L134.367 3517.02L81.0367 3410.34H187.686H187.697Z" fill="#F5AE37"/>
<path d="M216.5 3357.13C216.5 3353.44 216.89 3349.85 217.628 3346.37H51.116C51.8431 3349.85 52.2446 3353.44 52.2446 3357.13C52.2446 3360.82 51.8539 3364.42 51.116 3367.88H217.628C216.901 3364.4 216.5 3360.81 216.5 3357.13Z" fill="#F5AE37"/>
<path d="M222.479 3325.44L171.135 3222.72H147.097L187.697 3303.93H81.0367L121.636 3222.72H97.5978L46.2539 3325.44H222.479Z" fill="#F5AE37"/>
<path d="M32.4494 3316.27L79.2026 3222.72H55.164L13.2185 3306.65C20.327 3308.52 26.8494 3311.82 32.4494 3316.27Z" fill="#F5AE37"/>
<path d="M36.7688 3222.72H12.741L0 3248.2V3296.28V3296.29L36.7688 3222.72Z" fill="#F5AE37"/>
<path d="M13.2184 3407.62C20.3269 3405.76 26.8602 3402.46 32.4493 3398C41.8043 3390.56 48.5655 3379.99 51.1159 3367.88C51.843 3364.4 52.2445 3360.81 52.2445 3357.13C52.2445 3353.45 51.8539 3349.85 51.1159 3346.37C48.5764 3334.26 41.8043 3323.7 32.4602 3316.26C26.8711 3311.81 20.3378 3308.5 13.2293 3306.64C8.99674 3305.53 4.57971 3304.88 0.0107422 3304.88V3323.36C18.623 3323.36 33.7733 3338.5 33.7733 3357.13C33.7733 3375.76 18.6339 3390.9 0.0107422 3390.9V3409.38C4.57971 3409.38 8.99674 3408.73 13.2293 3407.62H13.2184Z" fill="#F5AE37"/>
<path d="M21.5534 3357.13C21.5534 3345.24 11.8837 3335.57 0 3335.57V3351.81C2.93022 3351.81 5.3178 3354.2 5.3178 3357.13C5.3178 3360.06 2.93022 3362.45 0 3362.45V3378.69C11.8837 3378.69 21.5534 3369.02 21.5534 3357.13Z" fill="#F5AE37"/>
<path d="M121.148 3139.45C114.04 3137.58 107.517 3134.28 101.917 3129.83L55.1641 3223.37H79.2027L85.3995 3210.98L121.148 3139.45Z" fill="#F5AE37"/>
<path d="M0 3120.65V3142.15H53.3299L12.741 3223.37H36.7688L88.1127 3120.65H0Z" fill="#F5AE37"/>
<path d="M24.4727 3163.09H0V3212.02L0.0108526 3212.05L24.4727 3163.09Z" fill="#F5AE37"/>
<path d="M82.1329 3088.96C82.1329 3085.27 82.5235 3081.67 83.2615 3078.2H0V3099.7H83.2615C82.5344 3096.23 82.1329 3092.64 82.1329 3088.96Z" fill="#F5AE37"/>
<path d="M0 2880.98V2929.07V2929.06L53.3299 3035.76H0V3057.27H88.1127L0 2880.98Z" fill="#F5AE37"/>
<path d="M0.0108526 2965.87L0 2965.89V3014.82H24.4727L0.0108526 2965.87Z" fill="#F5AE37"/>
<path d="M121.148 3038.46L32.4494 2861C26.8603 2865.46 20.327 2868.76 13.2185 2870.62L85.063 3014.35L101.917 3048.07C107.506 3043.62 114.04 3040.32 121.148 3038.45V3038.46Z" fill="#F5AE37"/>
<path d="M222.479 2851.83H46.2539L134.367 3028.12L222.479 2851.83ZM187.697 2873.34L134.367 2980.02L81.0367 2873.34H187.686H187.697Z" fill="#F5AE37"/>
<path d="M216.5 2820.13C216.5 2816.44 216.89 2812.85 217.628 2809.37H51.116C51.8431 2812.85 52.2446 2816.44 52.2446 2820.13C52.2446 2823.82 51.8539 2827.42 51.116 2830.88H217.628C216.901 2827.4 216.5 2823.81 216.5 2820.13Z" fill="#F5AE37"/>
<path d="M222.479 2788.44L171.135 2685.72H147.097L187.697 2766.93H81.0367L121.636 2685.72H97.5978L46.2539 2788.44H222.479Z" fill="#F5AE37"/>
<path d="M32.4494 2779.27L79.2026 2685.72H55.164L13.2185 2769.65C20.327 2771.52 26.8494 2774.82 32.4494 2779.27Z" fill="#F5AE37"/>
<path d="M36.7688 2685.72H12.741L0 2711.2V2759.28V2759.29L36.7688 2685.72Z" fill="#F5AE37"/>
<path d="M13.2184 2870.62C20.3269 2868.76 26.8602 2865.46 32.4493 2861C41.8043 2853.56 48.5655 2842.99 51.1159 2830.88C51.843 2827.4 52.2445 2823.81 52.2445 2820.13C52.2445 2816.45 51.8539 2812.85 51.1159 2809.37C48.5764 2797.26 41.8043 2786.7 32.4602 2779.26C26.8711 2774.81 20.3378 2771.5 13.2293 2769.64C8.99674 2768.53 4.57971 2767.88 0.0107422 2767.88V2786.36C18.623 2786.36 33.7733 2801.5 33.7733 2820.13C33.7733 2838.76 18.6339 2853.9 0.0107422 2853.9V2872.38C4.57971 2872.38 8.99674 2871.73 13.2293 2870.62H13.2184Z" fill="#F5AE37"/>
<path d="M21.5534 2820.13C21.5534 2808.24 11.8837 2798.57 0 2798.57V2814.81C2.93022 2814.81 5.3178 2817.2 5.3178 2820.13C5.3178 2823.06 2.93022 2825.45 0 2825.45V2841.69C11.8837 2841.69 21.5534 2832.02 21.5534 2820.13Z" fill="#F5AE37"/>
<path d="M121.148 1526.45C114.04 1524.58 107.517 1521.28 101.917 1516.83L55.1641 1610.37H79.2027L85.3995 1597.98L121.148 1526.45Z" fill="#BCE8F5"/>
<path d="M0 1507.65V1529.15H53.3299L12.741 1610.37H36.7688L88.1127 1507.65H0Z" fill="#BCE8F5"/>
<path d="M24.4727 1550.09H0V1599.02L0.0108526 1599.05L24.4727 1550.09Z" fill="#BCE8F5"/>
<path d="M82.1329 1475.96C82.1329 1472.27 82.5235 1468.67 83.2615 1465.2H0V1486.7H83.2615C82.5344 1483.23 82.1329 1479.64 82.1329 1475.96Z" fill="#BCE8F5"/>
<path d="M0 1267.98V1316.07V1316.06L53.3299 1422.76H0V1444.27H88.1127L0 1267.98Z" fill="#BCE8F5"/>
<path d="M0.0108526 1352.87L0 1352.89V1401.82H24.4727L0.0108526 1352.87Z" fill="#BCE8F5"/>
<path d="M121.148 1425.46L32.4494 1248C26.8603 1252.46 20.327 1255.76 13.2185 1257.62L85.063 1401.35L101.917 1435.07C107.506 1430.62 114.04 1427.32 121.148 1425.45V1425.46Z" fill="#BCE8F5"/>
<path d="M222.479 1238.83H46.2539L134.367 1415.12L222.479 1238.83ZM187.697 1260.34L134.367 1367.02L81.0367 1260.34H187.686H187.697Z" fill="#BCE8F5"/>
<path d="M216.5 1207.13C216.5 1203.44 216.89 1199.85 217.628 1196.37H51.116C51.8431 1199.85 52.2446 1203.44 52.2446 1207.13C52.2446 1210.82 51.8539 1214.42 51.116 1217.88H217.628C216.901 1214.4 216.5 1210.81 216.5 1207.13Z" fill="#BCE8F5"/>
<path d="M222.479 1175.44L171.135 1072.72H147.097L187.697 1153.93H81.0367L121.636 1072.72H97.5978L46.2539 1175.44H222.479Z" fill="#BCE8F5"/>
<path d="M32.4494 1166.27L79.2026 1072.72H55.164L13.2185 1156.65C20.327 1158.52 26.8494 1161.82 32.4494 1166.27Z" fill="#BCE8F5"/>
<path d="M36.7688 1072.72H12.741L0 1098.2V1146.28V1146.29L36.7688 1072.72Z" fill="#BCE8F5"/>
<path d="M13.2184 1257.62C20.3269 1255.76 26.8602 1252.46 32.4493 1248C41.8043 1240.56 48.5655 1229.99 51.1159 1217.88C51.843 1214.4 52.2445 1210.81 52.2445 1207.13C52.2445 1203.45 51.8539 1199.85 51.1159 1196.37C48.5764 1184.26 41.8043 1173.7 32.4602 1166.26C26.8711 1161.81 20.3378 1158.5 13.2293 1156.64C8.99674 1155.53 4.57971 1154.88 0.0107422 1154.88V1173.36C18.623 1173.36 33.7733 1188.5 33.7733 1207.13C33.7733 1225.76 18.6339 1240.9 0.0107422 1240.9V1259.38C4.57971 1259.38 8.99674 1258.73 13.2293 1257.62H13.2184Z" fill="#BCE8F5"/>
<path d="M21.5534 1207.13C21.5534 1195.24 11.8837 1185.57 0 1185.57V1201.81C2.93022 1201.81 5.3178 1204.2 5.3178 1207.13C5.3178 1210.06 2.93022 1212.45 0 1212.45V1228.69C11.8837 1228.69 21.5534 1219.02 21.5534 1207.13Z" fill="#BCE8F5"/>
<g clip-path="url(#clip0_622_2420)">
<path d="M121.148 453.449C114.039 451.582 107.517 448.282 101.917 443.831L55.1638 537.369H79.2024L85.3993 524.982L121.148 453.449Z" fill="#BCE8F5"/>
<path d="M0 434.646V456.153H53.3299L12.741 537.369H36.7688L88.1127 434.646H0Z" fill="#BCE8F5"/>
<path d="M24.4727 477.094H0V526.024L0.0108526 526.046L24.4727 477.094Z" fill="#BCE8F5"/>
<path d="M82.1329 402.956C82.1329 399.265 82.5235 395.672 83.2615 392.198H0V413.704H83.2615C82.5344 410.23 82.1329 406.637 82.1329 402.956Z" fill="#BCE8F5"/>
<path d="M0 194.981V243.074V243.063L53.3299 349.76H0V371.266H88.1127L0 194.981Z" fill="#BCE8F5"/>
<path d="M0.0108526 279.867L0 279.888V328.818H24.4727L0.0108526 279.867Z" fill="#BCE8F5"/>
<path d="M121.148 352.463L32.4494 175.005C26.8603 179.456 20.327 182.756 13.2185 184.624L85.063 328.351L101.917 362.071C107.506 357.62 114.04 354.32 121.148 352.452V352.463Z" fill="#BCE8F5"/>
<path d="M222.479 165.831H46.2539L134.367 342.117L222.479 165.831ZM187.697 187.338L134.367 294.023L81.0367 187.338H187.686H187.697Z" fill="#BCE8F5"/>
<path d="M216.5 134.131C216.5 130.439 216.89 126.846 217.628 123.372H51.116C51.8431 126.846 52.2446 130.439 52.2446 134.131C52.2446 137.822 51.8539 141.415 51.116 144.878H217.628C216.901 141.404 216.5 137.811 216.5 134.131Z" fill="#BCE8F5"/>
<path d="M222.479 102.441L171.135 -0.282272H147.097L187.697 80.9343H81.0367L121.636 -0.282272H97.5978L46.2539 102.441H222.479Z" fill="#BCE8F5"/>
<path d="M32.4494 93.2672L79.2026 -0.282272H55.164L13.2185 83.6484C20.327 85.5157 26.8494 88.816 32.4494 93.2672Z" fill="#BCE8F5"/>
<path d="M36.7688 -0.282272H12.741L0 25.1977V73.2806V73.2914L36.7688 -0.282272Z" fill="#BCE8F5"/>
<path d="M13.2184 184.624C20.3269 182.756 26.8602 179.456 32.4493 175.005C41.8043 167.557 48.5655 156.994 51.1159 144.878C51.843 141.404 52.2445 137.811 52.2445 134.131C52.2445 130.45 51.8539 126.846 51.1159 123.372C48.5764 111.256 41.8043 100.704 32.4602 93.2563C26.8711 88.8052 20.3378 85.5048 13.2293 83.6376C8.99674 82.5302 4.57971 81.8788 0.0107422 81.8788V100.356C18.623 100.356 33.7733 115.501 33.7733 134.131C33.7733 152.76 18.6339 167.905 0.0107422 167.905V186.382C4.57971 186.382 8.99674 185.731 13.2293 184.624H13.2184Z" fill="#BCE8F5"/>
<path d="M21.5534 134.131C21.5534 122.243 11.8837 112.57 0 112.57V128.811C2.93022 128.811 5.3178 131.199 5.3178 134.131C5.3178 137.062 2.93022 139.45 0 139.45V155.691C11.8837 155.691 21.5534 146.018 21.5534 134.131Z" fill="#BCE8F5"/>
</g>
<g clip-path="url(#clip1_622_2420)">
<path d="M121.148 989.449C114.039 987.582 107.517 984.282 101.917 979.831L55.1638 1073.37H79.2024L85.3993 1060.98L121.148 989.449Z" fill="#BCE8F5"/>
<path d="M0 970.646V992.153H53.3299L12.741 1073.37H36.7688L88.1127 970.646H0Z" fill="#BCE8F5"/>
<path d="M24.4727 1013.09H0V1062.02L0.0108526 1062.05L24.4727 1013.09Z" fill="#BCE8F5"/>
<path d="M82.1329 938.956C82.1329 935.265 82.5235 931.672 83.2615 928.198H0V949.704H83.2615C82.5344 946.23 82.1329 942.637 82.1329 938.956Z" fill="#BCE8F5"/>
<path d="M0 730.981V779.074V779.063L53.3299 885.76H0V907.266H88.1127L0 730.981Z" fill="#BCE8F5"/>
<path d="M0.0108526 815.867L0 815.888V864.818H24.4727L0.0108526 815.867Z" fill="#BCE8F5"/>
<path d="M121.148 888.463L32.4494 711.005C26.8603 715.456 20.327 718.756 13.2185 720.624L85.063 864.351L101.917 898.071C107.506 893.62 114.04 890.32 121.148 888.452V888.463Z" fill="#BCE8F5"/>
<path d="M222.479 701.831H46.2539L134.367 878.117L222.479 701.831ZM187.697 723.338L134.367 830.023L81.0367 723.338H187.686H187.697Z" fill="#BCE8F5"/>
<path d="M216.5 670.131C216.5 666.439 216.89 662.846 217.628 659.372H51.116C51.8431 662.846 52.2446 666.439 52.2446 670.131C52.2446 673.822 51.8539 677.415 51.116 680.878H217.628C216.901 677.404 216.5 673.811 216.5 670.131Z" fill="#BCE8F5"/>
<path d="M222.479 638.441L171.135 535.718H147.097L187.697 616.934H81.0367L121.636 535.718H97.5978L46.2539 638.441H222.479Z" fill="#BCE8F5"/>
<path d="M32.4494 629.267L79.2026 535.718H55.164L13.2185 619.648C20.327 621.516 26.8494 624.816 32.4494 629.267Z" fill="#BCE8F5"/>
<path d="M36.7688 535.718H12.741L0 561.198V609.281V609.291L36.7688 535.718Z" fill="#BCE8F5"/>
<path d="M13.2184 720.624C20.3269 718.756 26.8602 715.456 32.4493 711.005C41.8043 703.557 48.5655 692.994 51.1159 680.878C51.843 677.404 52.2445 673.811 52.2445 670.131C52.2445 666.45 51.8539 662.846 51.1159 659.372C48.5764 647.256 41.8043 636.704 32.4602 629.256C26.8711 624.805 20.3378 621.505 13.2293 619.638C8.99674 618.53 4.57971 617.879 0.0107422 617.879V636.356C18.623 636.356 33.7733 651.501 33.7733 670.131C33.7733 688.76 18.6339 703.905 0.0107422 703.905V722.382C4.57971 722.382 8.99674 721.731 13.2293 720.624H13.2184Z" fill="#BCE8F5"/>
<path d="M21.5534 670.131C21.5534 658.243 11.8837 648.57 0 648.57V664.811C2.93022 664.811 5.3178 667.199 5.3178 670.131C5.3178 673.062 2.93022 675.45 0 675.45V691.691C11.8837 691.691 21.5534 682.018 21.5534 670.131Z" fill="#BCE8F5"/>
</g>
</g>
<defs>
<clipPath id="clip0_622_2420">
<rect width="537" height="537" fill="white" transform="translate(0.368896)"/>
</clipPath>
<clipPath id="clip1_622_2420">
<rect width="537" height="537" fill="white" transform="translate(0.368896 536)"/>
</clipPath>
</defs>
</svg>
