<svg width="35" height="28" viewBox="0 0 35 28" fill="none" xmlns="http://www.w3.org/2000/svg">
<path d="M3.5 28C2.5375 28 1.71383 27.6576 1.029 26.9727C0.344167 26.2879 0.00116667 25.4637 0 24.5V3.5C0 2.5375 0.343 1.71383 1.029 1.029C1.715 0.344166 2.53867 0.00116667 3.5 0H31.5C32.4625 0 33.2867 0.343 33.9727 1.029C34.6587 1.715 35.0012 2.53867 35 3.5V24.5C35 25.4625 34.6576 26.2867 33.9727 26.9727C33.2879 27.6587 32.4637 28.0012 31.5 28H3.5ZM31.5 7L18.4187 15.1812C18.2729 15.2687 18.1201 15.3347 17.9602 15.379C17.8004 15.4233 17.647 15.4449 17.5 15.4437C17.353 15.4426 17.2002 15.421 17.0415 15.379C16.8828 15.337 16.7294 15.2711 16.5812 15.1812L3.5 7V24.5H31.5V7ZM17.5 12.25L31.5 3.5H3.5L17.5 12.25ZM3.5 7.4375V4.85625V4.9V4.879V7.4375Z" fill="white"/>
</svg>
