<svg width="64" height="540" viewBox="0 0 64 540" fill="none" xmlns="http://www.w3.org/2000/svg">
<mask id="mask0_607_1036" style="mask-type:alpha" maskUnits="userSpaceOnUse" x="0" y="0" width="64" height="540">
<rect width="64" height="540" fill="#D9D9D9"/>
</mask>
<g mask="url(#mask0_607_1036)">
<path d="M120.779 458.449C113.671 456.582 107.148 453.282 101.548 448.831L54.7949 542.369H78.8335L85.0304 529.982L120.779 458.449Z" fill="#BCE8F5"/>
<path d="M-0.368896 439.646V461.153H52.961L12.3721 542.369H36.3999L87.7438 439.646H-0.368896Z" fill="#BCE8F5"/>
<path d="M24.1038 482.094H-0.368896V531.024L-0.358044 531.046L24.1038 482.094Z" fill="#BCE8F5"/>
<path d="M81.764 407.956C81.764 404.265 82.1546 400.672 82.8926 397.198H-0.368896V418.704H82.8926C82.1655 415.23 81.764 411.637 81.764 407.956Z" fill="#BCE8F5"/>
<path d="M-0.368896 199.981V248.074V248.063L52.961 354.76H-0.368896V376.266H87.7438L-0.368896 199.981Z" fill="#BCE8F5"/>
<path d="M-0.358044 284.867L-0.368896 284.888V333.818H24.1038L-0.358044 284.867Z" fill="#BCE8F5"/>
<path d="M120.779 357.463L32.0805 180.005C26.4914 184.456 19.9581 187.756 12.8496 189.624L84.6942 333.351L101.548 367.071C107.137 362.62 113.671 359.32 120.779 357.452V357.463Z" fill="#BCE8F5"/>
<path d="M222.11 170.831H45.885L133.998 347.117L222.11 170.831ZM187.328 192.338L133.998 299.023L80.6678 192.338H187.317H187.328Z" fill="#BCE8F5"/>
<path d="M216.131 139.131C216.131 135.439 216.521 131.846 217.259 128.372H50.7471C51.4742 131.846 51.8757 135.439 51.8757 139.131C51.8757 142.822 51.4851 146.415 50.7471 149.878H217.259C216.532 146.404 216.131 142.811 216.131 139.131Z" fill="#BCE8F5"/>
<path d="M222.11 107.441L170.766 4.71774H146.728L187.328 85.9343H80.6678L121.268 4.71774H97.2289L45.885 107.441H222.11Z" fill="#BCE8F5"/>
<path d="M32.0805 98.2672L78.8337 4.71774H54.7951L12.8496 88.6484C19.9581 90.5157 26.4805 93.8161 32.0805 98.2672Z" fill="#BCE8F5"/>
<path d="M36.3999 4.71774H12.3721L-0.368896 30.1977V78.2806V78.2914L36.3999 4.71774Z" fill="#BCE8F5"/>
<path d="M12.8495 189.624C19.958 187.756 26.4913 184.456 32.0804 180.005C41.4354 172.557 48.1966 161.994 50.747 149.878C51.4741 146.404 51.8757 142.811 51.8757 139.131C51.8757 135.45 51.485 131.846 50.747 128.372C48.2075 116.256 41.4354 105.704 32.0913 98.2563C26.5022 93.8052 19.9689 90.5048 12.8604 88.6376C8.62784 87.5302 4.21081 86.8788 -0.358154 86.8788V105.356C18.2541 105.356 33.4044 120.501 33.4044 139.131C33.4044 157.76 18.265 172.905 -0.358154 172.905V191.382C4.21081 191.382 8.62784 190.731 12.8604 189.624H12.8495Z" fill="#BCE8F5"/>
<path d="M21.1845 139.131C21.1845 127.243 11.5148 117.57 -0.368896 117.57V133.811C2.56132 133.811 4.9489 136.199 4.9489 139.131C4.9489 142.062 2.56132 144.45 -0.368896 144.45V160.691C11.5148 160.691 21.1845 151.018 21.1845 139.131Z" fill="#BCE8F5"/>
<path d="M120.779 -79.2685C113.671 -81.1358 107.148 -84.4361 101.548 -88.8872L54.7949 4.65134H78.8335L85.0304 -7.73579L120.779 -79.2685Z" fill="#BCE8F5"/>
<path d="M-0.368896 -98.0717V-76.5652H52.961L12.3721 4.65135H36.3999L87.7438 -98.0717H-0.368896Z" fill="#BCE8F5"/>
</g>
</svg>
