<svg width="1280" height="49" viewBox="0 0 1280 49" fill="none" xmlns="http://www.w3.org/2000/svg">
<rect x="1" width="1279" height="1" fill="white"/>
<rect y="1" width="1280" height="48" fill="#E5134E"/>
<path d="M533.369 30V21.7148H536.184C536.7 21.7148 537.175 21.785 537.608 21.9256C538.041 22.0661 538.412 22.2618 538.719 22.5125C539.031 22.7632 539.295 23.0614 539.512 23.4071C539.728 23.749 539.888 24.127 539.99 24.5411C540.097 24.9514 540.15 25.3863 540.15 25.846C540.15 27.1034 539.789 28.1101 539.067 28.866C538.349 29.622 537.388 30 536.184 30H533.369ZM536.184 22.4384H534.189V29.2763H536.184C536.849 29.2763 537.422 29.1244 537.905 28.8205C538.387 28.5166 538.746 28.1101 538.982 27.601C539.217 27.0882 539.335 26.5032 539.335 25.846C539.335 24.8317 539.056 24.0111 538.497 23.3843C537.943 22.7537 537.171 22.4384 536.184 22.4384ZM544.173 30.114C543.599 30.114 543.077 29.9696 542.606 29.6809C542.138 29.3922 541.776 29.0066 541.517 28.5242C541.259 28.0379 541.13 27.5099 541.13 26.94C541.13 26.3778 541.259 25.8593 541.517 25.3844C541.776 24.9058 542.138 24.5259 542.606 24.2448C543.073 23.9599 543.591 23.8174 544.161 23.8174C544.739 23.8174 545.259 23.9618 545.723 24.2505C546.19 24.5354 546.549 24.9153 546.8 25.3901C547.05 25.8612 547.176 26.374 547.176 26.9286C547.176 27.1034 547.172 27.2098 547.164 27.2477H541.956C542.005 27.8973 542.247 28.4368 542.68 28.866C543.113 29.2953 543.624 29.51 544.213 29.51C544.611 29.51 544.986 29.4093 545.335 29.2079C545.685 29.0028 545.932 28.7369 546.076 28.4102L546.765 28.5982C546.575 29.0465 546.241 29.4112 545.762 29.6923C545.288 29.9734 544.758 30.114 544.173 30.114ZM541.933 26.6722H546.429C546.38 26.0188 546.14 25.4832 545.711 25.0653C545.286 24.6437 544.773 24.4328 544.173 24.4328C543.572 24.4328 543.058 24.6437 542.628 25.0653C542.203 25.487 541.971 26.0226 541.933 26.6722ZM550.395 30.114C549.358 30.114 548.526 29.7835 547.899 29.1225L548.224 28.564C548.862 29.1719 549.575 29.4758 550.361 29.4758C550.843 29.4758 551.229 29.3789 551.518 29.1852C551.81 28.9876 551.956 28.7141 551.956 28.3646C551.956 28.1519 551.884 27.9771 551.74 27.8404C551.596 27.6998 551.44 27.601 551.273 27.5441C551.106 27.4871 550.815 27.4054 550.401 27.299C550.294 27.2724 550.215 27.2515 550.162 27.2364C549.82 27.1414 549.54 27.0521 549.324 26.9685C549.107 26.8812 548.912 26.7748 548.737 26.6494C548.562 26.5241 548.437 26.3778 548.361 26.2107C548.285 26.0397 548.247 25.8365 548.247 25.601C548.247 25.0349 548.458 24.5962 548.879 24.2847C549.301 23.9732 549.848 23.8174 550.521 23.8174C550.976 23.8174 551.387 23.8915 551.751 24.0396C552.116 24.184 552.41 24.3891 552.635 24.655L552.247 25.1907C551.825 24.7006 551.235 24.4556 550.475 24.4556C550.057 24.4556 549.706 24.5411 549.421 24.712C549.136 24.883 548.993 25.1489 548.993 25.5098C548.993 25.6162 549.005 25.7111 549.028 25.7947C549.05 25.8745 549.094 25.9485 549.159 26.0169C549.227 26.0815 549.292 26.1366 549.352 26.1822C549.413 26.224 549.512 26.2715 549.649 26.3246C549.785 26.374 549.903 26.4158 550.002 26.45C550.101 26.4804 550.251 26.5241 550.452 26.5811C550.646 26.6342 550.794 26.676 550.897 26.7064C551.003 26.733 551.136 26.7729 551.295 26.8261C551.455 26.8755 551.577 26.9192 551.66 26.9571C551.748 26.9913 551.85 27.0369 551.968 27.0939C552.086 27.1509 552.175 27.206 552.236 27.2591C552.3 27.3123 552.369 27.3769 552.441 27.4529C552.513 27.5289 552.566 27.6086 552.6 27.6922C552.635 27.772 552.663 27.8651 552.686 27.9714C552.712 28.074 552.726 28.1861 552.726 28.3076C552.726 28.8698 552.513 29.3124 552.088 29.6353C551.666 29.9544 551.102 30.114 550.395 30.114ZM556.663 30.114C556.09 30.114 555.567 29.9696 555.096 29.6809C554.629 29.3922 554.266 29.0066 554.008 28.5242C553.75 28.0379 553.62 27.5099 553.62 26.94C553.62 26.3778 553.75 25.8593 554.008 25.3844C554.266 24.9058 554.629 24.5259 555.096 24.2448C555.563 23.9599 556.082 23.8174 556.652 23.8174C557.229 23.8174 557.75 23.9618 558.213 24.2505C558.68 24.5354 559.039 24.9153 559.29 25.3901C559.541 25.8612 559.666 26.374 559.666 26.9286C559.666 27.1034 559.662 27.2098 559.655 27.2477H554.447C554.496 27.8973 554.737 28.4368 555.17 28.866C555.603 29.2953 556.114 29.51 556.703 29.51C557.102 29.51 557.476 29.4093 557.826 29.2079C558.175 29.0028 558.422 28.7369 558.566 28.4102L559.256 28.5982C559.066 29.0465 558.732 29.4112 558.253 29.6923C557.778 29.9734 557.248 30.114 556.663 30.114ZM554.424 26.6722H558.92C558.87 26.0188 558.631 25.4832 558.202 25.0653C557.776 24.6437 557.263 24.4328 556.663 24.4328C556.063 24.4328 555.548 24.6437 555.119 25.0653C554.694 25.487 554.462 26.0226 554.424 26.6722ZM566.003 30H565.205V26.6038C565.205 25.8897 565.099 25.3673 564.886 25.0368C564.677 24.7063 564.348 24.5411 563.9 24.5411C563.425 24.5411 562.973 24.7082 562.544 25.0425C562.115 25.373 561.828 25.7852 561.683 26.279V30H560.891V23.92H561.615V25.299C561.862 24.8507 562.217 24.4917 562.681 24.222C563.148 23.9523 563.651 23.8174 564.191 23.8174C564.521 23.8174 564.804 23.8782 565.04 23.9998C565.279 24.1175 565.467 24.2942 565.604 24.5297C565.744 24.7652 565.845 25.0387 565.906 25.3502C565.97 25.6617 566.003 26.0245 566.003 26.4386V30ZM569.365 30L566.903 23.92H567.729L569.809 29.2079L571.895 23.92H572.681L570.219 30H569.365ZM573.143 26.9799C573.143 26.5583 573.218 26.1556 573.37 25.7719C573.522 25.3844 573.729 25.0482 573.992 24.7633C574.254 24.4746 574.573 24.2448 574.949 24.0738C575.325 23.9029 575.726 23.8174 576.151 23.8174C576.721 23.8174 577.238 23.9618 577.701 24.2505C578.168 24.5392 578.531 24.9248 578.789 25.4072C579.048 25.8897 579.177 26.4139 579.177 26.9799C579.177 27.5422 579.048 28.0626 578.789 28.5412C578.535 29.0161 578.174 29.3979 577.707 29.6866C577.243 29.9715 576.725 30.114 576.151 30.114C575.578 30.114 575.059 29.9715 574.596 29.6866C574.132 29.3979 573.773 29.0161 573.519 28.5412C573.268 28.0626 573.143 27.5422 573.143 26.9799ZM574.59 28.7122C575.023 29.1833 575.543 29.4188 576.151 29.4188C576.759 29.4188 577.279 29.1795 577.712 28.7008C578.149 28.2221 578.368 27.6447 578.368 26.9685C578.368 26.2923 578.149 25.7149 577.712 25.2363C577.279 24.7538 576.759 24.5126 576.151 24.5126C575.756 24.5126 575.39 24.6228 575.051 24.8431C574.713 25.0634 574.444 25.3654 574.242 25.7491C574.045 26.129 573.946 26.5431 573.946 26.9913C573.946 27.6675 574.161 28.2411 574.59 28.7122ZM580.539 21.4811H581.331V28.621C581.331 28.9021 581.378 29.0959 581.473 29.2022C581.568 29.3048 581.707 29.3561 581.889 29.3561C582.148 29.3561 582.41 29.3105 582.676 29.2193L582.812 29.8575C582.664 29.9145 582.484 29.9639 582.271 30.0057C582.058 30.0475 581.874 30.0684 581.718 30.0684C581.354 30.0684 581.065 29.9639 580.852 29.755C580.643 29.5422 580.539 29.2535 580.539 28.8888V21.4811ZM585.285 30L582.824 23.92H583.65L585.73 29.2079L587.816 23.92H588.602L586.14 30H585.285ZM589.702 22.6493V21.4811H590.494V22.6493H589.702ZM589.702 30V23.92H590.494V30H589.702ZM601.286 30H600.494V26.6038C600.494 25.2287 600.046 24.5411 599.149 24.5411C598.693 24.5411 598.283 24.7025 597.919 25.0254C597.558 25.3483 597.303 25.77 597.155 26.2904V30H596.363V26.6038C596.363 25.8897 596.253 25.3673 596.032 25.0368C595.816 24.7063 595.482 24.5411 595.03 24.5411C594.577 24.5411 594.169 24.7006 593.804 25.0197C593.443 25.3388 593.187 25.7586 593.035 26.279V30H592.243V23.92H592.967V25.299C593.217 24.8279 593.544 24.4632 593.947 24.2049C594.353 23.9466 594.8 23.8174 595.286 23.8174C595.784 23.8174 596.19 23.9599 596.505 24.2448C596.821 24.5297 597.014 24.9077 597.087 25.3787C597.653 24.3378 598.433 23.8174 599.429 23.8174C600.082 23.8174 600.555 24.0453 600.847 24.5012C601.14 24.9533 601.286 25.5991 601.286 26.4386V30ZM605.588 30.114C605.015 30.114 604.492 29.9696 604.021 29.6809C603.554 29.3922 603.191 29.0066 602.933 28.5242C602.675 28.0379 602.545 27.5099 602.545 26.94C602.545 26.3778 602.675 25.8593 602.933 25.3844C603.191 24.9058 603.554 24.5259 604.021 24.2448C604.489 23.9599 605.007 23.8174 605.577 23.8174C606.154 23.8174 606.675 23.9618 607.138 24.2505C607.605 24.5354 607.964 24.9153 608.215 25.3901C608.466 25.8612 608.591 26.374 608.591 26.9286C608.591 27.1034 608.587 27.2098 608.58 27.2477H603.372C603.421 27.8973 603.662 28.4368 604.095 28.866C604.528 29.2953 605.039 29.51 605.628 29.51C606.027 29.51 606.401 29.4093 606.751 29.2079C607.1 29.0028 607.347 28.7369 607.492 28.4102L608.181 28.5982C607.991 29.0465 607.657 29.4112 607.178 29.6923C606.703 29.9734 606.173 30.114 605.588 30.114ZM603.349 26.6722H607.845C607.795 26.0188 607.556 25.4832 607.127 25.0653C606.701 24.6437 606.189 24.4328 605.588 24.4328C604.988 24.4328 604.473 24.6437 604.044 25.0653C603.619 25.487 603.387 26.0226 603.349 26.6722ZM614.928 30H614.13V26.6038C614.13 25.8897 614.024 25.3673 613.811 25.0368C613.602 24.7063 613.273 24.5411 612.825 24.5411C612.35 24.5411 611.898 24.7082 611.469 25.0425C611.04 25.373 610.753 25.7852 610.608 26.279V30H609.816V23.92H610.54V25.299C610.787 24.8507 611.142 24.4917 611.606 24.222C612.073 23.9523 612.576 23.8174 613.116 23.8174C613.446 23.8174 613.729 23.8782 613.965 23.9998C614.204 24.1175 614.392 24.2942 614.529 24.5297C614.669 24.7652 614.77 25.0387 614.831 25.3502C614.895 25.6617 614.928 26.0245 614.928 26.4386V30ZM619.481 29.7094C619.477 29.7132 619.437 29.7322 619.361 29.7664C619.289 29.7968 619.228 29.8215 619.179 29.8404C619.133 29.8594 619.063 29.886 618.968 29.9202C618.873 29.9506 618.785 29.9753 618.706 29.9943C618.626 30.0133 618.531 30.0304 618.421 30.0456C618.311 30.0608 618.204 30.0684 618.102 30.0684C617.737 30.0684 617.431 29.9677 617.184 29.7664C616.941 29.5612 616.82 29.2725 616.82 28.9002V24.5525H615.976V23.92H616.82V21.8686H617.612V23.92H619.013V24.5525H617.612V28.6837C617.627 28.8964 617.703 29.0579 617.84 29.1681C617.976 29.2782 618.145 29.3333 618.347 29.3333C618.677 29.3333 618.985 29.244 619.27 29.0655L619.481 29.7094ZM619.948 26.9799C619.948 26.5583 620.024 26.1556 620.176 25.7719C620.328 25.3844 620.535 25.0482 620.797 24.7633C621.059 24.4746 621.378 24.2448 621.754 24.0738C622.13 23.9029 622.531 23.8174 622.957 23.8174C623.526 23.8174 624.043 23.9618 624.507 24.2505C624.974 24.5392 625.337 24.9248 625.595 25.4072C625.853 25.8897 625.982 26.4139 625.982 26.9799C625.982 27.5422 625.853 28.0626 625.595 28.5412C625.34 29.0161 624.979 29.3979 624.512 29.6866C624.049 29.9715 623.53 30.114 622.957 30.114C622.383 30.114 621.864 29.9715 621.401 29.6866C620.938 29.3979 620.579 29.0161 620.324 28.5412C620.073 28.0626 619.948 27.5422 619.948 26.9799ZM621.395 28.7122C621.828 29.1833 622.349 29.4188 622.957 29.4188C623.564 29.4188 624.085 29.1795 624.518 28.7008C624.955 28.2221 625.173 27.6447 625.173 26.9685C625.173 26.2923 624.955 25.7149 624.518 25.2363C624.085 24.7538 623.564 24.5126 622.957 24.5126C622.562 24.5126 622.195 24.6228 621.857 24.8431C621.519 25.0634 621.249 25.3654 621.048 25.7491C620.85 26.129 620.751 26.5431 620.751 26.9913C620.751 27.6675 620.966 28.2411 621.395 28.7122ZM631.077 28.7407V32.4844H630.285V23.92H630.997V25.0995C631.248 24.712 631.574 24.4024 631.977 24.1707C632.38 23.9352 632.807 23.8174 633.259 23.8174C633.798 23.8174 634.29 23.9675 634.735 24.2676C635.183 24.5677 635.529 24.959 635.772 25.4414C636.019 25.9201 636.142 26.4291 636.142 26.9685C636.142 27.5384 636.026 28.0626 635.795 28.5412C635.567 29.0199 635.24 29.4017 634.815 29.6866C634.393 29.9715 633.916 30.114 633.384 30.114C632.898 30.114 632.454 29.9886 632.051 29.7379C631.652 29.4834 631.327 29.151 631.077 28.7407ZM635.333 26.9685C635.333 26.3075 635.113 25.7339 634.672 25.2477C634.231 24.7576 633.698 24.5126 633.071 24.5126C632.805 24.5126 632.526 24.581 632.233 24.7177C631.941 24.8507 631.684 25.0368 631.464 25.2762C631.244 25.5155 631.115 25.7643 631.077 26.0226V27.886C631.259 28.3304 631.542 28.697 631.926 28.9857C632.309 29.2744 632.721 29.4188 633.162 29.4188C633.584 29.4188 633.964 29.301 634.302 29.0655C634.64 28.8262 634.896 28.5223 635.071 28.1538C635.246 27.7815 635.333 27.3864 635.333 26.9685ZM637.065 26.9799C637.065 26.5583 637.141 26.1556 637.293 25.7719C637.445 25.3844 637.652 25.0482 637.914 24.7633C638.177 24.4746 638.496 24.2448 638.872 24.0738C639.248 23.9029 639.649 23.8174 640.074 23.8174C640.644 23.8174 641.161 23.9618 641.624 24.2505C642.091 24.5392 642.454 24.9248 642.712 25.4072C642.971 25.8897 643.1 26.4139 643.1 26.9799C643.1 27.5422 642.971 28.0626 642.712 28.5412C642.458 29.0161 642.097 29.3979 641.63 29.6866C641.166 29.9715 640.648 30.114 640.074 30.114C639.5 30.114 638.982 29.9715 638.518 29.6866C638.055 29.3979 637.696 29.0161 637.442 28.5412C637.191 28.0626 637.065 27.5422 637.065 26.9799ZM638.513 28.7122C638.946 29.1833 639.466 29.4188 640.074 29.4188C640.682 29.4188 641.202 29.1795 641.635 28.7008C642.072 28.2221 642.291 27.6447 642.291 26.9685C642.291 26.2923 642.072 25.7149 641.635 25.2363C641.202 24.7538 640.682 24.5126 640.074 24.5126C639.679 24.5126 639.312 24.6228 638.974 24.8431C638.636 25.0634 638.367 25.3654 638.165 25.7491C637.968 26.129 637.869 26.5431 637.869 26.9913C637.869 27.6675 638.084 28.2411 638.513 28.7122ZM647.459 24.6209C646.923 24.6399 646.456 24.7899 646.057 25.071C645.658 25.3483 645.379 25.7301 645.22 26.2164V30H644.428V23.92H645.174V25.3787C645.383 24.9533 645.66 24.6095 646.006 24.3473C646.352 24.0814 646.72 23.9314 647.111 23.8972C647.263 23.8858 647.379 23.8858 647.459 23.8972V24.6209ZM655.186 20.86L654.343 20.6036L655.009 19.3215H656.234L655.186 20.86ZM650.753 25.8574C650.753 25.3103 650.853 24.7823 651.055 24.2733C651.26 23.7604 651.537 23.3122 651.887 22.9285C652.236 22.5448 652.66 22.2371 653.157 22.0054C653.655 21.7736 654.183 21.6578 654.741 21.6578C655.315 21.6578 655.853 21.7793 656.354 22.0225C656.855 22.2656 657.273 22.5866 657.608 22.9855C657.946 23.3805 658.212 23.8307 658.405 24.3359C658.599 24.8374 658.696 25.3483 658.696 25.8688C658.696 26.4158 658.593 26.9438 658.388 27.4529C658.187 27.9619 657.913 28.4083 657.568 28.792C657.222 29.1757 656.8 29.4834 656.303 29.7151C655.805 29.943 655.277 30.057 654.719 30.057C654.255 30.057 653.814 29.981 653.397 29.8291C652.979 29.6733 652.61 29.4606 652.291 29.1908C651.976 28.9211 651.7 28.6096 651.465 28.2563C651.233 27.903 651.057 27.5213 650.935 27.111C650.813 26.6969 650.753 26.279 650.753 25.8574ZM654.73 28.8774C655.133 28.8774 655.503 28.7901 655.841 28.6153C656.179 28.4406 656.457 28.2108 656.673 27.9258C656.89 27.6371 657.057 27.3142 657.175 26.9571C657.296 26.6 657.357 26.2335 657.357 25.8574C657.357 25.4661 657.292 25.09 657.163 24.7291C657.038 24.3644 656.863 24.0434 656.639 23.7661C656.419 23.485 656.141 23.2628 655.807 23.0994C655.476 22.9323 655.117 22.8487 654.73 22.8487C654.327 22.8487 653.955 22.9361 653.613 23.1108C653.275 23.2818 652.996 23.5097 652.775 23.7946C652.555 24.0795 652.384 24.4005 652.263 24.7576C652.141 25.1147 652.08 25.4813 652.08 25.8574C652.08 26.3816 652.185 26.8717 652.394 27.3275C652.606 27.7834 652.918 28.1557 653.328 28.4444C653.738 28.7331 654.206 28.8774 654.73 28.8774ZM663.26 25.0026C662.759 25.014 662.314 25.1318 661.927 25.3559C661.543 25.5763 661.272 25.8802 661.112 26.2677V30H659.83V23.8972H661.021V25.2648C661.234 24.8469 661.509 24.5107 661.847 24.2562C662.189 24.0017 662.552 23.863 662.935 23.8402C663.099 23.8402 663.207 23.844 663.26 23.8516V25.0026ZM665.329 28.8888V30H664.195V21.4811H665.477V25.0539C665.724 24.655 666.031 24.3454 666.4 24.1251C666.768 23.901 667.188 23.7889 667.659 23.7889C668.058 23.7889 668.429 23.8763 668.77 24.051C669.112 24.2258 669.399 24.4613 669.631 24.7576C669.863 25.0501 670.043 25.3901 670.172 25.7776C670.305 26.1613 670.372 26.5621 670.372 26.9799C670.372 27.5536 670.246 28.0797 669.996 28.5583C669.745 29.037 669.397 29.4169 668.953 29.698C668.512 29.9753 668.024 30.114 667.488 30.114C667.029 30.114 666.609 30.0057 666.229 29.7892C665.849 29.5688 665.549 29.2687 665.329 28.8888ZM669.05 26.9799C669.05 26.4139 668.877 25.9239 668.531 25.5098C668.189 25.0957 667.76 24.8887 667.243 24.8887C666.867 24.8887 666.522 25.014 666.206 25.2648C665.891 25.5117 665.648 25.8251 665.477 26.205V27.8176C665.568 28.1557 665.783 28.4406 666.121 28.6723C666.459 28.904 666.801 29.0199 667.146 29.0199C667.693 29.0199 668.147 28.8186 668.508 28.4159C668.869 28.0094 669.05 27.5308 669.05 26.9799ZM671.523 22.8943V21.4811H672.805V22.8943H671.523ZM671.523 30V23.8972H672.805V30H671.523ZM677.745 29.6866C677.175 29.9563 676.644 30.0912 676.15 30.0912C675.717 30.0912 675.36 29.9772 675.078 29.7493C674.801 29.5175 674.662 29.17 674.662 28.7065V24.8887H673.859V23.8972H674.662V21.8914H675.95V23.8972H677.278V24.8887H675.95V28.2962C675.962 28.5014 676.026 28.6571 676.144 28.7635C676.262 28.866 676.414 28.9173 676.6 28.9173C676.87 28.9173 677.162 28.8357 677.477 28.6723L677.745 29.6866ZM678.19 28.2165C678.19 27.6352 678.431 27.168 678.913 26.8147C679.396 26.4576 680.023 26.279 680.794 26.279C681.413 26.279 681.943 26.3607 682.384 26.5241V26.1366C682.384 25.7073 682.253 25.373 681.99 25.1337C681.728 24.8906 681.36 24.769 680.885 24.769C680.558 24.769 680.243 24.826 679.939 24.94C679.635 25.0539 679.305 25.2268 678.948 25.4585L678.52 24.5981C679.329 24.0586 680.165 23.7889 681.027 23.7889C681.852 23.7889 682.498 24.0073 682.965 24.4442C683.432 24.8773 683.666 25.4889 683.666 26.279V28.5526C683.666 28.697 683.69 28.8034 683.74 28.8717C683.793 28.9363 683.88 28.9705 684.002 28.9743V30C683.797 30.038 683.614 30.057 683.455 30.057C683.197 30.057 682.993 29.9943 682.845 29.8689C682.701 29.7436 682.615 29.5859 682.589 29.396L682.555 29.0427C682.292 29.3808 681.956 29.6448 681.546 29.8348C681.139 30.0209 680.722 30.114 680.292 30.114C679.685 30.114 679.181 29.9335 678.782 29.5726C678.387 29.2079 678.19 28.7559 678.19 28.2165ZM682.076 28.5868C682.281 28.3817 682.384 28.1918 682.384 28.017V27.3161C681.935 27.1452 681.468 27.0597 680.982 27.0597C680.511 27.0597 680.129 27.1547 679.836 27.3446C679.548 27.5346 679.403 27.7891 679.403 28.1082C679.403 28.3969 679.514 28.6476 679.734 28.8604C679.958 29.0693 680.264 29.1738 680.651 29.1738C680.917 29.1738 681.179 29.1187 681.438 29.0085C681.696 28.8983 681.909 28.7578 682.076 28.5868ZM693.997 22.8715H691.244V30H689.922V22.8715H687.159V21.7148H693.997V22.8715ZM696.481 30.114C695.862 30.114 695.309 29.9696 694.823 29.6809C694.337 29.3922 693.964 29.0104 693.706 28.5356C693.448 28.0607 693.318 27.5384 693.318 26.9685C693.318 26.5393 693.394 26.1309 693.546 25.7434C693.702 25.3559 693.915 25.0178 694.185 24.7291C694.454 24.4404 694.789 24.2125 695.187 24.0453C695.59 23.8744 696.025 23.7889 696.492 23.7889C696.96 23.7889 697.389 23.8744 697.78 24.0453C698.175 24.2163 698.504 24.4461 698.766 24.7348C699.032 25.0197 699.237 25.3502 699.381 25.7263C699.53 26.1024 699.604 26.4956 699.604 26.9059C699.604 27.0122 699.592 27.168 699.569 27.3731H694.68C694.718 27.9011 694.914 28.3342 695.267 28.6723C695.624 29.0066 696.044 29.1738 696.527 29.1738C696.876 29.1738 697.201 29.0883 697.501 28.9173C697.801 28.7426 698.008 28.5166 698.122 28.2392L699.222 28.5526C699.005 29.0199 698.652 29.3979 698.162 29.6866C697.672 29.9715 697.112 30.114 696.481 30.114ZM694.646 26.5241H698.333C698.287 25.996 698.09 25.5668 697.74 25.2363C697.395 24.902 696.975 24.7348 696.481 24.7348C695.991 24.7348 695.571 24.9039 695.222 25.242C694.872 25.5763 694.68 26.0036 694.646 26.5241ZM703.421 30.114C702.806 30.114 702.253 29.9677 701.763 29.6752C701.277 29.3827 700.905 28.9971 700.646 28.5185C700.388 28.036 700.259 27.5099 700.259 26.94C700.259 26.5108 700.333 26.1062 700.481 25.7263C700.633 25.3426 700.844 25.0083 701.114 24.7234C701.383 24.4347 701.718 24.2068 702.117 24.0396C702.515 23.8725 702.95 23.7889 703.421 23.7889C704.037 23.7889 704.572 23.9257 705.028 24.1992C705.484 24.4727 705.83 24.8431 706.065 25.3103L704.817 25.7035C704.673 25.449 704.476 25.2496 704.225 25.1052C703.974 24.9609 703.697 24.8887 703.393 24.8887C702.876 24.8887 702.443 25.0824 702.094 25.4699C701.748 25.8536 701.575 26.3436 701.575 26.94C701.575 27.5251 701.754 28.0189 702.111 28.4216C702.468 28.8205 702.899 29.0199 703.404 29.0199C703.72 29.0199 704.016 28.9401 704.293 28.7806C704.571 28.6172 704.757 28.4178 704.852 28.1823L706.117 28.5526C705.912 29.0199 705.568 29.3979 705.085 29.6866C704.603 29.9715 704.048 30.114 703.421 30.114ZM712.647 30H711.359V26.5811C711.359 26.015 711.268 25.5991 711.086 25.3331C710.907 25.0672 710.637 24.9343 710.276 24.9343C709.904 24.9343 709.539 25.0729 709.182 25.3502C708.829 25.6237 708.586 25.9637 708.453 26.3702V30H707.171V23.8972H708.339V25.1223C708.575 24.712 708.915 24.3872 709.359 24.1479C709.803 23.9086 710.292 23.7889 710.823 23.7889C711.108 23.7889 711.357 23.8326 711.57 23.92C711.786 24.0073 711.961 24.1251 712.094 24.2733C712.231 24.4214 712.341 24.6057 712.425 24.826C712.508 25.0425 712.565 25.2686 712.596 25.5041C712.63 25.7358 712.647 25.9941 712.647 26.279V30ZM713.963 28.1595C713.815 27.7758 713.741 27.3731 713.741 26.9514C713.741 26.5298 713.817 26.1271 713.969 25.7434C714.121 25.3597 714.33 25.0235 714.596 24.7348C714.862 24.4461 715.192 24.2163 715.587 24.0453C715.986 23.8744 716.415 23.7889 716.875 23.7889C717.49 23.7889 718.039 23.9352 718.522 24.2277C719.008 24.5202 719.378 24.9058 719.633 25.3844C719.887 25.8631 720.015 26.3854 720.015 26.9514C720.015 27.5175 719.887 28.0398 719.633 28.5185C719.378 28.9971 719.008 29.3827 718.522 29.6752C718.039 29.9677 717.49 30.114 716.875 30.114C716.408 30.114 715.975 30.0285 715.576 29.8575C715.181 29.6866 714.85 29.4568 714.584 29.1681C714.318 28.8793 714.111 28.5431 713.963 28.1595ZM715.581 28.433C715.935 28.8243 716.366 29.0199 716.875 29.0199C717.384 29.0199 717.815 28.8205 718.168 28.4216C718.522 28.0227 718.698 27.5327 718.698 26.9514C718.698 26.3702 718.522 25.8821 718.168 25.487C717.815 25.0881 717.384 24.8887 716.875 24.8887C716.37 24.8887 715.94 25.09 715.587 25.4927C715.234 25.8954 715.057 26.3873 715.057 26.9685C715.057 27.5536 715.232 28.0417 715.581 28.433ZM721.166 21.4811H722.448V28.2392C722.448 28.528 722.49 28.7217 722.573 28.8205C722.657 28.9154 722.78 28.9629 722.944 28.9629C723.232 28.9629 723.496 28.9078 723.736 28.7977L723.924 29.812C723.738 29.8955 723.517 29.962 723.263 30.0114C723.008 30.0646 722.776 30.0912 722.568 30.0912C722.127 30.0912 721.783 29.9696 721.536 29.7265C721.289 29.4834 721.166 29.1434 721.166 28.7065V21.4811ZM724.494 28.1595C724.345 27.7758 724.271 27.3731 724.271 26.9514C724.271 26.5298 724.347 26.1271 724.499 25.7434C724.651 25.3597 724.86 25.0235 725.126 24.7348C725.392 24.4461 725.723 24.2163 726.118 24.0453C726.516 23.8744 726.946 23.7889 727.405 23.7889C728.021 23.7889 728.57 23.9352 729.052 24.2277C729.538 24.5202 729.909 24.9058 730.163 25.3844C730.418 25.8631 730.545 26.3854 730.545 26.9514C730.545 27.5175 730.418 28.0398 730.163 28.5185C729.909 28.9971 729.538 29.3827 729.052 29.6752C728.57 29.9677 728.021 30.114 727.405 30.114C726.938 30.114 726.505 30.0285 726.106 29.8575C725.711 29.6866 725.381 29.4568 725.115 29.1681C724.849 28.8793 724.642 28.5431 724.494 28.1595ZM726.112 28.433C726.465 28.8243 726.896 29.0199 727.405 29.0199C727.914 29.0199 728.346 28.8205 728.699 28.4216C729.052 28.0227 729.229 27.5327 729.229 26.9514C729.229 26.3702 729.052 25.8821 728.699 25.487C728.346 25.0881 727.914 24.8887 727.405 24.8887C726.9 24.8887 726.471 25.09 726.118 25.4927C725.764 25.8954 725.588 26.3873 725.588 26.9685C725.588 27.5536 725.762 28.0417 726.112 28.433ZM731.314 26.9514C731.314 26.374 731.432 25.846 731.668 25.3673C731.907 24.8849 732.243 24.5012 732.676 24.2163C733.113 23.9314 733.603 23.7889 734.146 23.7889C734.617 23.7889 735.039 23.9029 735.411 24.1308C735.787 24.3549 736.101 24.6626 736.352 25.0539V23.8972H737.486V29.8234C737.486 30.397 737.343 30.8965 737.058 31.322C736.773 31.7475 736.388 32.0666 735.901 32.2793C735.415 32.4958 734.862 32.6041 734.243 32.6041C733.012 32.6041 732.074 32.1672 731.428 31.2935L732.152 30.6211C732.38 30.944 732.678 31.1909 733.047 31.3619C733.419 31.5366 733.818 31.624 734.243 31.624C734.604 31.624 734.929 31.5613 735.218 31.436C735.506 31.3144 735.742 31.1131 735.924 30.8319C736.11 30.5546 736.203 30.2184 736.203 29.8234V28.8888C735.991 29.2497 735.692 29.5346 735.309 29.7436C734.929 29.9525 734.526 30.057 734.101 30.057C733.569 30.057 733.086 29.9126 732.653 29.6239C732.224 29.3352 731.894 28.9553 731.662 28.4843C731.43 28.0132 731.314 27.5023 731.314 26.9514ZM736.203 27.8062V26.205C736.051 25.8213 735.808 25.506 735.474 25.2591C735.14 25.0121 734.79 24.8887 734.426 24.8887C734.068 24.8887 733.749 24.9931 733.468 25.2021C733.187 25.4072 732.974 25.6693 732.83 25.9884C732.69 26.3037 732.619 26.638 732.619 26.9913C732.619 27.5498 732.803 28.0284 733.172 28.4273C733.54 28.8224 733.991 29.0199 734.522 29.0199C734.899 29.0199 735.248 28.9002 735.571 28.6609C735.898 28.4216 736.108 28.1367 736.203 27.8062ZM739.024 22.8943V21.4811H740.306V22.8943H739.024ZM739.024 30V23.8972H740.306V30H739.024ZM741.406 28.2165C741.406 27.6352 741.647 27.168 742.13 26.8147C742.612 26.4576 743.239 26.279 744.01 26.279C744.629 26.279 745.159 26.3607 745.6 26.5241V26.1366C745.6 25.7073 745.469 25.373 745.207 25.1337C744.945 24.8906 744.576 24.769 744.101 24.769C743.774 24.769 743.459 24.826 743.155 24.94C742.851 25.0539 742.521 25.2268 742.164 25.4585L741.736 24.5981C742.546 24.0586 743.381 23.7889 744.244 23.7889C745.068 23.7889 745.714 24.0073 746.181 24.4442C746.648 24.8773 746.882 25.4889 746.882 26.279V28.5526C746.882 28.697 746.907 28.8034 746.956 28.8717C747.009 28.9363 747.097 28.9705 747.218 28.9743V30C747.013 30.038 746.831 30.057 746.671 30.057C746.413 30.057 746.21 29.9943 746.061 29.8689C745.917 29.7436 745.832 29.5859 745.805 29.396L745.771 29.0427C745.509 29.3808 745.172 29.6448 744.762 29.8348C744.356 30.0209 743.938 30.114 743.509 30.114C742.901 30.114 742.397 29.9335 741.999 29.5726C741.603 29.2079 741.406 28.7559 741.406 28.2165ZM745.292 28.5868C745.497 28.3817 745.6 28.1918 745.6 28.017V27.3161C745.152 27.1452 744.684 27.0597 744.198 27.0597C743.727 27.0597 743.345 27.1547 743.053 27.3446C742.764 27.5346 742.62 27.7891 742.62 28.1082C742.62 28.3969 742.73 28.6476 742.95 28.8604C743.174 29.0693 743.48 29.1738 743.868 29.1738C744.133 29.1738 744.396 29.1187 744.654 29.0085C744.912 28.8983 745.125 28.7578 745.292 28.5868Z" fill="white"/>
</svg>
