<svg width="35" height="35" viewBox="0 0 35 35" fill="none" xmlns="http://www.w3.org/2000/svg">
<path d="M2 15.7778C2 9.28328 2 6.03517 4.01844 4.01844C6.03689 2.00172 9.28328 2 15.7778 2H19.2222C25.7167 2 28.9648 2 30.9816 4.01844C32.9983 6.03689 33 9.28328 33 15.7778V19.2222C33 25.7167 33 28.9648 30.9816 30.9816C28.9631 32.9983 25.7167 33 19.2222 33H15.7778C9.28328 33 6.03517 33 4.01844 30.9816C2.00172 28.9631 2 25.7167 2 19.2222V15.7778Z" stroke="white" stroke-width="3"/>
<path d="M25.2495 8.66675C25.8477 8.66675 26.3333 9.1516 26.3335 9.74976C26.3335 10.3481 25.8478 10.8337 25.2495 10.8337C24.6514 10.8336 24.1665 10.348 24.1665 9.74976C24.1667 9.15171 24.6515 8.66692 25.2495 8.66675Z" fill="white" stroke="white" stroke-width="3"/>
<path d="M17.5002 22.6666C20.3536 22.6666 22.6668 20.3534 22.6668 17.4999C22.6668 14.6464 20.3536 12.3333 17.5002 12.3333C14.6467 12.3333 12.3335 14.6464 12.3335 17.4999C12.3335 20.3534 14.6467 22.6666 17.5002 22.6666Z" stroke="white" stroke-width="3"/>
</svg>
