<svg width="169" height="56" viewBox="0 0 169 56" fill="none" xmlns="http://www.w3.org/2000/svg">
<g clip-path="url(#clip0_603_968)">
<path d="M0.900923 35.5317C-1.56806 26.2516 1.17731 16.1561 7.42679 9.27915C18.7287 -3.16057 36.8108 -2.78057 47.5766 8.54818C55.4862 16.8704 55.4703 25.3667 55.0998 29.0321C54.6016 28.5888 55.3092 19.387 47.9243 11.5987C38.9462 2.13568 23.6983 0.414241 13.2344 8.86748C1.69399 18.188 1.40176 33.2376 9.51728 43.0736C17.7455 53.039 32.5796 53.9503 42.0912 45.6826C53.7495 35.5475 48.9761 15.6582 34.0927 12.1019C27.2878 10.4772 19.7559 12.4054 15.5344 17.0093C8.39326 24.7958 11.2134 38.2761 20.4028 42.9637C28.0439 46.8613 37.8961 45.3484 43.8208 36.2064C40.064 44.6024 31.7769 48.0224 24.3541 47.0795C13.4395 45.6923 5.48505 33.1743 8.60099 22.8061C11.5145 13.1073 20.1124 7.56827 29.7181 7.63248C32.9748 7.65447 36.7025 8.59216 39.5931 9.9591C51.2603 15.4779 56.4368 30.8389 50.3158 42.0612C46.6251 48.8326 39.947 53.601 32.342 54.9504C18.3264 57.438 4.61452 49.4932 0.900923 35.5308" fill="white"/>
<path d="M104.373 39.0335L99.3355 29.7719H95.68V39.0335H92.0271V16.8237L100.016 16.8704C104.34 16.895 107.603 18.5179 107.772 22.8765C107.901 26.2841 106.483 28.631 103.321 29.4385L108.859 39.0335H104.375H104.373ZM95.68 26.1179L100.836 26.1223C104.94 26.1258 104.751 20.4645 100.714 20.4689L95.68 20.476V26.1179Z" fill="white"/>
<path d="M144.755 38.9816H140.747L140.735 20.6343L132.394 20.6351V38.9816H128.738V16.9829H153.674L151.823 20.6351H144.734L144.755 38.9816Z" fill="white"/>
<path d="M157.269 16.5835L168.755 38.9824H164.473L157.29 25.5029L150.971 39.0281L146.597 39.0026L157.269 16.5835Z" fill="white"/>
<path d="M117.102 29.7718H113.606V35.397L120.043 35.4014C124.146 35.4049 123.958 29.7436 119.921 29.748L117.367 29.7516L117.101 29.7727L117.102 29.7718ZM109.954 36.9531V16.8228L117.945 16.8694C122.268 16.894 125.532 18.5169 125.7 22.8755C125.769 24.7051 125.391 26.2278 124.539 27.3722C126.115 28.3169 127.132 29.8545 127.219 32.1538C127.35 35.5597 126.01 38.788 121.251 39.0369L109.955 39.0325V36.9531H109.954ZM113.607 26.1178L118.763 26.1222C122.867 26.1257 122.679 20.4644 118.641 20.4688L113.607 20.4759V26.1178Z" fill="white"/>
<path d="M86.7098 27.8304C86.7098 25.568 85.7961 23.5246 84.3209 22.0504C82.8413 20.5717 80.7913 19.6578 78.5274 19.6578C76.2635 19.6578 74.224 20.5717 72.7444 22.0521C71.2648 23.5299 70.3485 25.5742 70.3485 27.8313C70.3485 30.0884 71.2639 32.1336 72.7444 33.6105C74.224 35.09 76.2688 36.0048 78.5274 36.0048C80.786 36.0048 82.8413 35.09 84.3209 33.6113C85.7961 32.1371 86.7098 30.0928 86.7098 27.8313M86.8744 19.4871C89.0142 21.6264 90.3398 24.5758 90.3398 27.8313C90.3398 31.0868 89.0142 34.0371 86.8744 36.1763C84.7364 38.3112 81.7841 39.6324 78.5274 39.6324C75.2706 39.6324 72.314 38.3112 70.1777 36.1746C68.0415 34.0397 66.7185 31.0912 66.7185 27.8304C66.7185 24.5696 68.0415 21.6211 70.1777 19.4862C72.314 17.3496 75.2662 16.0293 78.5274 16.0293C81.7886 16.0293 84.7372 17.3496 86.8744 19.4862" fill="white"/>
<path d="M88.5477 15.534C87.7291 16.0856 86.6174 15.8709 86.0637 15.0511C85.5109 14.2339 85.7284 13.1212 86.5461 12.5697C87.3647 12.0173 88.4781 12.2319 89.0309 13.05C89.5828 13.8698 89.368 14.9807 88.5477 15.5331" fill="white"/>
<path d="M37.7157 38.0007C35.0284 40.5367 31.5665 41.7444 28.1452 41.6468C24.7124 41.5491 21.3218 40.1435 18.7833 37.4571C16.2465 34.7716 15.0371 31.3138 15.1357 27.8938C15.2352 24.465 16.6417 21.0749 19.329 18.5389L19.9284 17.9724L19.9777 17.9645C22.5594 15.8217 25.7457 14.804 28.8995 14.892C32.3306 14.9905 35.722 16.3935 38.2597 19.0808L38.8265 19.6789L38.8344 19.729C40.9786 22.3108 41.997 25.4941 41.9064 28.6441C41.8095 32.0746 40.4038 35.4647 37.7157 38.0007ZM28.2816 36.289C30.3395 36.3479 32.4177 35.6231 34.0329 34.1013C35.6446 32.5804 36.4869 30.5538 36.5459 28.5069C36.604 26.4521 35.8787 24.3753 34.3568 22.7629L34.3436 22.7515C32.8235 21.147 30.7999 20.3096 28.7587 20.2515C26.7025 20.1926 24.6226 20.9165 23.0109 22.4383L22.9995 22.4489C21.3949 23.9697 20.5543 25.992 20.4962 28.0319C20.4363 30.0867 21.1607 32.1644 22.6852 33.775C24.2071 35.3873 26.2351 36.2309 28.2807 36.289" fill="white"/>
<path d="M82.615 51.2164C82.3421 51.4126 81.9408 51.5067 81.5315 51.5067C80.4479 51.5067 79.8168 50.9525 79.8168 49.8618V47.9776H79.1091V46.9546H79.8168V45.8384H81.1477V46.9546H82.2902V47.9776H81.1477V49.8442C81.1477 50.2365 81.3607 50.4494 81.719 50.4494C81.9152 50.4494 82.1115 50.3896 82.2559 50.2787L82.6141 51.2164H82.615Z" fill="white"/>
<path d="M91.103 49.5206H87.6314C87.7591 50.0914 88.2458 50.4415 88.9447 50.4415C89.4306 50.4415 89.7809 50.2964 90.096 49.9982L90.8037 50.7652C90.3768 51.2508 89.7378 51.5068 88.9104 51.5068C87.3234 51.5068 86.2917 50.5093 86.2917 49.1458C86.2917 47.7824 87.341 46.7849 88.7396 46.7849C90.1383 46.7849 91.1285 47.6883 91.1285 49.1625C91.1285 49.2646 91.1109 49.4097 91.103 49.5206ZM87.6138 48.7447H89.8742C89.78 48.165 89.3452 47.7903 88.7484 47.7903C88.1516 47.7903 87.708 48.1571 87.6138 48.7447Z" fill="white"/>
<path d="M95.0867 49.1449C95.0867 47.7638 96.1526 46.7839 97.6454 46.7839C98.6093 46.7839 99.368 47.2018 99.7007 47.9512L98.6682 48.5054C98.4209 48.0708 98.0538 47.8747 97.6357 47.8747C96.9615 47.8747 96.4334 48.3435 96.4334 49.1449C96.4334 49.9462 96.9624 50.415 97.6357 50.415C98.0538 50.415 98.42 50.2277 98.6682 49.7844L99.7007 50.3464C99.368 51.0792 98.6093 51.5058 97.6454 51.5058C96.1526 51.5058 95.0867 50.525 95.0867 49.1449Z" fill="white"/>
<path d="M108.571 48.8124V51.4381H107.241V49.0173C107.241 48.2758 106.899 47.9345 106.311 47.9345C105.671 47.9345 105.211 48.3268 105.211 49.1704V51.4381H103.88V46.8517H105.151V47.3891C105.509 46.9968 106.046 46.7839 106.669 46.7839C107.753 46.7839 108.571 47.4146 108.571 48.8124Z" fill="white"/>
<path d="M112.897 49.1449C112.897 47.7638 113.963 46.7839 115.421 46.7839C116.88 46.7839 117.938 47.7638 117.938 49.1449C117.938 50.5259 116.88 51.5058 115.421 51.5058C113.963 51.5058 112.897 50.525 112.897 49.1449ZM116.59 49.1449C116.59 48.3523 116.087 47.8747 115.422 47.8747C114.757 47.8747 114.245 48.3523 114.245 49.1449C114.245 49.9374 114.757 50.415 115.422 50.415C116.087 50.415 116.59 49.9374 116.59 49.1449Z" fill="white"/>
<path d="M122.237 45.1135H123.568V51.4381H122.237V45.1135Z" fill="white"/>
<path d="M127.875 49.1449C127.875 47.7638 128.941 46.7839 130.4 46.7839C131.858 46.7839 132.916 47.7638 132.916 49.1449C132.916 50.5259 131.858 51.5058 130.4 51.5058C128.941 51.5058 127.875 50.525 127.875 49.1449ZM131.569 49.1449C131.569 48.3523 131.065 47.8747 130.401 47.8747C129.736 47.8747 129.224 48.3523 129.224 49.1449C129.224 49.9374 129.735 50.415 130.401 50.415C131.066 50.415 131.569 49.9374 131.569 49.1449Z" fill="white"/>
<path d="M141.95 46.8517V50.6701C141.95 52.3749 141.028 53.1595 139.374 53.1595C138.503 53.1595 137.659 52.9466 137.122 52.5288L137.651 51.5744C138.044 51.8893 138.683 52.0943 139.271 52.0943C140.21 52.0943 140.619 51.6676 140.619 50.8417V50.6455C140.27 51.029 139.766 51.2164 139.168 51.2164C137.897 51.2164 136.874 50.3385 136.874 48.9997C136.874 47.6609 137.897 46.7839 139.168 46.7839C139.808 46.7839 140.337 46.9968 140.687 47.4401V46.8517H141.949H141.95ZM140.637 48.9997C140.637 48.3268 140.133 47.8747 139.434 47.8747C138.735 47.8747 138.223 48.3268 138.223 48.9997C138.223 49.6726 138.735 50.1248 139.434 50.1248C140.134 50.1248 140.637 49.6726 140.637 48.9997Z" fill="white"/>
<path d="M146.437 45.4715C146.437 45.0537 146.77 44.73 147.265 44.73C147.759 44.73 148.092 45.037 148.092 45.446C148.092 45.8893 147.759 46.213 147.265 46.213C146.77 46.213 146.437 45.8893 146.437 45.4715ZM146.599 46.8517H147.93V51.438H146.599V46.8517Z" fill="white"/>
<path d="M156.639 48.8213V51.4381H155.393V50.8673C155.146 51.2851 154.668 51.5068 153.995 51.5068C152.92 51.5068 152.28 50.9095 152.28 50.1169C152.28 49.3244 152.851 48.7447 154.25 48.7447H155.308C155.308 48.1738 154.966 47.8413 154.25 47.8413C153.764 47.8413 153.261 48.0032 152.928 48.268L152.45 47.3391C152.953 46.9811 153.695 46.7849 154.429 46.7849C155.827 46.7849 156.638 47.4323 156.638 48.8221L156.639 48.8213ZM155.308 49.9894V49.5206H154.395C153.772 49.5206 153.577 49.751 153.577 50.058C153.577 50.3905 153.858 50.6122 154.327 50.6122C154.771 50.6122 155.155 50.4081 155.309 49.9903L155.308 49.9894Z" fill="white"/>
</g>
<defs>
<clipPath id="clip0_603_968">
<rect width="168.755" height="55.403" fill="white"/>
</clipPath>
</defs>
</svg>
