<svg width="62" height="537" viewBox="0 0 62 537" fill="none" xmlns="http://www.w3.org/2000/svg">
<g clip-path="url(#clip0_81_70034)">
<path d="M120.779 453.449C113.671 451.582 107.148 448.282 101.548 443.831L54.7949 537.369H78.8335L85.0304 524.982L120.779 453.449Z" fill="#BCE8F5"/>
<path d="M-0.368896 434.646V456.153H52.961L12.3721 537.369H36.3999L87.7438 434.646H-0.368896Z" fill="#BCE8F5"/>
<path d="M24.1038 477.094H-0.368896V526.024L-0.358044 526.046L24.1038 477.094Z" fill="#BCE8F5"/>
<path d="M81.764 402.956C81.764 399.265 82.1546 395.672 82.8926 392.198H-0.368896V413.704H82.8926C82.1655 410.23 81.764 406.637 81.764 402.956Z" fill="#BCE8F5"/>
<path d="M-0.368896 194.981V243.074V243.063L52.961 349.76H-0.368896V371.266H87.7438L-0.368896 194.981Z" fill="#BCE8F5"/>
<path d="M-0.358044 279.867L-0.368896 279.888V328.818H24.1038L-0.358044 279.867Z" fill="#BCE8F5"/>
<path d="M120.779 352.463L32.0805 175.005C26.4914 179.456 19.9581 182.756 12.8496 184.624L84.6942 328.351L101.548 362.071C107.137 357.62 113.671 354.32 120.779 352.452V352.463Z" fill="#BCE8F5"/>
<path d="M222.11 165.831H45.885L133.998 342.117L222.11 165.831ZM187.328 187.338L133.998 294.023L80.6678 187.338H187.317H187.328Z" fill="#BCE8F5"/>
<path d="M216.131 134.131C216.131 130.439 216.521 126.846 217.259 123.372H50.7471C51.4742 126.846 51.8757 130.439 51.8757 134.131C51.8757 137.822 51.4851 141.415 50.7471 144.878H217.259C216.532 141.404 216.131 137.811 216.131 134.131Z" fill="#BCE8F5"/>
<path d="M222.11 102.441L170.766 -0.282288H146.728L187.328 80.9343H80.6678L121.268 -0.282288H97.2289L45.885 102.441H222.11Z" fill="#BCE8F5"/>
<path d="M32.0805 93.2671L78.8337 -0.282288H54.7951L12.8496 83.6484C19.9581 85.5157 26.4805 88.816 32.0805 93.2671Z" fill="#BCE8F5"/>
<path d="M36.3999 -0.282288H12.3721L-0.368896 25.1976V73.2805V73.2914L36.3999 -0.282288Z" fill="#BCE8F5"/>
<path d="M12.8495 184.624C19.958 182.756 26.4913 179.456 32.0804 175.005C41.4354 167.557 48.1966 156.994 50.747 144.878C51.4741 141.404 51.8757 137.811 51.8757 134.131C51.8757 130.45 51.485 126.846 50.747 123.372C48.2075 111.256 41.4354 100.704 32.0913 93.2563C26.5022 88.8052 19.9689 85.5048 12.8604 83.6375C8.62784 82.5302 4.21081 81.8788 -0.358154 81.8788V100.356C18.2541 100.356 33.4044 115.501 33.4044 134.131C33.4044 152.76 18.265 167.905 -0.358154 167.905V186.382C4.21081 186.382 8.62784 185.731 12.8604 184.624H12.8495Z" fill="#BCE8F5"/>
<path d="M21.1845 134.131C21.1845 122.243 11.5148 112.57 -0.368896 112.57V128.811C2.56132 128.811 4.9489 131.199 4.9489 134.131C4.9489 137.062 2.56132 139.45 -0.368896 139.45V155.691C11.5148 155.691 21.1845 146.018 21.1845 134.131Z" fill="#BCE8F5"/>
</g>
<defs>
<clipPath id="clip0_81_70034">
<rect width="537" height="537" fill="white"/>
</clipPath>
</defs>
</svg>
